{"glyphs":{"0":{"ha":1415,"x_min":26,"x_max":1390,"o":"m 865 399 q 932 450 883 426 q 905 384 916 406 q 880 358 893 363 q 854 365 858 351 q 865 399 850 378 m 390 567 q 415 553 408 595 q 416 495 421 517 l 416 494 q 390 527 399 504 q 390 567 380 549 m 1388 575 q 1378 530 1390 551 q 1383 513 1383 523 q 1367 462 1383 479 q 1319 427 1350 442 q 1261 412 1289 412 q 1212 429 1232 412 q 1195 446 1203 435 q 1118 410 1162 410 q 1085 415 1100 410 q 1084 413 1085 414 q 1084 410 1084 411 q 1062 321 1061 335 q 1061 301 1065 311 q 1048 286 1057 292 q 1031 281 1041 281 q 1010 290 1020 281 q 983 324 995 303 q 951 290 968 303 q 889 267 919 267 q 835 300 863 267 q 812 334 823 313 q 806 368 804 348 q 804 370 806 369 q 802 372 803 371 q 777 366 790 366 q 718 404 742 366 q 712 417 714 410 l 708 421 l 705 398 q 688 372 703 380 q 673 368 681 368 q 658 372 665 368 q 655 373 657 372 q 651 376 653 374 q 646 379 648 377 q 640 377 646 378 l 635 376 q 628 376 631 376 q 575 404 593 376 q 532 378 555 380 q 529 378 531 378 q 526 378 526 378 q 475 401 492 378 q 397 356 442 356 q 338 380 363 356 q 341 354 338 370 q 327 322 345 333 q 310 317 319 317 q 292 323 300 317 l 290 324 q 286 329 288 326 q 279 334 283 331 q 271 342 275 338 q 262 353 267 347 q 252 366 257 359 q 243 382 248 374 q 224 408 231 396 q 229 349 220 368 q 229 318 238 334 q 202 302 220 302 q 144 331 168 302 q 100 414 105 376 q 82 409 91 409 q 71 411 76 409 q 37 441 48 420 q 28 477 26 463 q 29 486 28 479 q 37 505 31 492 q 53 529 43 517 q 83 553 63 541 q 128 573 102 566 q 155 657 144 629 q 172 692 167 686 q 186 701 178 697 q 199 703 193 703 q 262 664 224 703 q 267 659 265 661 q 315 752 286 703 q 372 782 334 782 q 422 769 397 782 q 446 741 430 765 q 463 709 462 718 q 448 681 464 691 q 430 663 442 677 q 467 631 452 651 q 473 615 472 624 q 475 614 473 614 l 476 613 q 496 639 486 631 q 551 661 519 661 q 606 636 589 661 q 622 637 617 637 q 680 763 643 703 q 736 793 699 793 q 787 781 761 793 q 804 754 802 772 l 804 752 q 925 754 836 754 l 979 754 q 1016 757 998 754 q 1042 763 1034 760 l 1050 766 q 1062 768 1055 768 q 1085 758 1076 768 q 1098 740 1089 754 q 1108 724 1107 725 q 1114 690 1121 707 q 1106 675 1112 684 q 1134 652 1129 671 q 1135 645 1135 648 q 1148 646 1139 646 q 1192 627 1175 646 q 1218 652 1202 640 q 1282 675 1249 675 q 1329 663 1310 675 q 1367 625 1348 650 q 1388 575 1386 602 m 287 382 q 297 520 277 440 q 349 662 317 600 q 408 741 380 724 q 395 747 403 744 q 369 749 387 750 q 342 735 351 749 q 287 627 308 680 q 261 536 266 574 q 256 478 256 498 q 258 444 256 458 q 234 528 239 479 q 235 610 230 578 l 240 642 q 231 651 237 646 q 214 665 225 656 q 197 671 202 673 q 153 547 186 667 q 110 533 129 543 q 82 514 91 524 q 67 495 73 504 q 60 480 61 486 l 59 474 q 144 509 73 494 q 132 458 134 465 q 131 414 128 431 q 142 387 134 397 q 158 373 150 378 q 172 368 166 369 l 179 368 q 169 417 169 386 q 175 480 168 449 q 190 540 182 511 q 205 587 198 569 l 212 605 q 225 492 214 543 q 248 430 233 458 q 275 393 263 403 l 287 382 m 572 469 q 585 447 576 454 q 602 441 595 440 l 610 441 q 607 447 609 443 q 602 469 605 452 q 604 510 599 486 q 613 554 607 530 q 623 593 618 578 l 627 606 q 583 591 591 608 q 556 536 568 564 q 532 490 544 509 q 505 469 513 461 q 506 504 498 475 q 528 562 513 534 q 554 603 544 595 q 583 606 564 612 q 576 623 587 616 q 548 629 565 630 q 517 616 530 627 q 474 522 488 587 q 446 493 462 500 q 452 542 453 524 q 437 596 450 582 q 403 608 425 610 q 442 612 419 619 q 433 623 439 616 q 411 637 427 629 q 379 640 394 645 q 331 565 353 630 q 319 465 309 500 q 364 422 332 428 q 427 454 397 416 q 441 479 435 465 q 471 496 456 482 q 471 469 469 477 q 507 444 475 441 q 540 474 521 444 q 571 532 559 503 l 584 561 q 579 544 582 554 q 572 507 576 534 q 572 469 567 480 m 767 435 q 765 437 766 435 q 760 446 763 439 q 754 460 756 452 q 753 483 753 469 q 757 512 753 496 q 770 558 762 536 q 781 590 777 580 l 786 600 l 757 614 q 746 614 750 617 q 659 515 692 575 q 711 663 676 590 q 772 753 745 735 q 759 759 767 755 q 733 761 751 762 q 707 747 715 760 q 636 570 659 670 q 622 468 618 492 q 630 450 623 459 q 643 437 637 441 l 650 433 q 684 527 651 485 q 714 564 700 549 q 734 583 728 578 l 740 587 q 736 576 739 583 q 727 551 733 569 q 718 516 722 532 q 715 482 715 500 q 722 454 715 465 q 743 433 732 438 q 761 431 754 429 l 767 435 m 829 405 q 836 518 810 436 q 901 686 862 601 q 999 688 986 687 q 1034 702 1019 690 q 1056 726 1050 714 l 1062 736 q 979 723 1029 724 q 928 723 963 723 q 872 722 893 722 q 826 721 850 722 q 788 719 801 720 q 752 703 768 716 q 731 677 736 689 l 726 665 q 795 682 734 677 q 853 684 807 682 q 825 608 851 677 q 789 497 798 538 q 787 461 785 477 q 796 435 789 446 q 810 418 803 425 q 823 408 818 411 l 829 405 m 1163 521 q 1181 567 1179 549 q 1177 595 1183 586 q 1131 611 1164 623 q 1098 590 1114 605 q 1073 564 1082 576 l 1065 553 q 1103 644 1101 644 l 1084 644 q 1053 627 1060 640 q 1013 516 1034 576 q 1011 511 1012 515 q 1009 506 1010 508 q 977 487 990 494 q 997 547 984 511 q 1020 607 1010 583 l 1029 631 q 983 616 994 629 q 960 584 981 613 q 922 533 939 554 q 897 517 904 513 q 897 526 895 519 q 903 543 898 532 q 913 564 907 553 q 926 587 919 575 q 938 607 932 598 q 947 623 943 616 l 950 629 q 938 628 945 629 q 914 621 930 627 q 892 604 898 614 q 882 582 885 589 q 872 563 878 576 q 864 543 866 550 q 859 526 861 535 q 857 511 857 517 q 861 501 858 505 q 878 494 866 494 q 905 501 890 494 q 932 524 920 509 l 978 585 q 939 470 956 517 q 913 454 930 464 q 890 440 897 445 q 873 427 884 436 q 853 405 863 417 q 837 359 835 381 q 858 334 839 337 q 909 350 878 330 q 941 389 930 364 q 968 459 953 413 q 971 471 970 467 q 1003 488 987 480 q 979 409 984 435 q 983 381 975 396 q 1000 357 990 366 l 1008 347 q 1031 453 1004 362 q 1067 538 1046 504 q 1109 584 1082 565 q 1143 597 1135 603 q 1144 576 1147 592 q 1135 547 1141 561 q 1101 506 1122 521 q 1066 490 1080 491 l 1053 488 q 1060 484 1055 486 q 1078 477 1064 481 q 1104 474 1091 473 q 1133 487 1116 475 q 1163 521 1149 498 m 1272 610 q 1306 625 1291 631 q 1310 602 1319 620 q 1295 585 1304 593 q 1275 575 1286 577 q 1256 574 1263 572 l 1249 575 q 1252 569 1250 572 q 1264 559 1255 565 q 1285 553 1273 553 q 1322 570 1310 555 q 1333 607 1335 586 q 1318 631 1333 621 q 1283 643 1304 642 q 1237 627 1262 644 q 1201 586 1216 611 q 1185 533 1185 562 q 1208 487 1185 505 q 1246 478 1224 475 q 1289 493 1269 481 q 1321 517 1310 504 q 1326 528 1324 521 q 1329 541 1329 536 l 1329 547 q 1275 504 1313 521 q 1227 503 1238 487 q 1233 552 1218 519 q 1272 610 1249 585 m 367 551 q 381 508 368 528 q 413 481 394 488 q 393 439 404 449 q 367 434 381 430 q 354 472 355 437 q 361 532 353 506 q 367 551 363 541 m 645 143 q 630 148 635 143 q 625 161 625 153 q 628 175 625 170 q 637 185 631 180 q 651 189 644 189 q 666 184 661 189 q 671 172 671 180 q 667 157 671 164 q 659 147 664 151 q 645 143 652 143 m 1145 94 l 241 94 l 271 241 l 1175 241 l 1145 94 m 1118 202 l 1055 202 l 1052 189 l 1075 189 l 1063 130 l 1080 130 l 1092 189 l 1115 189 l 1118 202 m 962 202 l 947 130 l 964 130 l 972 175 l 1000 130 l 1013 130 l 1027 202 l 1011 202 l 1002 157 l 975 202 l 962 202 m 850 182 q 844 160 844 172 q 848 144 844 151 q 861 133 852 137 q 879 129 869 129 q 903 135 892 129 q 918 150 914 142 q 924 172 924 161 q 920 189 924 182 q 907 199 916 195 q 888 203 899 203 q 865 198 874 203 q 850 182 854 191 m 773 202 l 759 130 l 775 130 l 781 157 l 814 157 l 817 170 l 783 170 l 787 189 l 825 189 l 827 202 l 773 202 m 614 182 q 608 160 608 174 q 612 144 608 151 q 625 133 616 137 q 643 129 633 129 q 667 135 656 129 q 682 150 678 142 q 688 172 688 159 q 684 189 688 182 q 671 199 680 195 q 652 203 663 203 q 629 198 638 203 q 614 182 618 191 m 517 202 l 504 202 l 490 130 l 505 130 l 513 174 l 528 138 l 536 138 l 564 173 l 555 130 l 570 130 l 585 202 l 570 202 l 535 157 l 517 202 m 416 202 l 402 130 l 458 130 l 460 144 l 421 144 l 425 160 l 458 160 l 460 173 l 427 173 l 430 189 l 468 189 l 471 202 l 416 202 m 343 202 l 313 202 l 299 130 l 334 130 q 357 136 347 130 q 373 150 366 140 q 378 172 378 158 q 374 188 378 180 q 362 199 370 195 q 343 202 355 202 m 881 143 q 866 148 871 143 q 861 161 861 153 q 864 175 861 170 q 873 185 867 180 q 887 189 880 189 q 902 184 897 189 q 907 172 907 180 q 903 157 907 164 q 895 147 900 151 q 881 143 888 143 m 349 147 q 334 144 342 144 l 318 144 l 327 189 l 341 189 q 357 184 351 189 q 362 172 362 178 q 359 157 362 164 q 349 147 355 150 z "},"1":{"ha":1415,"x_min":26,"x_max":1390,"o":"m 865 399 q 932 450 883 426 q 905 384 916 406 q 880 358 893 363 q 854 365 858 351 q 865 399 850 378 m 390 567 q 415 553 408 595 q 416 495 421 517 l 416 494 q 390 527 399 504 q 390 567 380 549 m 1388 575 q 1378 530 1390 551 q 1383 513 1383 523 q 1367 462 1383 479 q 1319 427 1350 442 q 1261 412 1289 412 q 1212 429 1232 412 q 1195 446 1203 435 q 1118 410 1162 410 q 1085 415 1100 410 q 1084 413 1085 414 q 1084 410 1084 411 q 1062 321 1061 335 q 1061 301 1065 311 q 1048 286 1057 292 q 1031 281 1041 281 q 1010 290 1020 281 q 983 324 995 303 q 951 290 968 303 q 889 267 919 267 q 835 300 863 267 q 812 334 823 313 q 806 368 804 348 q 804 370 806 369 q 802 372 803 371 q 777 366 790 366 q 718 404 742 366 q 712 417 714 410 l 708 421 l 705 398 q 688 372 703 380 q 673 368 681 368 q 658 372 665 368 q 655 373 657 372 q 651 376 653 374 q 646 379 648 377 q 640 377 646 378 l 635 376 q 628 376 631 376 q 575 404 593 376 q 532 378 555 380 q 529 378 531 378 q 526 378 526 378 q 475 401 492 378 q 397 356 442 356 q 338 380 363 356 q 341 354 338 370 q 327 322 345 333 q 310 317 319 317 q 292 323 300 317 l 290 324 q 286 329 288 326 q 279 334 283 331 q 271 342 275 338 q 262 353 267 347 q 252 366 257 359 q 243 382 248 374 q 224 408 231 396 q 229 349 220 368 q 229 318 238 334 q 202 302 220 302 q 144 331 168 302 q 100 414 105 376 q 82 409 91 409 q 71 411 76 409 q 37 441 48 420 q 28 477 26 463 q 29 486 28 479 q 37 505 31 492 q 53 529 43 517 q 83 553 63 541 q 128 573 102 566 q 155 657 144 629 q 172 692 167 686 q 186 701 178 697 q 199 703 193 703 q 262 664 224 703 q 267 659 265 661 q 315 752 286 703 q 372 782 334 782 q 422 769 397 782 q 446 741 430 765 q 463 709 462 718 q 448 681 464 691 q 430 663 442 677 q 467 631 452 651 q 473 615 472 624 q 475 614 473 614 l 476 613 q 496 639 486 631 q 551 661 519 661 q 606 636 589 661 q 622 637 617 637 q 680 763 643 703 q 736 793 699 793 q 787 781 761 793 q 804 754 802 772 l 804 752 q 925 754 836 754 l 979 754 q 1016 757 998 754 q 1042 763 1034 760 l 1050 766 q 1062 768 1055 768 q 1085 758 1076 768 q 1098 740 1089 754 q 1108 724 1107 725 q 1114 690 1121 707 q 1106 675 1112 684 q 1134 652 1129 671 q 1135 645 1135 648 q 1148 646 1139 646 q 1192 627 1175 646 q 1218 652 1202 640 q 1282 675 1249 675 q 1329 663 1310 675 q 1367 625 1348 650 q 1388 575 1386 602 m 287 382 q 297 520 277 440 q 349 662 317 600 q 408 741 380 724 q 395 747 403 744 q 369 749 387 750 q 342 735 351 749 q 287 627 308 680 q 261 536 266 574 q 256 478 256 498 q 258 444 256 458 q 234 528 239 479 q 235 610 230 578 l 240 642 q 231 651 237 646 q 214 665 225 656 q 197 671 202 673 q 153 547 186 667 q 110 533 129 543 q 82 514 91 524 q 67 495 73 504 q 60 480 61 486 l 59 474 q 144 509 73 494 q 132 458 134 465 q 131 414 128 431 q 142 387 134 397 q 158 373 150 378 q 172 368 166 369 l 179 368 q 169 417 169 386 q 175 480 168 449 q 190 540 182 511 q 205 587 198 569 l 212 605 q 225 492 214 543 q 248 430 233 458 q 275 393 263 403 l 287 382 m 572 469 q 585 447 576 454 q 602 441 595 440 l 610 441 q 607 447 609 443 q 602 469 605 452 q 604 510 599 486 q 613 554 607 530 q 623 593 618 578 l 627 606 q 583 591 591 608 q 556 536 568 564 q 532 490 544 509 q 505 469 513 461 q 506 504 498 475 q 528 562 513 534 q 554 603 544 595 q 583 606 564 612 q 576 623 587 616 q 548 629 565 630 q 517 616 530 627 q 474 522 488 587 q 446 493 462 500 q 452 542 453 524 q 437 596 450 582 q 403 608 425 610 q 442 612 419 619 q 433 623 439 616 q 411 637 427 629 q 379 640 394 645 q 331 565 353 630 q 319 465 309 500 q 364 422 332 428 q 427 454 397 416 q 441 479 435 465 q 471 496 456 482 q 471 469 469 477 q 507 444 475 441 q 540 474 521 444 q 571 532 559 503 l 584 561 q 579 544 582 554 q 572 507 576 534 q 572 469 567 480 m 767 435 q 765 437 766 435 q 760 446 763 439 q 754 460 756 452 q 753 483 753 469 q 757 512 753 496 q 770 558 762 536 q 781 590 777 580 l 786 600 l 757 614 q 746 614 750 617 q 659 515 692 575 q 711 663 676 590 q 772 753 745 735 q 759 759 767 755 q 733 761 751 762 q 707 747 715 760 q 636 570 659 670 q 622 468 618 492 q 630 450 623 459 q 643 437 637 441 l 650 433 q 684 527 651 485 q 714 564 700 549 q 734 583 728 578 l 740 587 q 736 576 739 583 q 727 551 733 569 q 718 516 722 532 q 715 482 715 500 q 722 454 715 465 q 743 433 732 438 q 761 431 754 429 l 767 435 m 829 405 q 836 518 810 436 q 901 686 862 601 q 999 688 986 687 q 1034 702 1019 690 q 1056 726 1050 714 l 1062 736 q 979 723 1029 724 q 928 723 963 723 q 872 722 893 722 q 826 721 850 722 q 788 719 801 720 q 752 703 768 716 q 731 677 736 689 l 726 665 q 795 682 734 677 q 853 684 807 682 q 825 608 851 677 q 789 497 798 538 q 787 461 785 477 q 796 435 789 446 q 810 418 803 425 q 823 408 818 411 l 829 405 m 1163 521 q 1181 567 1179 549 q 1177 595 1183 586 q 1131 611 1164 623 q 1098 590 1114 605 q 1073 564 1082 576 l 1065 553 q 1103 644 1101 644 l 1084 644 q 1053 627 1060 640 q 1013 516 1034 576 q 1011 511 1012 515 q 1009 506 1010 508 q 977 487 990 494 q 997 547 984 511 q 1020 607 1010 583 l 1029 631 q 983 616 994 629 q 960 584 981 613 q 922 533 939 554 q 897 517 904 513 q 897 526 895 519 q 903 543 898 532 q 913 564 907 553 q 926 587 919 575 q 938 607 932 598 q 947 623 943 616 l 950 629 q 938 628 945 629 q 914 621 930 627 q 892 604 898 614 q 882 582 885 589 q 872 563 878 576 q 864 543 866 550 q 859 526 861 535 q 857 511 857 517 q 861 501 858 505 q 878 494 866 494 q 905 501 890 494 q 932 524 920 509 l 978 585 q 939 470 956 517 q 913 454 930 464 q 890 440 897 445 q 873 427 884 436 q 853 405 863 417 q 837 359 835 381 q 858 334 839 337 q 909 350 878 330 q 941 389 930 364 q 968 459 953 413 q 971 471 970 467 q 1003 488 987 480 q 979 409 984 435 q 983 381 975 396 q 1000 357 990 366 l 1008 347 q 1031 453 1004 362 q 1067 538 1046 504 q 1109 584 1082 565 q 1143 597 1135 603 q 1144 576 1147 592 q 1135 547 1141 561 q 1101 506 1122 521 q 1066 490 1080 491 l 1053 488 q 1060 484 1055 486 q 1078 477 1064 481 q 1104 474 1091 473 q 1133 487 1116 475 q 1163 521 1149 498 m 1272 610 q 1306 625 1291 631 q 1310 602 1319 620 q 1295 585 1304 593 q 1275 575 1286 577 q 1256 574 1263 572 l 1249 575 q 1252 569 1250 572 q 1264 559 1255 565 q 1285 553 1273 553 q 1322 570 1310 555 q 1333 607 1335 586 q 1318 631 1333 621 q 1283 643 1304 642 q 1237 627 1262 644 q 1201 586 1216 611 q 1185 533 1185 562 q 1208 487 1185 505 q 1246 478 1224 475 q 1289 493 1269 481 q 1321 517 1310 504 q 1326 528 1324 521 q 1329 541 1329 536 l 1329 547 q 1275 504 1313 521 q 1227 503 1238 487 q 1233 552 1218 519 q 1272 610 1249 585 m 367 551 q 381 508 368 528 q 413 481 394 488 q 393 439 404 449 q 367 434 381 430 q 354 472 355 437 q 361 532 353 506 q 367 551 363 541 m 645 143 q 630 148 635 143 q 625 161 625 153 q 628 175 625 170 q 637 185 631 180 q 651 189 644 189 q 666 184 661 189 q 671 172 671 180 q 667 157 671 164 q 659 147 664 151 q 645 143 652 143 m 1145 94 l 241 94 l 271 241 l 1175 241 l 1145 94 m 1118 202 l 1055 202 l 1052 189 l 1075 189 l 1063 130 l 1080 130 l 1092 189 l 1115 189 l 1118 202 m 962 202 l 947 130 l 964 130 l 972 175 l 1000 130 l 1013 130 l 1027 202 l 1011 202 l 1002 157 l 975 202 l 962 202 m 850 182 q 844 160 844 172 q 848 144 844 151 q 861 133 852 137 q 879 129 869 129 q 903 135 892 129 q 918 150 914 142 q 924 172 924 161 q 920 189 924 182 q 907 199 916 195 q 888 203 899 203 q 865 198 874 203 q 850 182 854 191 m 773 202 l 759 130 l 775 130 l 781 157 l 814 157 l 817 170 l 783 170 l 787 189 l 825 189 l 827 202 l 773 202 m 614 182 q 608 160 608 174 q 612 144 608 151 q 625 133 616 137 q 643 129 633 129 q 667 135 656 129 q 682 150 678 142 q 688 172 688 159 q 684 189 688 182 q 671 199 680 195 q 652 203 663 203 q 629 198 638 203 q 614 182 618 191 m 517 202 l 504 202 l 490 130 l 505 130 l 513 174 l 528 138 l 536 138 l 564 173 l 555 130 l 570 130 l 585 202 l 570 202 l 535 157 l 517 202 m 416 202 l 402 130 l 458 130 l 460 144 l 421 144 l 425 160 l 458 160 l 460 173 l 427 173 l 430 189 l 468 189 l 471 202 l 416 202 m 343 202 l 313 202 l 299 130 l 334 130 q 357 136 347 130 q 373 150 366 140 q 378 172 378 158 q 374 188 378 180 q 362 199 370 195 q 343 202 355 202 m 881 143 q 866 148 871 143 q 861 161 861 153 q 864 175 861 170 q 873 185 867 180 q 887 189 880 189 q 902 184 897 189 q 907 172 907 180 q 903 157 907 164 q 895 147 900 151 q 881 143 888 143 m 349 147 q 334 144 342 144 l 318 144 l 327 189 l 341 189 q 357 184 351 189 q 362 172 362 178 q 359 157 362 164 q 349 147 355 150 z "},"2":{"ha":1415,"x_min":26,"x_max":1390,"o":"m 865 399 q 932 450 883 426 q 905 384 916 406 q 880 358 893 363 q 854 365 858 351 q 865 399 850 378 m 390 567 q 415 553 408 595 q 416 495 421 517 l 416 494 q 390 527 399 504 q 390 567 380 549 m 1388 575 q 1378 530 1390 551 q 1383 513 1383 523 q 1367 462 1383 479 q 1319 427 1350 442 q 1261 412 1289 412 q 1212 429 1232 412 q 1195 446 1203 435 q 1118 410 1162 410 q 1085 415 1100 410 q 1084 413 1085 414 q 1084 410 1084 411 q 1062 321 1061 335 q 1061 301 1065 311 q 1048 286 1057 292 q 1031 281 1041 281 q 1010 290 1020 281 q 983 324 995 303 q 951 290 968 303 q 889 267 919 267 q 835 300 863 267 q 812 334 823 313 q 806 368 804 348 q 804 370 806 369 q 802 372 803 371 q 777 366 790 366 q 718 404 742 366 q 712 417 714 410 l 708 421 l 705 398 q 688 372 703 380 q 673 368 681 368 q 658 372 665 368 q 655 373 657 372 q 651 376 653 374 q 646 379 648 377 q 640 377 646 378 l 635 376 q 628 376 631 376 q 575 404 593 376 q 532 378 555 380 q 529 378 531 378 q 526 378 526 378 q 475 401 492 378 q 397 356 442 356 q 338 380 363 356 q 341 354 338 370 q 327 322 345 333 q 310 317 319 317 q 292 323 300 317 l 290 324 q 286 329 288 326 q 279 334 283 331 q 271 342 275 338 q 262 353 267 347 q 252 366 257 359 q 243 382 248 374 q 224 408 231 396 q 229 349 220 368 q 229 318 238 334 q 202 302 220 302 q 144 331 168 302 q 100 414 105 376 q 82 409 91 409 q 71 411 76 409 q 37 441 48 420 q 28 477 26 463 q 29 486 28 479 q 37 505 31 492 q 53 529 43 517 q 83 553 63 541 q 128 573 102 566 q 155 657 144 629 q 172 692 167 686 q 186 701 178 697 q 199 703 193 703 q 262 664 224 703 q 267 659 265 661 q 315 752 286 703 q 372 782 334 782 q 422 769 397 782 q 446 741 430 765 q 463 709 462 718 q 448 681 464 691 q 430 663 442 677 q 467 631 452 651 q 473 615 472 624 q 475 614 473 614 l 476 613 q 496 639 486 631 q 551 661 519 661 q 606 636 589 661 q 622 637 617 637 q 680 763 643 703 q 736 793 699 793 q 787 781 761 793 q 804 754 802 772 l 804 752 q 925 754 836 754 l 979 754 q 1016 757 998 754 q 1042 763 1034 760 l 1050 766 q 1062 768 1055 768 q 1085 758 1076 768 q 1098 740 1089 754 q 1108 724 1107 725 q 1114 690 1121 707 q 1106 675 1112 684 q 1134 652 1129 671 q 1135 645 1135 648 q 1148 646 1139 646 q 1192 627 1175 646 q 1218 652 1202 640 q 1282 675 1249 675 q 1329 663 1310 675 q 1367 625 1348 650 q 1388 575 1386 602 m 287 382 q 297 520 277 440 q 349 662 317 600 q 408 741 380 724 q 395 747 403 744 q 369 749 387 750 q 342 735 351 749 q 287 627 308 680 q 261 536 266 574 q 256 478 256 498 q 258 444 256 458 q 234 528 239 479 q 235 610 230 578 l 240 642 q 231 651 237 646 q 214 665 225 656 q 197 671 202 673 q 153 547 186 667 q 110 533 129 543 q 82 514 91 524 q 67 495 73 504 q 60 480 61 486 l 59 474 q 144 509 73 494 q 132 458 134 465 q 131 414 128 431 q 142 387 134 397 q 158 373 150 378 q 172 368 166 369 l 179 368 q 169 417 169 386 q 175 480 168 449 q 190 540 182 511 q 205 587 198 569 l 212 605 q 225 492 214 543 q 248 430 233 458 q 275 393 263 403 l 287 382 m 572 469 q 585 447 576 454 q 602 441 595 440 l 610 441 q 607 447 609 443 q 602 469 605 452 q 604 510 599 486 q 613 554 607 530 q 623 593 618 578 l 627 606 q 583 591 591 608 q 556 536 568 564 q 532 490 544 509 q 505 469 513 461 q 506 504 498 475 q 528 562 513 534 q 554 603 544 595 q 583 606 564 612 q 576 623 587 616 q 548 629 565 630 q 517 616 530 627 q 474 522 488 587 q 446 493 462 500 q 452 542 453 524 q 437 596 450 582 q 403 608 425 610 q 442 612 419 619 q 433 623 439 616 q 411 637 427 629 q 379 640 394 645 q 331 565 353 630 q 319 465 309 500 q 364 422 332 428 q 427 454 397 416 q 441 479 435 465 q 471 496 456 482 q 471 469 469 477 q 507 444 475 441 q 540 474 521 444 q 571 532 559 503 l 584 561 q 579 544 582 554 q 572 507 576 534 q 572 469 567 480 m 767 435 q 765 437 766 435 q 760 446 763 439 q 754 460 756 452 q 753 483 753 469 q 757 512 753 496 q 770 558 762 536 q 781 590 777 580 l 786 600 l 757 614 q 746 614 750 617 q 659 515 692 575 q 711 663 676 590 q 772 753 745 735 q 759 759 767 755 q 733 761 751 762 q 707 747 715 760 q 636 570 659 670 q 622 468 618 492 q 630 450 623 459 q 643 437 637 441 l 650 433 q 684 527 651 485 q 714 564 700 549 q 734 583 728 578 l 740 587 q 736 576 739 583 q 727 551 733 569 q 718 516 722 532 q 715 482 715 500 q 722 454 715 465 q 743 433 732 438 q 761 431 754 429 l 767 435 m 829 405 q 836 518 810 436 q 901 686 862 601 q 999 688 986 687 q 1034 702 1019 690 q 1056 726 1050 714 l 1062 736 q 979 723 1029 724 q 928 723 963 723 q 872 722 893 722 q 826 721 850 722 q 788 719 801 720 q 752 703 768 716 q 731 677 736 689 l 726 665 q 795 682 734 677 q 853 684 807 682 q 825 608 851 677 q 789 497 798 538 q 787 461 785 477 q 796 435 789 446 q 810 418 803 425 q 823 408 818 411 l 829 405 m 1163 521 q 1181 567 1179 549 q 1177 595 1183 586 q 1131 611 1164 623 q 1098 590 1114 605 q 1073 564 1082 576 l 1065 553 q 1103 644 1101 644 l 1084 644 q 1053 627 1060 640 q 1013 516 1034 576 q 1011 511 1012 515 q 1009 506 1010 508 q 977 487 990 494 q 997 547 984 511 q 1020 607 1010 583 l 1029 631 q 983 616 994 629 q 960 584 981 613 q 922 533 939 554 q 897 517 904 513 q 897 526 895 519 q 903 543 898 532 q 913 564 907 553 q 926 587 919 575 q 938 607 932 598 q 947 623 943 616 l 950 629 q 938 628 945 629 q 914 621 930 627 q 892 604 898 614 q 882 582 885 589 q 872 563 878 576 q 864 543 866 550 q 859 526 861 535 q 857 511 857 517 q 861 501 858 505 q 878 494 866 494 q 905 501 890 494 q 932 524 920 509 l 978 585 q 939 470 956 517 q 913 454 930 464 q 890 440 897 445 q 873 427 884 436 q 853 405 863 417 q 837 359 835 381 q 858 334 839 337 q 909 350 878 330 q 941 389 930 364 q 968 459 953 413 q 971 471 970 467 q 1003 488 987 480 q 979 409 984 435 q 983 381 975 396 q 1000 357 990 366 l 1008 347 q 1031 453 1004 362 q 1067 538 1046 504 q 1109 584 1082 565 q 1143 597 1135 603 q 1144 576 1147 592 q 1135 547 1141 561 q 1101 506 1122 521 q 1066 490 1080 491 l 1053 488 q 1060 484 1055 486 q 1078 477 1064 481 q 1104 474 1091 473 q 1133 487 1116 475 q 1163 521 1149 498 m 1272 610 q 1306 625 1291 631 q 1310 602 1319 620 q 1295 585 1304 593 q 1275 575 1286 577 q 1256 574 1263 572 l 1249 575 q 1252 569 1250 572 q 1264 559 1255 565 q 1285 553 1273 553 q 1322 570 1310 555 q 1333 607 1335 586 q 1318 631 1333 621 q 1283 643 1304 642 q 1237 627 1262 644 q 1201 586 1216 611 q 1185 533 1185 562 q 1208 487 1185 505 q 1246 478 1224 475 q 1289 493 1269 481 q 1321 517 1310 504 q 1326 528 1324 521 q 1329 541 1329 536 l 1329 547 q 1275 504 1313 521 q 1227 503 1238 487 q 1233 552 1218 519 q 1272 610 1249 585 m 367 551 q 381 508 368 528 q 413 481 394 488 q 393 439 404 449 q 367 434 381 430 q 354 472 355 437 q 361 532 353 506 q 367 551 363 541 m 645 143 q 630 148 635 143 q 625 161 625 153 q 628 175 625 170 q 637 185 631 180 q 651 189 644 189 q 666 184 661 189 q 671 172 671 180 q 667 157 671 164 q 659 147 664 151 q 645 143 652 143 m 1145 94 l 241 94 l 271 241 l 1175 241 l 1145 94 m 1118 202 l 1055 202 l 1052 189 l 1075 189 l 1063 130 l 1080 130 l 1092 189 l 1115 189 l 1118 202 m 962 202 l 947 130 l 964 130 l 972 175 l 1000 130 l 1013 130 l 1027 202 l 1011 202 l 1002 157 l 975 202 l 962 202 m 850 182 q 844 160 844 172 q 848 144 844 151 q 861 133 852 137 q 879 129 869 129 q 903 135 892 129 q 918 150 914 142 q 924 172 924 161 q 920 189 924 182 q 907 199 916 195 q 888 203 899 203 q 865 198 874 203 q 850 182 854 191 m 773 202 l 759 130 l 775 130 l 781 157 l 814 157 l 817 170 l 783 170 l 787 189 l 825 189 l 827 202 l 773 202 m 614 182 q 608 160 608 174 q 612 144 608 151 q 625 133 616 137 q 643 129 633 129 q 667 135 656 129 q 682 150 678 142 q 688 172 688 159 q 684 189 688 182 q 671 199 680 195 q 652 203 663 203 q 629 198 638 203 q 614 182 618 191 m 517 202 l 504 202 l 490 130 l 505 130 l 513 174 l 528 138 l 536 138 l 564 173 l 555 130 l 570 130 l 585 202 l 570 202 l 535 157 l 517 202 m 416 202 l 402 130 l 458 130 l 460 144 l 421 144 l 425 160 l 458 160 l 460 173 l 427 173 l 430 189 l 468 189 l 471 202 l 416 202 m 343 202 l 313 202 l 299 130 l 334 130 q 357 136 347 130 q 373 150 366 140 q 378 172 378 158 q 374 188 378 180 q 362 199 370 195 q 343 202 355 202 m 881 143 q 866 148 871 143 q 861 161 861 153 q 864 175 861 170 q 873 185 867 180 q 887 189 880 189 q 902 184 897 189 q 907 172 907 180 q 903 157 907 164 q 895 147 900 151 q 881 143 888 143 m 349 147 q 334 144 342 144 l 318 144 l 327 189 l 341 189 q 357 184 351 189 q 362 172 362 178 q 359 157 362 164 q 349 147 355 150 z "},"3":{"ha":1415,"x_min":26,"x_max":1390,"o":"m 865 399 q 932 450 883 426 q 905 384 916 406 q 880 358 893 363 q 854 365 858 351 q 865 399 850 378 m 390 567 q 415 553 408 595 q 416 495 421 517 l 416 494 q 390 527 399 504 q 390 567 380 549 m 1388 575 q 1378 530 1390 551 q 1383 513 1383 523 q 1367 462 1383 479 q 1319 427 1350 442 q 1261 412 1289 412 q 1212 429 1232 412 q 1195 446 1203 435 q 1118 410 1162 410 q 1085 415 1100 410 q 1084 413 1085 414 q 1084 410 1084 411 q 1062 321 1061 335 q 1061 301 1065 311 q 1048 286 1057 292 q 1031 281 1041 281 q 1010 290 1020 281 q 983 324 995 303 q 951 290 968 303 q 889 267 919 267 q 835 300 863 267 q 812 334 823 313 q 806 368 804 348 q 804 370 806 369 q 802 372 803 371 q 777 366 790 366 q 718 404 742 366 q 712 417 714 410 l 708 421 l 705 398 q 688 372 703 380 q 673 368 681 368 q 658 372 665 368 q 655 373 657 372 q 651 376 653 374 q 646 379 648 377 q 640 377 646 378 l 635 376 q 628 376 631 376 q 575 404 593 376 q 532 378 555 380 q 529 378 531 378 q 526 378 526 378 q 475 401 492 378 q 397 356 442 356 q 338 380 363 356 q 341 354 338 370 q 327 322 345 333 q 310 317 319 317 q 292 323 300 317 l 290 324 q 286 329 288 326 q 279 334 283 331 q 271 342 275 338 q 262 353 267 347 q 252 366 257 359 q 243 382 248 374 q 224 408 231 396 q 229 349 220 368 q 229 318 238 334 q 202 302 220 302 q 144 331 168 302 q 100 414 105 376 q 82 409 91 409 q 71 411 76 409 q 37 441 48 420 q 28 477 26 463 q 29 486 28 479 q 37 505 31 492 q 53 529 43 517 q 83 553 63 541 q 128 573 102 566 q 155 657 144 629 q 172 692 167 686 q 186 701 178 697 q 199 703 193 703 q 262 664 224 703 q 267 659 265 661 q 315 752 286 703 q 372 782 334 782 q 422 769 397 782 q 446 741 430 765 q 463 709 462 718 q 448 681 464 691 q 430 663 442 677 q 467 631 452 651 q 473 615 472 624 q 475 614 473 614 l 476 613 q 496 639 486 631 q 551 661 519 661 q 606 636 589 661 q 622 637 617 637 q 680 763 643 703 q 736 793 699 793 q 787 781 761 793 q 804 754 802 772 l 804 752 q 925 754 836 754 l 979 754 q 1016 757 998 754 q 1042 763 1034 760 l 1050 766 q 1062 768 1055 768 q 1085 758 1076 768 q 1098 740 1089 754 q 1108 724 1107 725 q 1114 690 1121 707 q 1106 675 1112 684 q 1134 652 1129 671 q 1135 645 1135 648 q 1148 646 1139 646 q 1192 627 1175 646 q 1218 652 1202 640 q 1282 675 1249 675 q 1329 663 1310 675 q 1367 625 1348 650 q 1388 575 1386 602 m 287 382 q 297 520 277 440 q 349 662 317 600 q 408 741 380 724 q 395 747 403 744 q 369 749 387 750 q 342 735 351 749 q 287 627 308 680 q 261 536 266 574 q 256 478 256 498 q 258 444 256 458 q 234 528 239 479 q 235 610 230 578 l 240 642 q 231 651 237 646 q 214 665 225 656 q 197 671 202 673 q 153 547 186 667 q 110 533 129 543 q 82 514 91 524 q 67 495 73 504 q 60 480 61 486 l 59 474 q 144 509 73 494 q 132 458 134 465 q 131 414 128 431 q 142 387 134 397 q 158 373 150 378 q 172 368 166 369 l 179 368 q 169 417 169 386 q 175 480 168 449 q 190 540 182 511 q 205 587 198 569 l 212 605 q 225 492 214 543 q 248 430 233 458 q 275 393 263 403 l 287 382 m 572 469 q 585 447 576 454 q 602 441 595 440 l 610 441 q 607 447 609 443 q 602 469 605 452 q 604 510 599 486 q 613 554 607 530 q 623 593 618 578 l 627 606 q 583 591 591 608 q 556 536 568 564 q 532 490 544 509 q 505 469 513 461 q 506 504 498 475 q 528 562 513 534 q 554 603 544 595 q 583 606 564 612 q 576 623 587 616 q 548 629 565 630 q 517 616 530 627 q 474 522 488 587 q 446 493 462 500 q 452 542 453 524 q 437 596 450 582 q 403 608 425 610 q 442 612 419 619 q 433 623 439 616 q 411 637 427 629 q 379 640 394 645 q 331 565 353 630 q 319 465 309 500 q 364 422 332 428 q 427 454 397 416 q 441 479 435 465 q 471 496 456 482 q 471 469 469 477 q 507 444 475 441 q 540 474 521 444 q 571 532 559 503 l 584 561 q 579 544 582 554 q 572 507 576 534 q 572 469 567 480 m 767 435 q 765 437 766 435 q 760 446 763 439 q 754 460 756 452 q 753 483 753 469 q 757 512 753 496 q 770 558 762 536 q 781 590 777 580 l 786 600 l 757 614 q 746 614 750 617 q 659 515 692 575 q 711 663 676 590 q 772 753 745 735 q 759 759 767 755 q 733 761 751 762 q 707 747 715 760 q 636 570 659 670 q 622 468 618 492 q 630 450 623 459 q 643 437 637 441 l 650 433 q 684 527 651 485 q 714 564 700 549 q 734 583 728 578 l 740 587 q 736 576 739 583 q 727 551 733 569 q 718 516 722 532 q 715 482 715 500 q 722 454 715 465 q 743 433 732 438 q 761 431 754 429 l 767 435 m 829 405 q 836 518 810 436 q 901 686 862 601 q 999 688 986 687 q 1034 702 1019 690 q 1056 726 1050 714 l 1062 736 q 979 723 1029 724 q 928 723 963 723 q 872 722 893 722 q 826 721 850 722 q 788 719 801 720 q 752 703 768 716 q 731 677 736 689 l 726 665 q 795 682 734 677 q 853 684 807 682 q 825 608 851 677 q 789 497 798 538 q 787 461 785 477 q 796 435 789 446 q 810 418 803 425 q 823 408 818 411 l 829 405 m 1163 521 q 1181 567 1179 549 q 1177 595 1183 586 q 1131 611 1164 623 q 1098 590 1114 605 q 1073 564 1082 576 l 1065 553 q 1103 644 1101 644 l 1084 644 q 1053 627 1060 640 q 1013 516 1034 576 q 1011 511 1012 515 q 1009 506 1010 508 q 977 487 990 494 q 997 547 984 511 q 1020 607 1010 583 l 1029 631 q 983 616 994 629 q 960 584 981 613 q 922 533 939 554 q 897 517 904 513 q 897 526 895 519 q 903 543 898 532 q 913 564 907 553 q 926 587 919 575 q 938 607 932 598 q 947 623 943 616 l 950 629 q 938 628 945 629 q 914 621 930 627 q 892 604 898 614 q 882 582 885 589 q 872 563 878 576 q 864 543 866 550 q 859 526 861 535 q 857 511 857 517 q 861 501 858 505 q 878 494 866 494 q 905 501 890 494 q 932 524 920 509 l 978 585 q 939 470 956 517 q 913 454 930 464 q 890 440 897 445 q 873 427 884 436 q 853 405 863 417 q 837 359 835 381 q 858 334 839 337 q 909 350 878 330 q 941 389 930 364 q 968 459 953 413 q 971 471 970 467 q 1003 488 987 480 q 979 409 984 435 q 983 381 975 396 q 1000 357 990 366 l 1008 347 q 1031 453 1004 362 q 1067 538 1046 504 q 1109 584 1082 565 q 1143 597 1135 603 q 1144 576 1147 592 q 1135 547 1141 561 q 1101 506 1122 521 q 1066 490 1080 491 l 1053 488 q 1060 484 1055 486 q 1078 477 1064 481 q 1104 474 1091 473 q 1133 487 1116 475 q 1163 521 1149 498 m 1272 610 q 1306 625 1291 631 q 1310 602 1319 620 q 1295 585 1304 593 q 1275 575 1286 577 q 1256 574 1263 572 l 1249 575 q 1252 569 1250 572 q 1264 559 1255 565 q 1285 553 1273 553 q 1322 570 1310 555 q 1333 607 1335 586 q 1318 631 1333 621 q 1283 643 1304 642 q 1237 627 1262 644 q 1201 586 1216 611 q 1185 533 1185 562 q 1208 487 1185 505 q 1246 478 1224 475 q 1289 493 1269 481 q 1321 517 1310 504 q 1326 528 1324 521 q 1329 541 1329 536 l 1329 547 q 1275 504 1313 521 q 1227 503 1238 487 q 1233 552 1218 519 q 1272 610 1249 585 m 367 551 q 381 508 368 528 q 413 481 394 488 q 393 439 404 449 q 367 434 381 430 q 354 472 355 437 q 361 532 353 506 q 367 551 363 541 m 645 143 q 630 148 635 143 q 625 161 625 153 q 628 175 625 170 q 637 185 631 180 q 651 189 644 189 q 666 184 661 189 q 671 172 671 180 q 667 157 671 164 q 659 147 664 151 q 645 143 652 143 m 1145 94 l 241 94 l 271 241 l 1175 241 l 1145 94 m 1118 202 l 1055 202 l 1052 189 l 1075 189 l 1063 130 l 1080 130 l 1092 189 l 1115 189 l 1118 202 m 962 202 l 947 130 l 964 130 l 972 175 l 1000 130 l 1013 130 l 1027 202 l 1011 202 l 1002 157 l 975 202 l 962 202 m 850 182 q 844 160 844 172 q 848 144 844 151 q 861 133 852 137 q 879 129 869 129 q 903 135 892 129 q 918 150 914 142 q 924 172 924 161 q 920 189 924 182 q 907 199 916 195 q 888 203 899 203 q 865 198 874 203 q 850 182 854 191 m 773 202 l 759 130 l 775 130 l 781 157 l 814 157 l 817 170 l 783 170 l 787 189 l 825 189 l 827 202 l 773 202 m 614 182 q 608 160 608 174 q 612 144 608 151 q 625 133 616 137 q 643 129 633 129 q 667 135 656 129 q 682 150 678 142 q 688 172 688 159 q 684 189 688 182 q 671 199 680 195 q 652 203 663 203 q 629 198 638 203 q 614 182 618 191 m 517 202 l 504 202 l 490 130 l 505 130 l 513 174 l 528 138 l 536 138 l 564 173 l 555 130 l 570 130 l 585 202 l 570 202 l 535 157 l 517 202 m 416 202 l 402 130 l 458 130 l 460 144 l 421 144 l 425 160 l 458 160 l 460 173 l 427 173 l 430 189 l 468 189 l 471 202 l 416 202 m 343 202 l 313 202 l 299 130 l 334 130 q 357 136 347 130 q 373 150 366 140 q 378 172 378 158 q 374 188 378 180 q 362 199 370 195 q 343 202 355 202 m 881 143 q 866 148 871 143 q 861 161 861 153 q 864 175 861 170 q 873 185 867 180 q 887 189 880 189 q 902 184 897 189 q 907 172 907 180 q 903 157 907 164 q 895 147 900 151 q 881 143 888 143 m 349 147 q 334 144 342 144 l 318 144 l 327 189 l 341 189 q 357 184 351 189 q 362 172 362 178 q 359 157 362 164 q 349 147 355 150 z "},"4":{"ha":1415,"x_min":26,"x_max":1390,"o":"m 865 399 q 932 450 883 426 q 905 384 916 406 q 880 358 893 363 q 854 365 858 351 q 865 399 850 378 m 390 567 q 415 553 408 595 q 416 495 421 517 l 416 494 q 390 527 399 504 q 390 567 380 549 m 1388 575 q 1378 530 1390 551 q 1383 513 1383 523 q 1367 462 1383 479 q 1319 427 1350 442 q 1261 412 1289 412 q 1212 429 1232 412 q 1195 446 1203 435 q 1118 410 1162 410 q 1085 415 1100 410 q 1084 413 1085 414 q 1084 410 1084 411 q 1062 321 1061 335 q 1061 301 1065 311 q 1048 286 1057 292 q 1031 281 1041 281 q 1010 290 1020 281 q 983 324 995 303 q 951 290 968 303 q 889 267 919 267 q 835 300 863 267 q 812 334 823 313 q 806 368 804 348 q 804 370 806 369 q 802 372 803 371 q 777 366 790 366 q 718 404 742 366 q 712 417 714 410 l 708 421 l 705 398 q 688 372 703 380 q 673 368 681 368 q 658 372 665 368 q 655 373 657 372 q 651 376 653 374 q 646 379 648 377 q 640 377 646 378 l 635 376 q 628 376 631 376 q 575 404 593 376 q 532 378 555 380 q 529 378 531 378 q 526 378 526 378 q 475 401 492 378 q 397 356 442 356 q 338 380 363 356 q 341 354 338 370 q 327 322 345 333 q 310 317 319 317 q 292 323 300 317 l 290 324 q 286 329 288 326 q 279 334 283 331 q 271 342 275 338 q 262 353 267 347 q 252 366 257 359 q 243 382 248 374 q 224 408 231 396 q 229 349 220 368 q 229 318 238 334 q 202 302 220 302 q 144 331 168 302 q 100 414 105 376 q 82 409 91 409 q 71 411 76 409 q 37 441 48 420 q 28 477 26 463 q 29 486 28 479 q 37 505 31 492 q 53 529 43 517 q 83 553 63 541 q 128 573 102 566 q 155 657 144 629 q 172 692 167 686 q 186 701 178 697 q 199 703 193 703 q 262 664 224 703 q 267 659 265 661 q 315 752 286 703 q 372 782 334 782 q 422 769 397 782 q 446 741 430 765 q 463 709 462 718 q 448 681 464 691 q 430 663 442 677 q 467 631 452 651 q 473 615 472 624 q 475 614 473 614 l 476 613 q 496 639 486 631 q 551 661 519 661 q 606 636 589 661 q 622 637 617 637 q 680 763 643 703 q 736 793 699 793 q 787 781 761 793 q 804 754 802 772 l 804 752 q 925 754 836 754 l 979 754 q 1016 757 998 754 q 1042 763 1034 760 l 1050 766 q 1062 768 1055 768 q 1085 758 1076 768 q 1098 740 1089 754 q 1108 724 1107 725 q 1114 690 1121 707 q 1106 675 1112 684 q 1134 652 1129 671 q 1135 645 1135 648 q 1148 646 1139 646 q 1192 627 1175 646 q 1218 652 1202 640 q 1282 675 1249 675 q 1329 663 1310 675 q 1367 625 1348 650 q 1388 575 1386 602 m 287 382 q 297 520 277 440 q 349 662 317 600 q 408 741 380 724 q 395 747 403 744 q 369 749 387 750 q 342 735 351 749 q 287 627 308 680 q 261 536 266 574 q 256 478 256 498 q 258 444 256 458 q 234 528 239 479 q 235 610 230 578 l 240 642 q 231 651 237 646 q 214 665 225 656 q 197 671 202 673 q 153 547 186 667 q 110 533 129 543 q 82 514 91 524 q 67 495 73 504 q 60 480 61 486 l 59 474 q 144 509 73 494 q 132 458 134 465 q 131 414 128 431 q 142 387 134 397 q 158 373 150 378 q 172 368 166 369 l 179 368 q 169 417 169 386 q 175 480 168 449 q 190 540 182 511 q 205 587 198 569 l 212 605 q 225 492 214 543 q 248 430 233 458 q 275 393 263 403 l 287 382 m 572 469 q 585 447 576 454 q 602 441 595 440 l 610 441 q 607 447 609 443 q 602 469 605 452 q 604 510 599 486 q 613 554 607 530 q 623 593 618 578 l 627 606 q 583 591 591 608 q 556 536 568 564 q 532 490 544 509 q 505 469 513 461 q 506 504 498 475 q 528 562 513 534 q 554 603 544 595 q 583 606 564 612 q 576 623 587 616 q 548 629 565 630 q 517 616 530 627 q 474 522 488 587 q 446 493 462 500 q 452 542 453 524 q 437 596 450 582 q 403 608 425 610 q 442 612 419 619 q 433 623 439 616 q 411 637 427 629 q 379 640 394 645 q 331 565 353 630 q 319 465 309 500 q 364 422 332 428 q 427 454 397 416 q 441 479 435 465 q 471 496 456 482 q 471 469 469 477 q 507 444 475 441 q 540 474 521 444 q 571 532 559 503 l 584 561 q 579 544 582 554 q 572 507 576 534 q 572 469 567 480 m 767 435 q 765 437 766 435 q 760 446 763 439 q 754 460 756 452 q 753 483 753 469 q 757 512 753 496 q 770 558 762 536 q 781 590 777 580 l 786 600 l 757 614 q 746 614 750 617 q 659 515 692 575 q 711 663 676 590 q 772 753 745 735 q 759 759 767 755 q 733 761 751 762 q 707 747 715 760 q 636 570 659 670 q 622 468 618 492 q 630 450 623 459 q 643 437 637 441 l 650 433 q 684 527 651 485 q 714 564 700 549 q 734 583 728 578 l 740 587 q 736 576 739 583 q 727 551 733 569 q 718 516 722 532 q 715 482 715 500 q 722 454 715 465 q 743 433 732 438 q 761 431 754 429 l 767 435 m 829 405 q 836 518 810 436 q 901 686 862 601 q 999 688 986 687 q 1034 702 1019 690 q 1056 726 1050 714 l 1062 736 q 979 723 1029 724 q 928 723 963 723 q 872 722 893 722 q 826 721 850 722 q 788 719 801 720 q 752 703 768 716 q 731 677 736 689 l 726 665 q 795 682 734 677 q 853 684 807 682 q 825 608 851 677 q 789 497 798 538 q 787 461 785 477 q 796 435 789 446 q 810 418 803 425 q 823 408 818 411 l 829 405 m 1163 521 q 1181 567 1179 549 q 1177 595 1183 586 q 1131 611 1164 623 q 1098 590 1114 605 q 1073 564 1082 576 l 1065 553 q 1103 644 1101 644 l 1084 644 q 1053 627 1060 640 q 1013 516 1034 576 q 1011 511 1012 515 q 1009 506 1010 508 q 977 487 990 494 q 997 547 984 511 q 1020 607 1010 583 l 1029 631 q 983 616 994 629 q 960 584 981 613 q 922 533 939 554 q 897 517 904 513 q 897 526 895 519 q 903 543 898 532 q 913 564 907 553 q 926 587 919 575 q 938 607 932 598 q 947 623 943 616 l 950 629 q 938 628 945 629 q 914 621 930 627 q 892 604 898 614 q 882 582 885 589 q 872 563 878 576 q 864 543 866 550 q 859 526 861 535 q 857 511 857 517 q 861 501 858 505 q 878 494 866 494 q 905 501 890 494 q 932 524 920 509 l 978 585 q 939 470 956 517 q 913 454 930 464 q 890 440 897 445 q 873 427 884 436 q 853 405 863 417 q 837 359 835 381 q 858 334 839 337 q 909 350 878 330 q 941 389 930 364 q 968 459 953 413 q 971 471 970 467 q 1003 488 987 480 q 979 409 984 435 q 983 381 975 396 q 1000 357 990 366 l 1008 347 q 1031 453 1004 362 q 1067 538 1046 504 q 1109 584 1082 565 q 1143 597 1135 603 q 1144 576 1147 592 q 1135 547 1141 561 q 1101 506 1122 521 q 1066 490 1080 491 l 1053 488 q 1060 484 1055 486 q 1078 477 1064 481 q 1104 474 1091 473 q 1133 487 1116 475 q 1163 521 1149 498 m 1272 610 q 1306 625 1291 631 q 1310 602 1319 620 q 1295 585 1304 593 q 1275 575 1286 577 q 1256 574 1263 572 l 1249 575 q 1252 569 1250 572 q 1264 559 1255 565 q 1285 553 1273 553 q 1322 570 1310 555 q 1333 607 1335 586 q 1318 631 1333 621 q 1283 643 1304 642 q 1237 627 1262 644 q 1201 586 1216 611 q 1185 533 1185 562 q 1208 487 1185 505 q 1246 478 1224 475 q 1289 493 1269 481 q 1321 517 1310 504 q 1326 528 1324 521 q 1329 541 1329 536 l 1329 547 q 1275 504 1313 521 q 1227 503 1238 487 q 1233 552 1218 519 q 1272 610 1249 585 m 367 551 q 381 508 368 528 q 413 481 394 488 q 393 439 404 449 q 367 434 381 430 q 354 472 355 437 q 361 532 353 506 q 367 551 363 541 m 645 143 q 630 148 635 143 q 625 161 625 153 q 628 175 625 170 q 637 185 631 180 q 651 189 644 189 q 666 184 661 189 q 671 172 671 180 q 667 157 671 164 q 659 147 664 151 q 645 143 652 143 m 1145 94 l 241 94 l 271 241 l 1175 241 l 1145 94 m 1118 202 l 1055 202 l 1052 189 l 1075 189 l 1063 130 l 1080 130 l 1092 189 l 1115 189 l 1118 202 m 962 202 l 947 130 l 964 130 l 972 175 l 1000 130 l 1013 130 l 1027 202 l 1011 202 l 1002 157 l 975 202 l 962 202 m 850 182 q 844 160 844 172 q 848 144 844 151 q 861 133 852 137 q 879 129 869 129 q 903 135 892 129 q 918 150 914 142 q 924 172 924 161 q 920 189 924 182 q 907 199 916 195 q 888 203 899 203 q 865 198 874 203 q 850 182 854 191 m 773 202 l 759 130 l 775 130 l 781 157 l 814 157 l 817 170 l 783 170 l 787 189 l 825 189 l 827 202 l 773 202 m 614 182 q 608 160 608 174 q 612 144 608 151 q 625 133 616 137 q 643 129 633 129 q 667 135 656 129 q 682 150 678 142 q 688 172 688 159 q 684 189 688 182 q 671 199 680 195 q 652 203 663 203 q 629 198 638 203 q 614 182 618 191 m 517 202 l 504 202 l 490 130 l 505 130 l 513 174 l 528 138 l 536 138 l 564 173 l 555 130 l 570 130 l 585 202 l 570 202 l 535 157 l 517 202 m 416 202 l 402 130 l 458 130 l 460 144 l 421 144 l 425 160 l 458 160 l 460 173 l 427 173 l 430 189 l 468 189 l 471 202 l 416 202 m 343 202 l 313 202 l 299 130 l 334 130 q 357 136 347 130 q 373 150 366 140 q 378 172 378 158 q 374 188 378 180 q 362 199 370 195 q 343 202 355 202 m 881 143 q 866 148 871 143 q 861 161 861 153 q 864 175 861 170 q 873 185 867 180 q 887 189 880 189 q 902 184 897 189 q 907 172 907 180 q 903 157 907 164 q 895 147 900 151 q 881 143 888 143 m 349 147 q 334 144 342 144 l 318 144 l 327 189 l 341 189 q 357 184 351 189 q 362 172 362 178 q 359 157 362 164 q 349 147 355 150 z "},"5":{"ha":1415,"x_min":26,"x_max":1390,"o":"m 865 399 q 932 450 883 426 q 905 384 916 406 q 880 358 893 363 q 854 365 858 351 q 865 399 850 378 m 390 567 q 415 553 408 595 q 416 495 421 517 l 416 494 q 390 527 399 504 q 390 567 380 549 m 1388 575 q 1378 530 1390 551 q 1383 513 1383 523 q 1367 462 1383 479 q 1319 427 1350 442 q 1261 412 1289 412 q 1212 429 1232 412 q 1195 446 1203 435 q 1118 410 1162 410 q 1085 415 1100 410 q 1084 413 1085 414 q 1084 410 1084 411 q 1062 321 1061 335 q 1061 301 1065 311 q 1048 286 1057 292 q 1031 281 1041 281 q 1010 290 1020 281 q 983 324 995 303 q 951 290 968 303 q 889 267 919 267 q 835 300 863 267 q 812 334 823 313 q 806 368 804 348 q 804 370 806 369 q 802 372 803 371 q 777 366 790 366 q 718 404 742 366 q 712 417 714 410 l 708 421 l 705 398 q 688 372 703 380 q 673 368 681 368 q 658 372 665 368 q 655 373 657 372 q 651 376 653 374 q 646 379 648 377 q 640 377 646 378 l 635 376 q 628 376 631 376 q 575 404 593 376 q 532 378 555 380 q 529 378 531 378 q 526 378 526 378 q 475 401 492 378 q 397 356 442 356 q 338 380 363 356 q 341 354 338 370 q 327 322 345 333 q 310 317 319 317 q 292 323 300 317 l 290 324 q 286 329 288 326 q 279 334 283 331 q 271 342 275 338 q 262 353 267 347 q 252 366 257 359 q 243 382 248 374 q 224 408 231 396 q 229 349 220 368 q 229 318 238 334 q 202 302 220 302 q 144 331 168 302 q 100 414 105 376 q 82 409 91 409 q 71 411 76 409 q 37 441 48 420 q 28 477 26 463 q 29 486 28 479 q 37 505 31 492 q 53 529 43 517 q 83 553 63 541 q 128 573 102 566 q 155 657 144 629 q 172 692 167 686 q 186 701 178 697 q 199 703 193 703 q 262 664 224 703 q 267 659 265 661 q 315 752 286 703 q 372 782 334 782 q 422 769 397 782 q 446 741 430 765 q 463 709 462 718 q 448 681 464 691 q 430 663 442 677 q 467 631 452 651 q 473 615 472 624 q 475 614 473 614 l 476 613 q 496 639 486 631 q 551 661 519 661 q 606 636 589 661 q 622 637 617 637 q 680 763 643 703 q 736 793 699 793 q 787 781 761 793 q 804 754 802 772 l 804 752 q 925 754 836 754 l 979 754 q 1016 757 998 754 q 1042 763 1034 760 l 1050 766 q 1062 768 1055 768 q 1085 758 1076 768 q 1098 740 1089 754 q 1108 724 1107 725 q 1114 690 1121 707 q 1106 675 1112 684 q 1134 652 1129 671 q 1135 645 1135 648 q 1148 646 1139 646 q 1192 627 1175 646 q 1218 652 1202 640 q 1282 675 1249 675 q 1329 663 1310 675 q 1367 625 1348 650 q 1388 575 1386 602 m 287 382 q 297 520 277 440 q 349 662 317 600 q 408 741 380 724 q 395 747 403 744 q 369 749 387 750 q 342 735 351 749 q 287 627 308 680 q 261 536 266 574 q 256 478 256 498 q 258 444 256 458 q 234 528 239 479 q 235 610 230 578 l 240 642 q 231 651 237 646 q 214 665 225 656 q 197 671 202 673 q 153 547 186 667 q 110 533 129 543 q 82 514 91 524 q 67 495 73 504 q 60 480 61 486 l 59 474 q 144 509 73 494 q 132 458 134 465 q 131 414 128 431 q 142 387 134 397 q 158 373 150 378 q 172 368 166 369 l 179 368 q 169 417 169 386 q 175 480 168 449 q 190 540 182 511 q 205 587 198 569 l 212 605 q 225 492 214 543 q 248 430 233 458 q 275 393 263 403 l 287 382 m 572 469 q 585 447 576 454 q 602 441 595 440 l 610 441 q 607 447 609 443 q 602 469 605 452 q 604 510 599 486 q 613 554 607 530 q 623 593 618 578 l 627 606 q 583 591 591 608 q 556 536 568 564 q 532 490 544 509 q 505 469 513 461 q 506 504 498 475 q 528 562 513 534 q 554 603 544 595 q 583 606 564 612 q 576 623 587 616 q 548 629 565 630 q 517 616 530 627 q 474 522 488 587 q 446 493 462 500 q 452 542 453 524 q 437 596 450 582 q 403 608 425 610 q 442 612 419 619 q 433 623 439 616 q 411 637 427 629 q 379 640 394 645 q 331 565 353 630 q 319 465 309 500 q 364 422 332 428 q 427 454 397 416 q 441 479 435 465 q 471 496 456 482 q 471 469 469 477 q 507 444 475 441 q 540 474 521 444 q 571 532 559 503 l 584 561 q 579 544 582 554 q 572 507 576 534 q 572 469 567 480 m 767 435 q 765 437 766 435 q 760 446 763 439 q 754 460 756 452 q 753 483 753 469 q 757 512 753 496 q 770 558 762 536 q 781 590 777 580 l 786 600 l 757 614 q 746 614 750 617 q 659 515 692 575 q 711 663 676 590 q 772 753 745 735 q 759 759 767 755 q 733 761 751 762 q 707 747 715 760 q 636 570 659 670 q 622 468 618 492 q 630 450 623 459 q 643 437 637 441 l 650 433 q 684 527 651 485 q 714 564 700 549 q 734 583 728 578 l 740 587 q 736 576 739 583 q 727 551 733 569 q 718 516 722 532 q 715 482 715 500 q 722 454 715 465 q 743 433 732 438 q 761 431 754 429 l 767 435 m 829 405 q 836 518 810 436 q 901 686 862 601 q 999 688 986 687 q 1034 702 1019 690 q 1056 726 1050 714 l 1062 736 q 979 723 1029 724 q 928 723 963 723 q 872 722 893 722 q 826 721 850 722 q 788 719 801 720 q 752 703 768 716 q 731 677 736 689 l 726 665 q 795 682 734 677 q 853 684 807 682 q 825 608 851 677 q 789 497 798 538 q 787 461 785 477 q 796 435 789 446 q 810 418 803 425 q 823 408 818 411 l 829 405 m 1163 521 q 1181 567 1179 549 q 1177 595 1183 586 q 1131 611 1164 623 q 1098 590 1114 605 q 1073 564 1082 576 l 1065 553 q 1103 644 1101 644 l 1084 644 q 1053 627 1060 640 q 1013 516 1034 576 q 1011 511 1012 515 q 1009 506 1010 508 q 977 487 990 494 q 997 547 984 511 q 1020 607 1010 583 l 1029 631 q 983 616 994 629 q 960 584 981 613 q 922 533 939 554 q 897 517 904 513 q 897 526 895 519 q 903 543 898 532 q 913 564 907 553 q 926 587 919 575 q 938 607 932 598 q 947 623 943 616 l 950 629 q 938 628 945 629 q 914 621 930 627 q 892 604 898 614 q 882 582 885 589 q 872 563 878 576 q 864 543 866 550 q 859 526 861 535 q 857 511 857 517 q 861 501 858 505 q 878 494 866 494 q 905 501 890 494 q 932 524 920 509 l 978 585 q 939 470 956 517 q 913 454 930 464 q 890 440 897 445 q 873 427 884 436 q 853 405 863 417 q 837 359 835 381 q 858 334 839 337 q 909 350 878 330 q 941 389 930 364 q 968 459 953 413 q 971 471 970 467 q 1003 488 987 480 q 979 409 984 435 q 983 381 975 396 q 1000 357 990 366 l 1008 347 q 1031 453 1004 362 q 1067 538 1046 504 q 1109 584 1082 565 q 1143 597 1135 603 q 1144 576 1147 592 q 1135 547 1141 561 q 1101 506 1122 521 q 1066 490 1080 491 l 1053 488 q 1060 484 1055 486 q 1078 477 1064 481 q 1104 474 1091 473 q 1133 487 1116 475 q 1163 521 1149 498 m 1272 610 q 1306 625 1291 631 q 1310 602 1319 620 q 1295 585 1304 593 q 1275 575 1286 577 q 1256 574 1263 572 l 1249 575 q 1252 569 1250 572 q 1264 559 1255 565 q 1285 553 1273 553 q 1322 570 1310 555 q 1333 607 1335 586 q 1318 631 1333 621 q 1283 643 1304 642 q 1237 627 1262 644 q 1201 586 1216 611 q 1185 533 1185 562 q 1208 487 1185 505 q 1246 478 1224 475 q 1289 493 1269 481 q 1321 517 1310 504 q 1326 528 1324 521 q 1329 541 1329 536 l 1329 547 q 1275 504 1313 521 q 1227 503 1238 487 q 1233 552 1218 519 q 1272 610 1249 585 m 367 551 q 381 508 368 528 q 413 481 394 488 q 393 439 404 449 q 367 434 381 430 q 354 472 355 437 q 361 532 353 506 q 367 551 363 541 m 645 143 q 630 148 635 143 q 625 161 625 153 q 628 175 625 170 q 637 185 631 180 q 651 189 644 189 q 666 184 661 189 q 671 172 671 180 q 667 157 671 164 q 659 147 664 151 q 645 143 652 143 m 1145 94 l 241 94 l 271 241 l 1175 241 l 1145 94 m 1118 202 l 1055 202 l 1052 189 l 1075 189 l 1063 130 l 1080 130 l 1092 189 l 1115 189 l 1118 202 m 962 202 l 947 130 l 964 130 l 972 175 l 1000 130 l 1013 130 l 1027 202 l 1011 202 l 1002 157 l 975 202 l 962 202 m 850 182 q 844 160 844 172 q 848 144 844 151 q 861 133 852 137 q 879 129 869 129 q 903 135 892 129 q 918 150 914 142 q 924 172 924 161 q 920 189 924 182 q 907 199 916 195 q 888 203 899 203 q 865 198 874 203 q 850 182 854 191 m 773 202 l 759 130 l 775 130 l 781 157 l 814 157 l 817 170 l 783 170 l 787 189 l 825 189 l 827 202 l 773 202 m 614 182 q 608 160 608 174 q 612 144 608 151 q 625 133 616 137 q 643 129 633 129 q 667 135 656 129 q 682 150 678 142 q 688 172 688 159 q 684 189 688 182 q 671 199 680 195 q 652 203 663 203 q 629 198 638 203 q 614 182 618 191 m 517 202 l 504 202 l 490 130 l 505 130 l 513 174 l 528 138 l 536 138 l 564 173 l 555 130 l 570 130 l 585 202 l 570 202 l 535 157 l 517 202 m 416 202 l 402 130 l 458 130 l 460 144 l 421 144 l 425 160 l 458 160 l 460 173 l 427 173 l 430 189 l 468 189 l 471 202 l 416 202 m 343 202 l 313 202 l 299 130 l 334 130 q 357 136 347 130 q 373 150 366 140 q 378 172 378 158 q 374 188 378 180 q 362 199 370 195 q 343 202 355 202 m 881 143 q 866 148 871 143 q 861 161 861 153 q 864 175 861 170 q 873 185 867 180 q 887 189 880 189 q 902 184 897 189 q 907 172 907 180 q 903 157 907 164 q 895 147 900 151 q 881 143 888 143 m 349 147 q 334 144 342 144 l 318 144 l 327 189 l 341 189 q 357 184 351 189 q 362 172 362 178 q 359 157 362 164 q 349 147 355 150 z "},"6":{"ha":1415,"x_min":26,"x_max":1390,"o":"m 865 399 q 932 450 883 426 q 905 384 916 406 q 880 358 893 363 q 854 365 858 351 q 865 399 850 378 m 390 567 q 415 553 408 595 q 416 495 421 517 l 416 494 q 390 527 399 504 q 390 567 380 549 m 1388 575 q 1378 530 1390 551 q 1383 513 1383 523 q 1367 462 1383 479 q 1319 427 1350 442 q 1261 412 1289 412 q 1212 429 1232 412 q 1195 446 1203 435 q 1118 410 1162 410 q 1085 415 1100 410 q 1084 413 1085 414 q 1084 410 1084 411 q 1062 321 1061 335 q 1061 301 1065 311 q 1048 286 1057 292 q 1031 281 1041 281 q 1010 290 1020 281 q 983 324 995 303 q 951 290 968 303 q 889 267 919 267 q 835 300 863 267 q 812 334 823 313 q 806 368 804 348 q 804 370 806 369 q 802 372 803 371 q 777 366 790 366 q 718 404 742 366 q 712 417 714 410 l 708 421 l 705 398 q 688 372 703 380 q 673 368 681 368 q 658 372 665 368 q 655 373 657 372 q 651 376 653 374 q 646 379 648 377 q 640 377 646 378 l 635 376 q 628 376 631 376 q 575 404 593 376 q 532 378 555 380 q 529 378 531 378 q 526 378 526 378 q 475 401 492 378 q 397 356 442 356 q 338 380 363 356 q 341 354 338 370 q 327 322 345 333 q 310 317 319 317 q 292 323 300 317 l 290 324 q 286 329 288 326 q 279 334 283 331 q 271 342 275 338 q 262 353 267 347 q 252 366 257 359 q 243 382 248 374 q 224 408 231 396 q 229 349 220 368 q 229 318 238 334 q 202 302 220 302 q 144 331 168 302 q 100 414 105 376 q 82 409 91 409 q 71 411 76 409 q 37 441 48 420 q 28 477 26 463 q 29 486 28 479 q 37 505 31 492 q 53 529 43 517 q 83 553 63 541 q 128 573 102 566 q 155 657 144 629 q 172 692 167 686 q 186 701 178 697 q 199 703 193 703 q 262 664 224 703 q 267 659 265 661 q 315 752 286 703 q 372 782 334 782 q 422 769 397 782 q 446 741 430 765 q 463 709 462 718 q 448 681 464 691 q 430 663 442 677 q 467 631 452 651 q 473 615 472 624 q 475 614 473 614 l 476 613 q 496 639 486 631 q 551 661 519 661 q 606 636 589 661 q 622 637 617 637 q 680 763 643 703 q 736 793 699 793 q 787 781 761 793 q 804 754 802 772 l 804 752 q 925 754 836 754 l 979 754 q 1016 757 998 754 q 1042 763 1034 760 l 1050 766 q 1062 768 1055 768 q 1085 758 1076 768 q 1098 740 1089 754 q 1108 724 1107 725 q 1114 690 1121 707 q 1106 675 1112 684 q 1134 652 1129 671 q 1135 645 1135 648 q 1148 646 1139 646 q 1192 627 1175 646 q 1218 652 1202 640 q 1282 675 1249 675 q 1329 663 1310 675 q 1367 625 1348 650 q 1388 575 1386 602 m 287 382 q 297 520 277 440 q 349 662 317 600 q 408 741 380 724 q 395 747 403 744 q 369 749 387 750 q 342 735 351 749 q 287 627 308 680 q 261 536 266 574 q 256 478 256 498 q 258 444 256 458 q 234 528 239 479 q 235 610 230 578 l 240 642 q 231 651 237 646 q 214 665 225 656 q 197 671 202 673 q 153 547 186 667 q 110 533 129 543 q 82 514 91 524 q 67 495 73 504 q 60 480 61 486 l 59 474 q 144 509 73 494 q 132 458 134 465 q 131 414 128 431 q 142 387 134 397 q 158 373 150 378 q 172 368 166 369 l 179 368 q 169 417 169 386 q 175 480 168 449 q 190 540 182 511 q 205 587 198 569 l 212 605 q 225 492 214 543 q 248 430 233 458 q 275 393 263 403 l 287 382 m 572 469 q 585 447 576 454 q 602 441 595 440 l 610 441 q 607 447 609 443 q 602 469 605 452 q 604 510 599 486 q 613 554 607 530 q 623 593 618 578 l 627 606 q 583 591 591 608 q 556 536 568 564 q 532 490 544 509 q 505 469 513 461 q 506 504 498 475 q 528 562 513 534 q 554 603 544 595 q 583 606 564 612 q 576 623 587 616 q 548 629 565 630 q 517 616 530 627 q 474 522 488 587 q 446 493 462 500 q 452 542 453 524 q 437 596 450 582 q 403 608 425 610 q 442 612 419 619 q 433 623 439 616 q 411 637 427 629 q 379 640 394 645 q 331 565 353 630 q 319 465 309 500 q 364 422 332 428 q 427 454 397 416 q 441 479 435 465 q 471 496 456 482 q 471 469 469 477 q 507 444 475 441 q 540 474 521 444 q 571 532 559 503 l 584 561 q 579 544 582 554 q 572 507 576 534 q 572 469 567 480 m 767 435 q 765 437 766 435 q 760 446 763 439 q 754 460 756 452 q 753 483 753 469 q 757 512 753 496 q 770 558 762 536 q 781 590 777 580 l 786 600 l 757 614 q 746 614 750 617 q 659 515 692 575 q 711 663 676 590 q 772 753 745 735 q 759 759 767 755 q 733 761 751 762 q 707 747 715 760 q 636 570 659 670 q 622 468 618 492 q 630 450 623 459 q 643 437 637 441 l 650 433 q 684 527 651 485 q 714 564 700 549 q 734 583 728 578 l 740 587 q 736 576 739 583 q 727 551 733 569 q 718 516 722 532 q 715 482 715 500 q 722 454 715 465 q 743 433 732 438 q 761 431 754 429 l 767 435 m 829 405 q 836 518 810 436 q 901 686 862 601 q 999 688 986 687 q 1034 702 1019 690 q 1056 726 1050 714 l 1062 736 q 979 723 1029 724 q 928 723 963 723 q 872 722 893 722 q 826 721 850 722 q 788 719 801 720 q 752 703 768 716 q 731 677 736 689 l 726 665 q 795 682 734 677 q 853 684 807 682 q 825 608 851 677 q 789 497 798 538 q 787 461 785 477 q 796 435 789 446 q 810 418 803 425 q 823 408 818 411 l 829 405 m 1163 521 q 1181 567 1179 549 q 1177 595 1183 586 q 1131 611 1164 623 q 1098 590 1114 605 q 1073 564 1082 576 l 1065 553 q 1103 644 1101 644 l 1084 644 q 1053 627 1060 640 q 1013 516 1034 576 q 1011 511 1012 515 q 1009 506 1010 508 q 977 487 990 494 q 997 547 984 511 q 1020 607 1010 583 l 1029 631 q 983 616 994 629 q 960 584 981 613 q 922 533 939 554 q 897 517 904 513 q 897 526 895 519 q 903 543 898 532 q 913 564 907 553 q 926 587 919 575 q 938 607 932 598 q 947 623 943 616 l 950 629 q 938 628 945 629 q 914 621 930 627 q 892 604 898 614 q 882 582 885 589 q 872 563 878 576 q 864 543 866 550 q 859 526 861 535 q 857 511 857 517 q 861 501 858 505 q 878 494 866 494 q 905 501 890 494 q 932 524 920 509 l 978 585 q 939 470 956 517 q 913 454 930 464 q 890 440 897 445 q 873 427 884 436 q 853 405 863 417 q 837 359 835 381 q 858 334 839 337 q 909 350 878 330 q 941 389 930 364 q 968 459 953 413 q 971 471 970 467 q 1003 488 987 480 q 979 409 984 435 q 983 381 975 396 q 1000 357 990 366 l 1008 347 q 1031 453 1004 362 q 1067 538 1046 504 q 1109 584 1082 565 q 1143 597 1135 603 q 1144 576 1147 592 q 1135 547 1141 561 q 1101 506 1122 521 q 1066 490 1080 491 l 1053 488 q 1060 484 1055 486 q 1078 477 1064 481 q 1104 474 1091 473 q 1133 487 1116 475 q 1163 521 1149 498 m 1272 610 q 1306 625 1291 631 q 1310 602 1319 620 q 1295 585 1304 593 q 1275 575 1286 577 q 1256 574 1263 572 l 1249 575 q 1252 569 1250 572 q 1264 559 1255 565 q 1285 553 1273 553 q 1322 570 1310 555 q 1333 607 1335 586 q 1318 631 1333 621 q 1283 643 1304 642 q 1237 627 1262 644 q 1201 586 1216 611 q 1185 533 1185 562 q 1208 487 1185 505 q 1246 478 1224 475 q 1289 493 1269 481 q 1321 517 1310 504 q 1326 528 1324 521 q 1329 541 1329 536 l 1329 547 q 1275 504 1313 521 q 1227 503 1238 487 q 1233 552 1218 519 q 1272 610 1249 585 m 367 551 q 381 508 368 528 q 413 481 394 488 q 393 439 404 449 q 367 434 381 430 q 354 472 355 437 q 361 532 353 506 q 367 551 363 541 m 645 143 q 630 148 635 143 q 625 161 625 153 q 628 175 625 170 q 637 185 631 180 q 651 189 644 189 q 666 184 661 189 q 671 172 671 180 q 667 157 671 164 q 659 147 664 151 q 645 143 652 143 m 1145 94 l 241 94 l 271 241 l 1175 241 l 1145 94 m 1118 202 l 1055 202 l 1052 189 l 1075 189 l 1063 130 l 1080 130 l 1092 189 l 1115 189 l 1118 202 m 962 202 l 947 130 l 964 130 l 972 175 l 1000 130 l 1013 130 l 1027 202 l 1011 202 l 1002 157 l 975 202 l 962 202 m 850 182 q 844 160 844 172 q 848 144 844 151 q 861 133 852 137 q 879 129 869 129 q 903 135 892 129 q 918 150 914 142 q 924 172 924 161 q 920 189 924 182 q 907 199 916 195 q 888 203 899 203 q 865 198 874 203 q 850 182 854 191 m 773 202 l 759 130 l 775 130 l 781 157 l 814 157 l 817 170 l 783 170 l 787 189 l 825 189 l 827 202 l 773 202 m 614 182 q 608 160 608 174 q 612 144 608 151 q 625 133 616 137 q 643 129 633 129 q 667 135 656 129 q 682 150 678 142 q 688 172 688 159 q 684 189 688 182 q 671 199 680 195 q 652 203 663 203 q 629 198 638 203 q 614 182 618 191 m 517 202 l 504 202 l 490 130 l 505 130 l 513 174 l 528 138 l 536 138 l 564 173 l 555 130 l 570 130 l 585 202 l 570 202 l 535 157 l 517 202 m 416 202 l 402 130 l 458 130 l 460 144 l 421 144 l 425 160 l 458 160 l 460 173 l 427 173 l 430 189 l 468 189 l 471 202 l 416 202 m 343 202 l 313 202 l 299 130 l 334 130 q 357 136 347 130 q 373 150 366 140 q 378 172 378 158 q 374 188 378 180 q 362 199 370 195 q 343 202 355 202 m 881 143 q 866 148 871 143 q 861 161 861 153 q 864 175 861 170 q 873 185 867 180 q 887 189 880 189 q 902 184 897 189 q 907 172 907 180 q 903 157 907 164 q 895 147 900 151 q 881 143 888 143 m 349 147 q 334 144 342 144 l 318 144 l 327 189 l 341 189 q 357 184 351 189 q 362 172 362 178 q 359 157 362 164 q 349 147 355 150 z "},"7":{"ha":1415,"x_min":26,"x_max":1390,"o":"m 865 399 q 932 450 883 426 q 905 384 916 406 q 880 358 893 363 q 854 365 858 351 q 865 399 850 378 m 390 567 q 415 553 408 595 q 416 495 421 517 l 416 494 q 390 527 399 504 q 390 567 380 549 m 1388 575 q 1378 530 1390 551 q 1383 513 1383 523 q 1367 462 1383 479 q 1319 427 1350 442 q 1261 412 1289 412 q 1212 429 1232 412 q 1195 446 1203 435 q 1118 410 1162 410 q 1085 415 1100 410 q 1084 413 1085 414 q 1084 410 1084 411 q 1062 321 1061 335 q 1061 301 1065 311 q 1048 286 1057 292 q 1031 281 1041 281 q 1010 290 1020 281 q 983 324 995 303 q 951 290 968 303 q 889 267 919 267 q 835 300 863 267 q 812 334 823 313 q 806 368 804 348 q 804 370 806 369 q 802 372 803 371 q 777 366 790 366 q 718 404 742 366 q 712 417 714 410 l 708 421 l 705 398 q 688 372 703 380 q 673 368 681 368 q 658 372 665 368 q 655 373 657 372 q 651 376 653 374 q 646 379 648 377 q 640 377 646 378 l 635 376 q 628 376 631 376 q 575 404 593 376 q 532 378 555 380 q 529 378 531 378 q 526 378 526 378 q 475 401 492 378 q 397 356 442 356 q 338 380 363 356 q 341 354 338 370 q 327 322 345 333 q 310 317 319 317 q 292 323 300 317 l 290 324 q 286 329 288 326 q 279 334 283 331 q 271 342 275 338 q 262 353 267 347 q 252 366 257 359 q 243 382 248 374 q 224 408 231 396 q 229 349 220 368 q 229 318 238 334 q 202 302 220 302 q 144 331 168 302 q 100 414 105 376 q 82 409 91 409 q 71 411 76 409 q 37 441 48 420 q 28 477 26 463 q 29 486 28 479 q 37 505 31 492 q 53 529 43 517 q 83 553 63 541 q 128 573 102 566 q 155 657 144 629 q 172 692 167 686 q 186 701 178 697 q 199 703 193 703 q 262 664 224 703 q 267 659 265 661 q 315 752 286 703 q 372 782 334 782 q 422 769 397 782 q 446 741 430 765 q 463 709 462 718 q 448 681 464 691 q 430 663 442 677 q 467 631 452 651 q 473 615 472 624 q 475 614 473 614 l 476 613 q 496 639 486 631 q 551 661 519 661 q 606 636 589 661 q 622 637 617 637 q 680 763 643 703 q 736 793 699 793 q 787 781 761 793 q 804 754 802 772 l 804 752 q 925 754 836 754 l 979 754 q 1016 757 998 754 q 1042 763 1034 760 l 1050 766 q 1062 768 1055 768 q 1085 758 1076 768 q 1098 740 1089 754 q 1108 724 1107 725 q 1114 690 1121 707 q 1106 675 1112 684 q 1134 652 1129 671 q 1135 645 1135 648 q 1148 646 1139 646 q 1192 627 1175 646 q 1218 652 1202 640 q 1282 675 1249 675 q 1329 663 1310 675 q 1367 625 1348 650 q 1388 575 1386 602 m 287 382 q 297 520 277 440 q 349 662 317 600 q 408 741 380 724 q 395 747 403 744 q 369 749 387 750 q 342 735 351 749 q 287 627 308 680 q 261 536 266 574 q 256 478 256 498 q 258 444 256 458 q 234 528 239 479 q 235 610 230 578 l 240 642 q 231 651 237 646 q 214 665 225 656 q 197 671 202 673 q 153 547 186 667 q 110 533 129 543 q 82 514 91 524 q 67 495 73 504 q 60 480 61 486 l 59 474 q 144 509 73 494 q 132 458 134 465 q 131 414 128 431 q 142 387 134 397 q 158 373 150 378 q 172 368 166 369 l 179 368 q 169 417 169 386 q 175 480 168 449 q 190 540 182 511 q 205 587 198 569 l 212 605 q 225 492 214 543 q 248 430 233 458 q 275 393 263 403 l 287 382 m 572 469 q 585 447 576 454 q 602 441 595 440 l 610 441 q 607 447 609 443 q 602 469 605 452 q 604 510 599 486 q 613 554 607 530 q 623 593 618 578 l 627 606 q 583 591 591 608 q 556 536 568 564 q 532 490 544 509 q 505 469 513 461 q 506 504 498 475 q 528 562 513 534 q 554 603 544 595 q 583 606 564 612 q 576 623 587 616 q 548 629 565 630 q 517 616 530 627 q 474 522 488 587 q 446 493 462 500 q 452 542 453 524 q 437 596 450 582 q 403 608 425 610 q 442 612 419 619 q 433 623 439 616 q 411 637 427 629 q 379 640 394 645 q 331 565 353 630 q 319 465 309 500 q 364 422 332 428 q 427 454 397 416 q 441 479 435 465 q 471 496 456 482 q 471 469 469 477 q 507 444 475 441 q 540 474 521 444 q 571 532 559 503 l 584 561 q 579 544 582 554 q 572 507 576 534 q 572 469 567 480 m 767 435 q 765 437 766 435 q 760 446 763 439 q 754 460 756 452 q 753 483 753 469 q 757 512 753 496 q 770 558 762 536 q 781 590 777 580 l 786 600 l 757 614 q 746 614 750 617 q 659 515 692 575 q 711 663 676 590 q 772 753 745 735 q 759 759 767 755 q 733 761 751 762 q 707 747 715 760 q 636 570 659 670 q 622 468 618 492 q 630 450 623 459 q 643 437 637 441 l 650 433 q 684 527 651 485 q 714 564 700 549 q 734 583 728 578 l 740 587 q 736 576 739 583 q 727 551 733 569 q 718 516 722 532 q 715 482 715 500 q 722 454 715 465 q 743 433 732 438 q 761 431 754 429 l 767 435 m 829 405 q 836 518 810 436 q 901 686 862 601 q 999 688 986 687 q 1034 702 1019 690 q 1056 726 1050 714 l 1062 736 q 979 723 1029 724 q 928 723 963 723 q 872 722 893 722 q 826 721 850 722 q 788 719 801 720 q 752 703 768 716 q 731 677 736 689 l 726 665 q 795 682 734 677 q 853 684 807 682 q 825 608 851 677 q 789 497 798 538 q 787 461 785 477 q 796 435 789 446 q 810 418 803 425 q 823 408 818 411 l 829 405 m 1163 521 q 1181 567 1179 549 q 1177 595 1183 586 q 1131 611 1164 623 q 1098 590 1114 605 q 1073 564 1082 576 l 1065 553 q 1103 644 1101 644 l 1084 644 q 1053 627 1060 640 q 1013 516 1034 576 q 1011 511 1012 515 q 1009 506 1010 508 q 977 487 990 494 q 997 547 984 511 q 1020 607 1010 583 l 1029 631 q 983 616 994 629 q 960 584 981 613 q 922 533 939 554 q 897 517 904 513 q 897 526 895 519 q 903 543 898 532 q 913 564 907 553 q 926 587 919 575 q 938 607 932 598 q 947 623 943 616 l 950 629 q 938 628 945 629 q 914 621 930 627 q 892 604 898 614 q 882 582 885 589 q 872 563 878 576 q 864 543 866 550 q 859 526 861 535 q 857 511 857 517 q 861 501 858 505 q 878 494 866 494 q 905 501 890 494 q 932 524 920 509 l 978 585 q 939 470 956 517 q 913 454 930 464 q 890 440 897 445 q 873 427 884 436 q 853 405 863 417 q 837 359 835 381 q 858 334 839 337 q 909 350 878 330 q 941 389 930 364 q 968 459 953 413 q 971 471 970 467 q 1003 488 987 480 q 979 409 984 435 q 983 381 975 396 q 1000 357 990 366 l 1008 347 q 1031 453 1004 362 q 1067 538 1046 504 q 1109 584 1082 565 q 1143 597 1135 603 q 1144 576 1147 592 q 1135 547 1141 561 q 1101 506 1122 521 q 1066 490 1080 491 l 1053 488 q 1060 484 1055 486 q 1078 477 1064 481 q 1104 474 1091 473 q 1133 487 1116 475 q 1163 521 1149 498 m 1272 610 q 1306 625 1291 631 q 1310 602 1319 620 q 1295 585 1304 593 q 1275 575 1286 577 q 1256 574 1263 572 l 1249 575 q 1252 569 1250 572 q 1264 559 1255 565 q 1285 553 1273 553 q 1322 570 1310 555 q 1333 607 1335 586 q 1318 631 1333 621 q 1283 643 1304 642 q 1237 627 1262 644 q 1201 586 1216 611 q 1185 533 1185 562 q 1208 487 1185 505 q 1246 478 1224 475 q 1289 493 1269 481 q 1321 517 1310 504 q 1326 528 1324 521 q 1329 541 1329 536 l 1329 547 q 1275 504 1313 521 q 1227 503 1238 487 q 1233 552 1218 519 q 1272 610 1249 585 m 367 551 q 381 508 368 528 q 413 481 394 488 q 393 439 404 449 q 367 434 381 430 q 354 472 355 437 q 361 532 353 506 q 367 551 363 541 m 645 143 q 630 148 635 143 q 625 161 625 153 q 628 175 625 170 q 637 185 631 180 q 651 189 644 189 q 666 184 661 189 q 671 172 671 180 q 667 157 671 164 q 659 147 664 151 q 645 143 652 143 m 1145 94 l 241 94 l 271 241 l 1175 241 l 1145 94 m 1118 202 l 1055 202 l 1052 189 l 1075 189 l 1063 130 l 1080 130 l 1092 189 l 1115 189 l 1118 202 m 962 202 l 947 130 l 964 130 l 972 175 l 1000 130 l 1013 130 l 1027 202 l 1011 202 l 1002 157 l 975 202 l 962 202 m 850 182 q 844 160 844 172 q 848 144 844 151 q 861 133 852 137 q 879 129 869 129 q 903 135 892 129 q 918 150 914 142 q 924 172 924 161 q 920 189 924 182 q 907 199 916 195 q 888 203 899 203 q 865 198 874 203 q 850 182 854 191 m 773 202 l 759 130 l 775 130 l 781 157 l 814 157 l 817 170 l 783 170 l 787 189 l 825 189 l 827 202 l 773 202 m 614 182 q 608 160 608 174 q 612 144 608 151 q 625 133 616 137 q 643 129 633 129 q 667 135 656 129 q 682 150 678 142 q 688 172 688 159 q 684 189 688 182 q 671 199 680 195 q 652 203 663 203 q 629 198 638 203 q 614 182 618 191 m 517 202 l 504 202 l 490 130 l 505 130 l 513 174 l 528 138 l 536 138 l 564 173 l 555 130 l 570 130 l 585 202 l 570 202 l 535 157 l 517 202 m 416 202 l 402 130 l 458 130 l 460 144 l 421 144 l 425 160 l 458 160 l 460 173 l 427 173 l 430 189 l 468 189 l 471 202 l 416 202 m 343 202 l 313 202 l 299 130 l 334 130 q 357 136 347 130 q 373 150 366 140 q 378 172 378 158 q 374 188 378 180 q 362 199 370 195 q 343 202 355 202 m 881 143 q 866 148 871 143 q 861 161 861 153 q 864 175 861 170 q 873 185 867 180 q 887 189 880 189 q 902 184 897 189 q 907 172 907 180 q 903 157 907 164 q 895 147 900 151 q 881 143 888 143 m 349 147 q 334 144 342 144 l 318 144 l 327 189 l 341 189 q 357 184 351 189 q 362 172 362 178 q 359 157 362 164 q 349 147 355 150 z "},"8":{"ha":1415,"x_min":26,"x_max":1390,"o":"m 865 399 q 932 450 883 426 q 905 384 916 406 q 880 358 893 363 q 854 365 858 351 q 865 399 850 378 m 390 567 q 415 553 408 595 q 416 495 421 517 l 416 494 q 390 527 399 504 q 390 567 380 549 m 1388 575 q 1378 530 1390 551 q 1383 513 1383 523 q 1367 462 1383 479 q 1319 427 1350 442 q 1261 412 1289 412 q 1212 429 1232 412 q 1195 446 1203 435 q 1118 410 1162 410 q 1085 415 1100 410 q 1084 413 1085 414 q 1084 410 1084 411 q 1062 321 1061 335 q 1061 301 1065 311 q 1048 286 1057 292 q 1031 281 1041 281 q 1010 290 1020 281 q 983 324 995 303 q 951 290 968 303 q 889 267 919 267 q 835 300 863 267 q 812 334 823 313 q 806 368 804 348 q 804 370 806 369 q 802 372 803 371 q 777 366 790 366 q 718 404 742 366 q 712 417 714 410 l 708 421 l 705 398 q 688 372 703 380 q 673 368 681 368 q 658 372 665 368 q 655 373 657 372 q 651 376 653 374 q 646 379 648 377 q 640 377 646 378 l 635 376 q 628 376 631 376 q 575 404 593 376 q 532 378 555 380 q 529 378 531 378 q 526 378 526 378 q 475 401 492 378 q 397 356 442 356 q 338 380 363 356 q 341 354 338 370 q 327 322 345 333 q 310 317 319 317 q 292 323 300 317 l 290 324 q 286 329 288 326 q 279 334 283 331 q 271 342 275 338 q 262 353 267 347 q 252 366 257 359 q 243 382 248 374 q 224 408 231 396 q 229 349 220 368 q 229 318 238 334 q 202 302 220 302 q 144 331 168 302 q 100 414 105 376 q 82 409 91 409 q 71 411 76 409 q 37 441 48 420 q 28 477 26 463 q 29 486 28 479 q 37 505 31 492 q 53 529 43 517 q 83 553 63 541 q 128 573 102 566 q 155 657 144 629 q 172 692 167 686 q 186 701 178 697 q 199 703 193 703 q 262 664 224 703 q 267 659 265 661 q 315 752 286 703 q 372 782 334 782 q 422 769 397 782 q 446 741 430 765 q 463 709 462 718 q 448 681 464 691 q 430 663 442 677 q 467 631 452 651 q 473 615 472 624 q 475 614 473 614 l 476 613 q 496 639 486 631 q 551 661 519 661 q 606 636 589 661 q 622 637 617 637 q 680 763 643 703 q 736 793 699 793 q 787 781 761 793 q 804 754 802 772 l 804 752 q 925 754 836 754 l 979 754 q 1016 757 998 754 q 1042 763 1034 760 l 1050 766 q 1062 768 1055 768 q 1085 758 1076 768 q 1098 740 1089 754 q 1108 724 1107 725 q 1114 690 1121 707 q 1106 675 1112 684 q 1134 652 1129 671 q 1135 645 1135 648 q 1148 646 1139 646 q 1192 627 1175 646 q 1218 652 1202 640 q 1282 675 1249 675 q 1329 663 1310 675 q 1367 625 1348 650 q 1388 575 1386 602 m 287 382 q 297 520 277 440 q 349 662 317 600 q 408 741 380 724 q 395 747 403 744 q 369 749 387 750 q 342 735 351 749 q 287 627 308 680 q 261 536 266 574 q 256 478 256 498 q 258 444 256 458 q 234 528 239 479 q 235 610 230 578 l 240 642 q 231 651 237 646 q 214 665 225 656 q 197 671 202 673 q 153 547 186 667 q 110 533 129 543 q 82 514 91 524 q 67 495 73 504 q 60 480 61 486 l 59 474 q 144 509 73 494 q 132 458 134 465 q 131 414 128 431 q 142 387 134 397 q 158 373 150 378 q 172 368 166 369 l 179 368 q 169 417 169 386 q 175 480 168 449 q 190 540 182 511 q 205 587 198 569 l 212 605 q 225 492 214 543 q 248 430 233 458 q 275 393 263 403 l 287 382 m 572 469 q 585 447 576 454 q 602 441 595 440 l 610 441 q 607 447 609 443 q 602 469 605 452 q 604 510 599 486 q 613 554 607 530 q 623 593 618 578 l 627 606 q 583 591 591 608 q 556 536 568 564 q 532 490 544 509 q 505 469 513 461 q 506 504 498 475 q 528 562 513 534 q 554 603 544 595 q 583 606 564 612 q 576 623 587 616 q 548 629 565 630 q 517 616 530 627 q 474 522 488 587 q 446 493 462 500 q 452 542 453 524 q 437 596 450 582 q 403 608 425 610 q 442 612 419 619 q 433 623 439 616 q 411 637 427 629 q 379 640 394 645 q 331 565 353 630 q 319 465 309 500 q 364 422 332 428 q 427 454 397 416 q 441 479 435 465 q 471 496 456 482 q 471 469 469 477 q 507 444 475 441 q 540 474 521 444 q 571 532 559 503 l 584 561 q 579 544 582 554 q 572 507 576 534 q 572 469 567 480 m 767 435 q 765 437 766 435 q 760 446 763 439 q 754 460 756 452 q 753 483 753 469 q 757 512 753 496 q 770 558 762 536 q 781 590 777 580 l 786 600 l 757 614 q 746 614 750 617 q 659 515 692 575 q 711 663 676 590 q 772 753 745 735 q 759 759 767 755 q 733 761 751 762 q 707 747 715 760 q 636 570 659 670 q 622 468 618 492 q 630 450 623 459 q 643 437 637 441 l 650 433 q 684 527 651 485 q 714 564 700 549 q 734 583 728 578 l 740 587 q 736 576 739 583 q 727 551 733 569 q 718 516 722 532 q 715 482 715 500 q 722 454 715 465 q 743 433 732 438 q 761 431 754 429 l 767 435 m 829 405 q 836 518 810 436 q 901 686 862 601 q 999 688 986 687 q 1034 702 1019 690 q 1056 726 1050 714 l 1062 736 q 979 723 1029 724 q 928 723 963 723 q 872 722 893 722 q 826 721 850 722 q 788 719 801 720 q 752 703 768 716 q 731 677 736 689 l 726 665 q 795 682 734 677 q 853 684 807 682 q 825 608 851 677 q 789 497 798 538 q 787 461 785 477 q 796 435 789 446 q 810 418 803 425 q 823 408 818 411 l 829 405 m 1163 521 q 1181 567 1179 549 q 1177 595 1183 586 q 1131 611 1164 623 q 1098 590 1114 605 q 1073 564 1082 576 l 1065 553 q 1103 644 1101 644 l 1084 644 q 1053 627 1060 640 q 1013 516 1034 576 q 1011 511 1012 515 q 1009 506 1010 508 q 977 487 990 494 q 997 547 984 511 q 1020 607 1010 583 l 1029 631 q 983 616 994 629 q 960 584 981 613 q 922 533 939 554 q 897 517 904 513 q 897 526 895 519 q 903 543 898 532 q 913 564 907 553 q 926 587 919 575 q 938 607 932 598 q 947 623 943 616 l 950 629 q 938 628 945 629 q 914 621 930 627 q 892 604 898 614 q 882 582 885 589 q 872 563 878 576 q 864 543 866 550 q 859 526 861 535 q 857 511 857 517 q 861 501 858 505 q 878 494 866 494 q 905 501 890 494 q 932 524 920 509 l 978 585 q 939 470 956 517 q 913 454 930 464 q 890 440 897 445 q 873 427 884 436 q 853 405 863 417 q 837 359 835 381 q 858 334 839 337 q 909 350 878 330 q 941 389 930 364 q 968 459 953 413 q 971 471 970 467 q 1003 488 987 480 q 979 409 984 435 q 983 381 975 396 q 1000 357 990 366 l 1008 347 q 1031 453 1004 362 q 1067 538 1046 504 q 1109 584 1082 565 q 1143 597 1135 603 q 1144 576 1147 592 q 1135 547 1141 561 q 1101 506 1122 521 q 1066 490 1080 491 l 1053 488 q 1060 484 1055 486 q 1078 477 1064 481 q 1104 474 1091 473 q 1133 487 1116 475 q 1163 521 1149 498 m 1272 610 q 1306 625 1291 631 q 1310 602 1319 620 q 1295 585 1304 593 q 1275 575 1286 577 q 1256 574 1263 572 l 1249 575 q 1252 569 1250 572 q 1264 559 1255 565 q 1285 553 1273 553 q 1322 570 1310 555 q 1333 607 1335 586 q 1318 631 1333 621 q 1283 643 1304 642 q 1237 627 1262 644 q 1201 586 1216 611 q 1185 533 1185 562 q 1208 487 1185 505 q 1246 478 1224 475 q 1289 493 1269 481 q 1321 517 1310 504 q 1326 528 1324 521 q 1329 541 1329 536 l 1329 547 q 1275 504 1313 521 q 1227 503 1238 487 q 1233 552 1218 519 q 1272 610 1249 585 m 367 551 q 381 508 368 528 q 413 481 394 488 q 393 439 404 449 q 367 434 381 430 q 354 472 355 437 q 361 532 353 506 q 367 551 363 541 m 645 143 q 630 148 635 143 q 625 161 625 153 q 628 175 625 170 q 637 185 631 180 q 651 189 644 189 q 666 184 661 189 q 671 172 671 180 q 667 157 671 164 q 659 147 664 151 q 645 143 652 143 m 1145 94 l 241 94 l 271 241 l 1175 241 l 1145 94 m 1118 202 l 1055 202 l 1052 189 l 1075 189 l 1063 130 l 1080 130 l 1092 189 l 1115 189 l 1118 202 m 962 202 l 947 130 l 964 130 l 972 175 l 1000 130 l 1013 130 l 1027 202 l 1011 202 l 1002 157 l 975 202 l 962 202 m 850 182 q 844 160 844 172 q 848 144 844 151 q 861 133 852 137 q 879 129 869 129 q 903 135 892 129 q 918 150 914 142 q 924 172 924 161 q 920 189 924 182 q 907 199 916 195 q 888 203 899 203 q 865 198 874 203 q 850 182 854 191 m 773 202 l 759 130 l 775 130 l 781 157 l 814 157 l 817 170 l 783 170 l 787 189 l 825 189 l 827 202 l 773 202 m 614 182 q 608 160 608 174 q 612 144 608 151 q 625 133 616 137 q 643 129 633 129 q 667 135 656 129 q 682 150 678 142 q 688 172 688 159 q 684 189 688 182 q 671 199 680 195 q 652 203 663 203 q 629 198 638 203 q 614 182 618 191 m 517 202 l 504 202 l 490 130 l 505 130 l 513 174 l 528 138 l 536 138 l 564 173 l 555 130 l 570 130 l 585 202 l 570 202 l 535 157 l 517 202 m 416 202 l 402 130 l 458 130 l 460 144 l 421 144 l 425 160 l 458 160 l 460 173 l 427 173 l 430 189 l 468 189 l 471 202 l 416 202 m 343 202 l 313 202 l 299 130 l 334 130 q 357 136 347 130 q 373 150 366 140 q 378 172 378 158 q 374 188 378 180 q 362 199 370 195 q 343 202 355 202 m 881 143 q 866 148 871 143 q 861 161 861 153 q 864 175 861 170 q 873 185 867 180 q 887 189 880 189 q 902 184 897 189 q 907 172 907 180 q 903 157 907 164 q 895 147 900 151 q 881 143 888 143 m 349 147 q 334 144 342 144 l 318 144 l 327 189 l 341 189 q 357 184 351 189 q 362 172 362 178 q 359 157 362 164 q 349 147 355 150 z "},"9":{"ha":1415,"x_min":26,"x_max":1390,"o":"m 865 399 q 932 450 883 426 q 905 384 916 406 q 880 358 893 363 q 854 365 858 351 q 865 399 850 378 m 390 567 q 415 553 408 595 q 416 495 421 517 l 416 494 q 390 527 399 504 q 390 567 380 549 m 1388 575 q 1378 530 1390 551 q 1383 513 1383 523 q 1367 462 1383 479 q 1319 427 1350 442 q 1261 412 1289 412 q 1212 429 1232 412 q 1195 446 1203 435 q 1118 410 1162 410 q 1085 415 1100 410 q 1084 413 1085 414 q 1084 410 1084 411 q 1062 321 1061 335 q 1061 301 1065 311 q 1048 286 1057 292 q 1031 281 1041 281 q 1010 290 1020 281 q 983 324 995 303 q 951 290 968 303 q 889 267 919 267 q 835 300 863 267 q 812 334 823 313 q 806 368 804 348 q 804 370 806 369 q 802 372 803 371 q 777 366 790 366 q 718 404 742 366 q 712 417 714 410 l 708 421 l 705 398 q 688 372 703 380 q 673 368 681 368 q 658 372 665 368 q 655 373 657 372 q 651 376 653 374 q 646 379 648 377 q 640 377 646 378 l 635 376 q 628 376 631 376 q 575 404 593 376 q 532 378 555 380 q 529 378 531 378 q 526 378 526 378 q 475 401 492 378 q 397 356 442 356 q 338 380 363 356 q 341 354 338 370 q 327 322 345 333 q 310 317 319 317 q 292 323 300 317 l 290 324 q 286 329 288 326 q 279 334 283 331 q 271 342 275 338 q 262 353 267 347 q 252 366 257 359 q 243 382 248 374 q 224 408 231 396 q 229 349 220 368 q 229 318 238 334 q 202 302 220 302 q 144 331 168 302 q 100 414 105 376 q 82 409 91 409 q 71 411 76 409 q 37 441 48 420 q 28 477 26 463 q 29 486 28 479 q 37 505 31 492 q 53 529 43 517 q 83 553 63 541 q 128 573 102 566 q 155 657 144 629 q 172 692 167 686 q 186 701 178 697 q 199 703 193 703 q 262 664 224 703 q 267 659 265 661 q 315 752 286 703 q 372 782 334 782 q 422 769 397 782 q 446 741 430 765 q 463 709 462 718 q 448 681 464 691 q 430 663 442 677 q 467 631 452 651 q 473 615 472 624 q 475 614 473 614 l 476 613 q 496 639 486 631 q 551 661 519 661 q 606 636 589 661 q 622 637 617 637 q 680 763 643 703 q 736 793 699 793 q 787 781 761 793 q 804 754 802 772 l 804 752 q 925 754 836 754 l 979 754 q 1016 757 998 754 q 1042 763 1034 760 l 1050 766 q 1062 768 1055 768 q 1085 758 1076 768 q 1098 740 1089 754 q 1108 724 1107 725 q 1114 690 1121 707 q 1106 675 1112 684 q 1134 652 1129 671 q 1135 645 1135 648 q 1148 646 1139 646 q 1192 627 1175 646 q 1218 652 1202 640 q 1282 675 1249 675 q 1329 663 1310 675 q 1367 625 1348 650 q 1388 575 1386 602 m 287 382 q 297 520 277 440 q 349 662 317 600 q 408 741 380 724 q 395 747 403 744 q 369 749 387 750 q 342 735 351 749 q 287 627 308 680 q 261 536 266 574 q 256 478 256 498 q 258 444 256 458 q 234 528 239 479 q 235 610 230 578 l 240 642 q 231 651 237 646 q 214 665 225 656 q 197 671 202 673 q 153 547 186 667 q 110 533 129 543 q 82 514 91 524 q 67 495 73 504 q 60 480 61 486 l 59 474 q 144 509 73 494 q 132 458 134 465 q 131 414 128 431 q 142 387 134 397 q 158 373 150 378 q 172 368 166 369 l 179 368 q 169 417 169 386 q 175 480 168 449 q 190 540 182 511 q 205 587 198 569 l 212 605 q 225 492 214 543 q 248 430 233 458 q 275 393 263 403 l 287 382 m 572 469 q 585 447 576 454 q 602 441 595 440 l 610 441 q 607 447 609 443 q 602 469 605 452 q 604 510 599 486 q 613 554 607 530 q 623 593 618 578 l 627 606 q 583 591 591 608 q 556 536 568 564 q 532 490 544 509 q 505 469 513 461 q 506 504 498 475 q 528 562 513 534 q 554 603 544 595 q 583 606 564 612 q 576 623 587 616 q 548 629 565 630 q 517 616 530 627 q 474 522 488 587 q 446 493 462 500 q 452 542 453 524 q 437 596 450 582 q 403 608 425 610 q 442 612 419 619 q 433 623 439 616 q 411 637 427 629 q 379 640 394 645 q 331 565 353 630 q 319 465 309 500 q 364 422 332 428 q 427 454 397 416 q 441 479 435 465 q 471 496 456 482 q 471 469 469 477 q 507 444 475 441 q 540 474 521 444 q 571 532 559 503 l 584 561 q 579 544 582 554 q 572 507 576 534 q 572 469 567 480 m 767 435 q 765 437 766 435 q 760 446 763 439 q 754 460 756 452 q 753 483 753 469 q 757 512 753 496 q 770 558 762 536 q 781 590 777 580 l 786 600 l 757 614 q 746 614 750 617 q 659 515 692 575 q 711 663 676 590 q 772 753 745 735 q 759 759 767 755 q 733 761 751 762 q 707 747 715 760 q 636 570 659 670 q 622 468 618 492 q 630 450 623 459 q 643 437 637 441 l 650 433 q 684 527 651 485 q 714 564 700 549 q 734 583 728 578 l 740 587 q 736 576 739 583 q 727 551 733 569 q 718 516 722 532 q 715 482 715 500 q 722 454 715 465 q 743 433 732 438 q 761 431 754 429 l 767 435 m 829 405 q 836 518 810 436 q 901 686 862 601 q 999 688 986 687 q 1034 702 1019 690 q 1056 726 1050 714 l 1062 736 q 979 723 1029 724 q 928 723 963 723 q 872 722 893 722 q 826 721 850 722 q 788 719 801 720 q 752 703 768 716 q 731 677 736 689 l 726 665 q 795 682 734 677 q 853 684 807 682 q 825 608 851 677 q 789 497 798 538 q 787 461 785 477 q 796 435 789 446 q 810 418 803 425 q 823 408 818 411 l 829 405 m 1163 521 q 1181 567 1179 549 q 1177 595 1183 586 q 1131 611 1164 623 q 1098 590 1114 605 q 1073 564 1082 576 l 1065 553 q 1103 644 1101 644 l 1084 644 q 1053 627 1060 640 q 1013 516 1034 576 q 1011 511 1012 515 q 1009 506 1010 508 q 977 487 990 494 q 997 547 984 511 q 1020 607 1010 583 l 1029 631 q 983 616 994 629 q 960 584 981 613 q 922 533 939 554 q 897 517 904 513 q 897 526 895 519 q 903 543 898 532 q 913 564 907 553 q 926 587 919 575 q 938 607 932 598 q 947 623 943 616 l 950 629 q 938 628 945 629 q 914 621 930 627 q 892 604 898 614 q 882 582 885 589 q 872 563 878 576 q 864 543 866 550 q 859 526 861 535 q 857 511 857 517 q 861 501 858 505 q 878 494 866 494 q 905 501 890 494 q 932 524 920 509 l 978 585 q 939 470 956 517 q 913 454 930 464 q 890 440 897 445 q 873 427 884 436 q 853 405 863 417 q 837 359 835 381 q 858 334 839 337 q 909 350 878 330 q 941 389 930 364 q 968 459 953 413 q 971 471 970 467 q 1003 488 987 480 q 979 409 984 435 q 983 381 975 396 q 1000 357 990 366 l 1008 347 q 1031 453 1004 362 q 1067 538 1046 504 q 1109 584 1082 565 q 1143 597 1135 603 q 1144 576 1147 592 q 1135 547 1141 561 q 1101 506 1122 521 q 1066 490 1080 491 l 1053 488 q 1060 484 1055 486 q 1078 477 1064 481 q 1104 474 1091 473 q 1133 487 1116 475 q 1163 521 1149 498 m 1272 610 q 1306 625 1291 631 q 1310 602 1319 620 q 1295 585 1304 593 q 1275 575 1286 577 q 1256 574 1263 572 l 1249 575 q 1252 569 1250 572 q 1264 559 1255 565 q 1285 553 1273 553 q 1322 570 1310 555 q 1333 607 1335 586 q 1318 631 1333 621 q 1283 643 1304 642 q 1237 627 1262 644 q 1201 586 1216 611 q 1185 533 1185 562 q 1208 487 1185 505 q 1246 478 1224 475 q 1289 493 1269 481 q 1321 517 1310 504 q 1326 528 1324 521 q 1329 541 1329 536 l 1329 547 q 1275 504 1313 521 q 1227 503 1238 487 q 1233 552 1218 519 q 1272 610 1249 585 m 367 551 q 381 508 368 528 q 413 481 394 488 q 393 439 404 449 q 367 434 381 430 q 354 472 355 437 q 361 532 353 506 q 367 551 363 541 m 645 143 q 630 148 635 143 q 625 161 625 153 q 628 175 625 170 q 637 185 631 180 q 651 189 644 189 q 666 184 661 189 q 671 172 671 180 q 667 157 671 164 q 659 147 664 151 q 645 143 652 143 m 1145 94 l 241 94 l 271 241 l 1175 241 l 1145 94 m 1118 202 l 1055 202 l 1052 189 l 1075 189 l 1063 130 l 1080 130 l 1092 189 l 1115 189 l 1118 202 m 962 202 l 947 130 l 964 130 l 972 175 l 1000 130 l 1013 130 l 1027 202 l 1011 202 l 1002 157 l 975 202 l 962 202 m 850 182 q 844 160 844 172 q 848 144 844 151 q 861 133 852 137 q 879 129 869 129 q 903 135 892 129 q 918 150 914 142 q 924 172 924 161 q 920 189 924 182 q 907 199 916 195 q 888 203 899 203 q 865 198 874 203 q 850 182 854 191 m 773 202 l 759 130 l 775 130 l 781 157 l 814 157 l 817 170 l 783 170 l 787 189 l 825 189 l 827 202 l 773 202 m 614 182 q 608 160 608 174 q 612 144 608 151 q 625 133 616 137 q 643 129 633 129 q 667 135 656 129 q 682 150 678 142 q 688 172 688 159 q 684 189 688 182 q 671 199 680 195 q 652 203 663 203 q 629 198 638 203 q 614 182 618 191 m 517 202 l 504 202 l 490 130 l 505 130 l 513 174 l 528 138 l 536 138 l 564 173 l 555 130 l 570 130 l 585 202 l 570 202 l 535 157 l 517 202 m 416 202 l 402 130 l 458 130 l 460 144 l 421 144 l 425 160 l 458 160 l 460 173 l 427 173 l 430 189 l 468 189 l 471 202 l 416 202 m 343 202 l 313 202 l 299 130 l 334 130 q 357 136 347 130 q 373 150 366 140 q 378 172 378 158 q 374 188 378 180 q 362 199 370 195 q 343 202 355 202 m 881 143 q 866 148 871 143 q 861 161 861 153 q 864 175 861 170 q 873 185 867 180 q 887 189 880 189 q 902 184 897 189 q 907 172 907 180 q 903 157 907 164 q 895 147 900 151 q 881 143 888 143 m 349 147 q 334 144 342 144 l 318 144 l 327 189 l 341 189 q 357 184 351 189 q 362 172 362 178 q 359 157 362 164 q 349 147 355 150 z "},"\u0000":{"ha":0,"x_min":0,"x_max":0,"o":""},"\n":{"ha":0,"x_min":0,"x_max":0,"o":""},"\r":{"ha":0,"x_min":0,"x_max":0,"o":""}," ":{"ha":394,"x_min":0,"x_max":0,"o":""},"!":{"ha":1415,"x_min":26,"x_max":1390,"o":"m 865 399 q 932 450 883 426 q 905 384 916 406 q 880 358 893 363 q 854 365 858 351 q 865 399 850 378 m 390 567 q 415 553 408 595 q 416 495 421 517 l 416 494 q 390 527 399 504 q 390 567 380 549 m 1388 575 q 1378 530 1390 551 q 1383 513 1383 523 q 1367 462 1383 479 q 1319 427 1350 442 q 1261 412 1289 412 q 1212 429 1232 412 q 1195 446 1203 435 q 1118 410 1162 410 q 1085 415 1100 410 q 1084 413 1085 414 q 1084 410 1084 411 q 1062 321 1061 335 q 1061 301 1065 311 q 1048 286 1057 292 q 1031 281 1041 281 q 1010 290 1020 281 q 983 324 995 303 q 951 290 968 303 q 889 267 919 267 q 835 300 863 267 q 812 334 823 313 q 806 368 804 348 q 804 370 806 369 q 802 372 803 371 q 777 366 790 366 q 718 404 742 366 q 712 417 714 410 l 708 421 l 705 398 q 688 372 703 380 q 673 368 681 368 q 658 372 665 368 q 655 373 657 372 q 651 376 653 374 q 646 379 648 377 q 640 377 646 378 l 635 376 q 628 376 631 376 q 575 404 593 376 q 532 378 555 380 q 529 378 531 378 q 526 378 526 378 q 475 401 492 378 q 397 356 442 356 q 338 380 363 356 q 341 354 338 370 q 327 322 345 333 q 310 317 319 317 q 292 323 300 317 l 290 324 q 286 329 288 326 q 279 334 283 331 q 271 342 275 338 q 262 353 267 347 q 252 366 257 359 q 243 382 248 374 q 224 408 231 396 q 229 349 220 368 q 229 318 238 334 q 202 302 220 302 q 144 331 168 302 q 100 414 105 376 q 82 409 91 409 q 71 411 76 409 q 37 441 48 420 q 28 477 26 463 q 29 486 28 479 q 37 505 31 492 q 53 529 43 517 q 83 553 63 541 q 128 573 102 566 q 155 657 144 629 q 172 692 167 686 q 186 701 178 697 q 199 703 193 703 q 262 664 224 703 q 267 659 265 661 q 315 752 286 703 q 372 782 334 782 q 422 769 397 782 q 446 741 430 765 q 463 709 462 718 q 448 681 464 691 q 430 663 442 677 q 467 631 452 651 q 473 615 472 624 q 475 614 473 614 l 476 613 q 496 639 486 631 q 551 661 519 661 q 606 636 589 661 q 622 637 617 637 q 680 763 643 703 q 736 793 699 793 q 787 781 761 793 q 804 754 802 772 l 804 752 q 925 754 836 754 l 979 754 q 1016 757 998 754 q 1042 763 1034 760 l 1050 766 q 1062 768 1055 768 q 1085 758 1076 768 q 1098 740 1089 754 q 1108 724 1107 725 q 1114 690 1121 707 q 1106 675 1112 684 q 1134 652 1129 671 q 1135 645 1135 648 q 1148 646 1139 646 q 1192 627 1175 646 q 1218 652 1202 640 q 1282 675 1249 675 q 1329 663 1310 675 q 1367 625 1348 650 q 1388 575 1386 602 m 287 382 q 297 520 277 440 q 349 662 317 600 q 408 741 380 724 q 395 747 403 744 q 369 749 387 750 q 342 735 351 749 q 287 627 308 680 q 261 536 266 574 q 256 478 256 498 q 258 444 256 458 q 234 528 239 479 q 235 610 230 578 l 240 642 q 231 651 237 646 q 214 665 225 656 q 197 671 202 673 q 153 547 186 667 q 110 533 129 543 q 82 514 91 524 q 67 495 73 504 q 60 480 61 486 l 59 474 q 144 509 73 494 q 132 458 134 465 q 131 414 128 431 q 142 387 134 397 q 158 373 150 378 q 172 368 166 369 l 179 368 q 169 417 169 386 q 175 480 168 449 q 190 540 182 511 q 205 587 198 569 l 212 605 q 225 492 214 543 q 248 430 233 458 q 275 393 263 403 l 287 382 m 572 469 q 585 447 576 454 q 602 441 595 440 l 610 441 q 607 447 609 443 q 602 469 605 452 q 604 510 599 486 q 613 554 607 530 q 623 593 618 578 l 627 606 q 583 591 591 608 q 556 536 568 564 q 532 490 544 509 q 505 469 513 461 q 506 504 498 475 q 528 562 513 534 q 554 603 544 595 q 583 606 564 612 q 576 623 587 616 q 548 629 565 630 q 517 616 530 627 q 474 522 488 587 q 446 493 462 500 q 452 542 453 524 q 437 596 450 582 q 403 608 425 610 q 442 612 419 619 q 433 623 439 616 q 411 637 427 629 q 379 640 394 645 q 331 565 353 630 q 319 465 309 500 q 364 422 332 428 q 427 454 397 416 q 441 479 435 465 q 471 496 456 482 q 471 469 469 477 q 507 444 475 441 q 540 474 521 444 q 571 532 559 503 l 584 561 q 579 544 582 554 q 572 507 576 534 q 572 469 567 480 m 767 435 q 765 437 766 435 q 760 446 763 439 q 754 460 756 452 q 753 483 753 469 q 757 512 753 496 q 770 558 762 536 q 781 590 777 580 l 786 600 l 757 614 q 746 614 750 617 q 659 515 692 575 q 711 663 676 590 q 772 753 745 735 q 759 759 767 755 q 733 761 751 762 q 707 747 715 760 q 636 570 659 670 q 622 468 618 492 q 630 450 623 459 q 643 437 637 441 l 650 433 q 684 527 651 485 q 714 564 700 549 q 734 583 728 578 l 740 587 q 736 576 739 583 q 727 551 733 569 q 718 516 722 532 q 715 482 715 500 q 722 454 715 465 q 743 433 732 438 q 761 431 754 429 l 767 435 m 829 405 q 836 518 810 436 q 901 686 862 601 q 999 688 986 687 q 1034 702 1019 690 q 1056 726 1050 714 l 1062 736 q 979 723 1029 724 q 928 723 963 723 q 872 722 893 722 q 826 721 850 722 q 788 719 801 720 q 752 703 768 716 q 731 677 736 689 l 726 665 q 795 682 734 677 q 853 684 807 682 q 825 608 851 677 q 789 497 798 538 q 787 461 785 477 q 796 435 789 446 q 810 418 803 425 q 823 408 818 411 l 829 405 m 1163 521 q 1181 567 1179 549 q 1177 595 1183 586 q 1131 611 1164 623 q 1098 590 1114 605 q 1073 564 1082 576 l 1065 553 q 1103 644 1101 644 l 1084 644 q 1053 627 1060 640 q 1013 516 1034 576 q 1011 511 1012 515 q 1009 506 1010 508 q 977 487 990 494 q 997 547 984 511 q 1020 607 1010 583 l 1029 631 q 983 616 994 629 q 960 584 981 613 q 922 533 939 554 q 897 517 904 513 q 897 526 895 519 q 903 543 898 532 q 913 564 907 553 q 926 587 919 575 q 938 607 932 598 q 947 623 943 616 l 950 629 q 938 628 945 629 q 914 621 930 627 q 892 604 898 614 q 882 582 885 589 q 872 563 878 576 q 864 543 866 550 q 859 526 861 535 q 857 511 857 517 q 861 501 858 505 q 878 494 866 494 q 905 501 890 494 q 932 524 920 509 l 978 585 q 939 470 956 517 q 913 454 930 464 q 890 440 897 445 q 873 427 884 436 q 853 405 863 417 q 837 359 835 381 q 858 334 839 337 q 909 350 878 330 q 941 389 930 364 q 968 459 953 413 q 971 471 970 467 q 1003 488 987 480 q 979 409 984 435 q 983 381 975 396 q 1000 357 990 366 l 1008 347 q 1031 453 1004 362 q 1067 538 1046 504 q 1109 584 1082 565 q 1143 597 1135 603 q 1144 576 1147 592 q 1135 547 1141 561 q 1101 506 1122 521 q 1066 490 1080 491 l 1053 488 q 1060 484 1055 486 q 1078 477 1064 481 q 1104 474 1091 473 q 1133 487 1116 475 q 1163 521 1149 498 m 1272 610 q 1306 625 1291 631 q 1310 602 1319 620 q 1295 585 1304 593 q 1275 575 1286 577 q 1256 574 1263 572 l 1249 575 q 1252 569 1250 572 q 1264 559 1255 565 q 1285 553 1273 553 q 1322 570 1310 555 q 1333 607 1335 586 q 1318 631 1333 621 q 1283 643 1304 642 q 1237 627 1262 644 q 1201 586 1216 611 q 1185 533 1185 562 q 1208 487 1185 505 q 1246 478 1224 475 q 1289 493 1269 481 q 1321 517 1310 504 q 1326 528 1324 521 q 1329 541 1329 536 l 1329 547 q 1275 504 1313 521 q 1227 503 1238 487 q 1233 552 1218 519 q 1272 610 1249 585 m 367 551 q 381 508 368 528 q 413 481 394 488 q 393 439 404 449 q 367 434 381 430 q 354 472 355 437 q 361 532 353 506 q 367 551 363 541 m 645 143 q 630 148 635 143 q 625 161 625 153 q 628 175 625 170 q 637 185 631 180 q 651 189 644 189 q 666 184 661 189 q 671 172 671 180 q 667 157 671 164 q 659 147 664 151 q 645 143 652 143 m 1145 94 l 241 94 l 271 241 l 1175 241 l 1145 94 m 1118 202 l 1055 202 l 1052 189 l 1075 189 l 1063 130 l 1080 130 l 1092 189 l 1115 189 l 1118 202 m 962 202 l 947 130 l 964 130 l 972 175 l 1000 130 l 1013 130 l 1027 202 l 1011 202 l 1002 157 l 975 202 l 962 202 m 850 182 q 844 160 844 172 q 848 144 844 151 q 861 133 852 137 q 879 129 869 129 q 903 135 892 129 q 918 150 914 142 q 924 172 924 161 q 920 189 924 182 q 907 199 916 195 q 888 203 899 203 q 865 198 874 203 q 850 182 854 191 m 773 202 l 759 130 l 775 130 l 781 157 l 814 157 l 817 170 l 783 170 l 787 189 l 825 189 l 827 202 l 773 202 m 614 182 q 608 160 608 174 q 612 144 608 151 q 625 133 616 137 q 643 129 633 129 q 667 135 656 129 q 682 150 678 142 q 688 172 688 159 q 684 189 688 182 q 671 199 680 195 q 652 203 663 203 q 629 198 638 203 q 614 182 618 191 m 517 202 l 504 202 l 490 130 l 505 130 l 513 174 l 528 138 l 536 138 l 564 173 l 555 130 l 570 130 l 585 202 l 570 202 l 535 157 l 517 202 m 416 202 l 402 130 l 458 130 l 460 144 l 421 144 l 425 160 l 458 160 l 460 173 l 427 173 l 430 189 l 468 189 l 471 202 l 416 202 m 343 202 l 313 202 l 299 130 l 334 130 q 357 136 347 130 q 373 150 366 140 q 378 172 378 158 q 374 188 378 180 q 362 199 370 195 q 343 202 355 202 m 881 143 q 866 148 871 143 q 861 161 861 153 q 864 175 861 170 q 873 185 867 180 q 887 189 880 189 q 902 184 897 189 q 907 172 907 180 q 903 157 907 164 q 895 147 900 151 q 881 143 888 143 m 349 147 q 334 144 342 144 l 318 144 l 327 189 l 341 189 q 357 184 351 189 q 362 172 362 178 q 359 157 362 164 q 349 147 355 150 z "},"\"":{"ha":1415,"x_min":26,"x_max":1390,"o":"m 865 399 q 932 450 883 426 q 905 384 916 406 q 880 358 893 363 q 854 365 858 351 q 865 399 850 378 m 390 567 q 415 553 408 595 q 416 495 421 517 l 416 494 q 390 527 399 504 q 390 567 380 549 m 1388 575 q 1378 530 1390 551 q 1383 513 1383 523 q 1367 462 1383 479 q 1319 427 1350 442 q 1261 412 1289 412 q 1212 429 1232 412 q 1195 446 1203 435 q 1118 410 1162 410 q 1085 415 1100 410 q 1084 413 1085 414 q 1084 410 1084 411 q 1062 321 1061 335 q 1061 301 1065 311 q 1048 286 1057 292 q 1031 281 1041 281 q 1010 290 1020 281 q 983 324 995 303 q 951 290 968 303 q 889 267 919 267 q 835 300 863 267 q 812 334 823 313 q 806 368 804 348 q 804 370 806 369 q 802 372 803 371 q 777 366 790 366 q 718 404 742 366 q 712 417 714 410 l 708 421 l 705 398 q 688 372 703 380 q 673 368 681 368 q 658 372 665 368 q 655 373 657 372 q 651 376 653 374 q 646 379 648 377 q 640 377 646 378 l 635 376 q 628 376 631 376 q 575 404 593 376 q 532 378 555 380 q 529 378 531 378 q 526 378 526 378 q 475 401 492 378 q 397 356 442 356 q 338 380 363 356 q 341 354 338 370 q 327 322 345 333 q 310 317 319 317 q 292 323 300 317 l 290 324 q 286 329 288 326 q 279 334 283 331 q 271 342 275 338 q 262 353 267 347 q 252 366 257 359 q 243 382 248 374 q 224 408 231 396 q 229 349 220 368 q 229 318 238 334 q 202 302 220 302 q 144 331 168 302 q 100 414 105 376 q 82 409 91 409 q 71 411 76 409 q 37 441 48 420 q 28 477 26 463 q 29 486 28 479 q 37 505 31 492 q 53 529 43 517 q 83 553 63 541 q 128 573 102 566 q 155 657 144 629 q 172 692 167 686 q 186 701 178 697 q 199 703 193 703 q 262 664 224 703 q 267 659 265 661 q 315 752 286 703 q 372 782 334 782 q 422 769 397 782 q 446 741 430 765 q 463 709 462 718 q 448 681 464 691 q 430 663 442 677 q 467 631 452 651 q 473 615 472 624 q 475 614 473 614 l 476 613 q 496 639 486 631 q 551 661 519 661 q 606 636 589 661 q 622 637 617 637 q 680 763 643 703 q 736 793 699 793 q 787 781 761 793 q 804 754 802 772 l 804 752 q 925 754 836 754 l 979 754 q 1016 757 998 754 q 1042 763 1034 760 l 1050 766 q 1062 768 1055 768 q 1085 758 1076 768 q 1098 740 1089 754 q 1108 724 1107 725 q 1114 690 1121 707 q 1106 675 1112 684 q 1134 652 1129 671 q 1135 645 1135 648 q 1148 646 1139 646 q 1192 627 1175 646 q 1218 652 1202 640 q 1282 675 1249 675 q 1329 663 1310 675 q 1367 625 1348 650 q 1388 575 1386 602 m 287 382 q 297 520 277 440 q 349 662 317 600 q 408 741 380 724 q 395 747 403 744 q 369 749 387 750 q 342 735 351 749 q 287 627 308 680 q 261 536 266 574 q 256 478 256 498 q 258 444 256 458 q 234 528 239 479 q 235 610 230 578 l 240 642 q 231 651 237 646 q 214 665 225 656 q 197 671 202 673 q 153 547 186 667 q 110 533 129 543 q 82 514 91 524 q 67 495 73 504 q 60 480 61 486 l 59 474 q 144 509 73 494 q 132 458 134 465 q 131 414 128 431 q 142 387 134 397 q 158 373 150 378 q 172 368 166 369 l 179 368 q 169 417 169 386 q 175 480 168 449 q 190 540 182 511 q 205 587 198 569 l 212 605 q 225 492 214 543 q 248 430 233 458 q 275 393 263 403 l 287 382 m 572 469 q 585 447 576 454 q 602 441 595 440 l 610 441 q 607 447 609 443 q 602 469 605 452 q 604 510 599 486 q 613 554 607 530 q 623 593 618 578 l 627 606 q 583 591 591 608 q 556 536 568 564 q 532 490 544 509 q 505 469 513 461 q 506 504 498 475 q 528 562 513 534 q 554 603 544 595 q 583 606 564 612 q 576 623 587 616 q 548 629 565 630 q 517 616 530 627 q 474 522 488 587 q 446 493 462 500 q 452 542 453 524 q 437 596 450 582 q 403 608 425 610 q 442 612 419 619 q 433 623 439 616 q 411 637 427 629 q 379 640 394 645 q 331 565 353 630 q 319 465 309 500 q 364 422 332 428 q 427 454 397 416 q 441 479 435 465 q 471 496 456 482 q 471 469 469 477 q 507 444 475 441 q 540 474 521 444 q 571 532 559 503 l 584 561 q 579 544 582 554 q 572 507 576 534 q 572 469 567 480 m 767 435 q 765 437 766 435 q 760 446 763 439 q 754 460 756 452 q 753 483 753 469 q 757 512 753 496 q 770 558 762 536 q 781 590 777 580 l 786 600 l 757 614 q 746 614 750 617 q 659 515 692 575 q 711 663 676 590 q 772 753 745 735 q 759 759 767 755 q 733 761 751 762 q 707 747 715 760 q 636 570 659 670 q 622 468 618 492 q 630 450 623 459 q 643 437 637 441 l 650 433 q 684 527 651 485 q 714 564 700 549 q 734 583 728 578 l 740 587 q 736 576 739 583 q 727 551 733 569 q 718 516 722 532 q 715 482 715 500 q 722 454 715 465 q 743 433 732 438 q 761 431 754 429 l 767 435 m 829 405 q 836 518 810 436 q 901 686 862 601 q 999 688 986 687 q 1034 702 1019 690 q 1056 726 1050 714 l 1062 736 q 979 723 1029 724 q 928 723 963 723 q 872 722 893 722 q 826 721 850 722 q 788 719 801 720 q 752 703 768 716 q 731 677 736 689 l 726 665 q 795 682 734 677 q 853 684 807 682 q 825 608 851 677 q 789 497 798 538 q 787 461 785 477 q 796 435 789 446 q 810 418 803 425 q 823 408 818 411 l 829 405 m 1163 521 q 1181 567 1179 549 q 1177 595 1183 586 q 1131 611 1164 623 q 1098 590 1114 605 q 1073 564 1082 576 l 1065 553 q 1103 644 1101 644 l 1084 644 q 1053 627 1060 640 q 1013 516 1034 576 q 1011 511 1012 515 q 1009 506 1010 508 q 977 487 990 494 q 997 547 984 511 q 1020 607 1010 583 l 1029 631 q 983 616 994 629 q 960 584 981 613 q 922 533 939 554 q 897 517 904 513 q 897 526 895 519 q 903 543 898 532 q 913 564 907 553 q 926 587 919 575 q 938 607 932 598 q 947 623 943 616 l 950 629 q 938 628 945 629 q 914 621 930 627 q 892 604 898 614 q 882 582 885 589 q 872 563 878 576 q 864 543 866 550 q 859 526 861 535 q 857 511 857 517 q 861 501 858 505 q 878 494 866 494 q 905 501 890 494 q 932 524 920 509 l 978 585 q 939 470 956 517 q 913 454 930 464 q 890 440 897 445 q 873 427 884 436 q 853 405 863 417 q 837 359 835 381 q 858 334 839 337 q 909 350 878 330 q 941 389 930 364 q 968 459 953 413 q 971 471 970 467 q 1003 488 987 480 q 979 409 984 435 q 983 381 975 396 q 1000 357 990 366 l 1008 347 q 1031 453 1004 362 q 1067 538 1046 504 q 1109 584 1082 565 q 1143 597 1135 603 q 1144 576 1147 592 q 1135 547 1141 561 q 1101 506 1122 521 q 1066 490 1080 491 l 1053 488 q 1060 484 1055 486 q 1078 477 1064 481 q 1104 474 1091 473 q 1133 487 1116 475 q 1163 521 1149 498 m 1272 610 q 1306 625 1291 631 q 1310 602 1319 620 q 1295 585 1304 593 q 1275 575 1286 577 q 1256 574 1263 572 l 1249 575 q 1252 569 1250 572 q 1264 559 1255 565 q 1285 553 1273 553 q 1322 570 1310 555 q 1333 607 1335 586 q 1318 631 1333 621 q 1283 643 1304 642 q 1237 627 1262 644 q 1201 586 1216 611 q 1185 533 1185 562 q 1208 487 1185 505 q 1246 478 1224 475 q 1289 493 1269 481 q 1321 517 1310 504 q 1326 528 1324 521 q 1329 541 1329 536 l 1329 547 q 1275 504 1313 521 q 1227 503 1238 487 q 1233 552 1218 519 q 1272 610 1249 585 m 367 551 q 381 508 368 528 q 413 481 394 488 q 393 439 404 449 q 367 434 381 430 q 354 472 355 437 q 361 532 353 506 q 367 551 363 541 m 645 143 q 630 148 635 143 q 625 161 625 153 q 628 175 625 170 q 637 185 631 180 q 651 189 644 189 q 666 184 661 189 q 671 172 671 180 q 667 157 671 164 q 659 147 664 151 q 645 143 652 143 m 1145 94 l 241 94 l 271 241 l 1175 241 l 1145 94 m 1118 202 l 1055 202 l 1052 189 l 1075 189 l 1063 130 l 1080 130 l 1092 189 l 1115 189 l 1118 202 m 962 202 l 947 130 l 964 130 l 972 175 l 1000 130 l 1013 130 l 1027 202 l 1011 202 l 1002 157 l 975 202 l 962 202 m 850 182 q 844 160 844 172 q 848 144 844 151 q 861 133 852 137 q 879 129 869 129 q 903 135 892 129 q 918 150 914 142 q 924 172 924 161 q 920 189 924 182 q 907 199 916 195 q 888 203 899 203 q 865 198 874 203 q 850 182 854 191 m 773 202 l 759 130 l 775 130 l 781 157 l 814 157 l 817 170 l 783 170 l 787 189 l 825 189 l 827 202 l 773 202 m 614 182 q 608 160 608 174 q 612 144 608 151 q 625 133 616 137 q 643 129 633 129 q 667 135 656 129 q 682 150 678 142 q 688 172 688 159 q 684 189 688 182 q 671 199 680 195 q 652 203 663 203 q 629 198 638 203 q 614 182 618 191 m 517 202 l 504 202 l 490 130 l 505 130 l 513 174 l 528 138 l 536 138 l 564 173 l 555 130 l 570 130 l 585 202 l 570 202 l 535 157 l 517 202 m 416 202 l 402 130 l 458 130 l 460 144 l 421 144 l 425 160 l 458 160 l 460 173 l 427 173 l 430 189 l 468 189 l 471 202 l 416 202 m 343 202 l 313 202 l 299 130 l 334 130 q 357 136 347 130 q 373 150 366 140 q 378 172 378 158 q 374 188 378 180 q 362 199 370 195 q 343 202 355 202 m 881 143 q 866 148 871 143 q 861 161 861 153 q 864 175 861 170 q 873 185 867 180 q 887 189 880 189 q 902 184 897 189 q 907 172 907 180 q 903 157 907 164 q 895 147 900 151 q 881 143 888 143 m 349 147 q 334 144 342 144 l 318 144 l 327 189 l 341 189 q 357 184 351 189 q 362 172 362 178 q 359 157 362 164 q 349 147 355 150 z "},"#":{"ha":1415,"x_min":26,"x_max":1390,"o":"m 865 399 q 932 450 883 426 q 905 384 916 406 q 880 358 893 363 q 854 365 858 351 q 865 399 850 378 m 390 567 q 415 553 408 595 q 416 495 421 517 l 416 494 q 390 527 399 504 q 390 567 380 549 m 1388 575 q 1378 530 1390 551 q 1383 513 1383 523 q 1367 462 1383 479 q 1319 427 1350 442 q 1261 412 1289 412 q 1212 429 1232 412 q 1195 446 1203 435 q 1118 410 1162 410 q 1085 415 1100 410 q 1084 413 1085 414 q 1084 410 1084 411 q 1062 321 1061 335 q 1061 301 1065 311 q 1048 286 1057 292 q 1031 281 1041 281 q 1010 290 1020 281 q 983 324 995 303 q 951 290 968 303 q 889 267 919 267 q 835 300 863 267 q 812 334 823 313 q 806 368 804 348 q 804 370 806 369 q 802 372 803 371 q 777 366 790 366 q 718 404 742 366 q 712 417 714 410 l 708 421 l 705 398 q 688 372 703 380 q 673 368 681 368 q 658 372 665 368 q 655 373 657 372 q 651 376 653 374 q 646 379 648 377 q 640 377 646 378 l 635 376 q 628 376 631 376 q 575 404 593 376 q 532 378 555 380 q 529 378 531 378 q 526 378 526 378 q 475 401 492 378 q 397 356 442 356 q 338 380 363 356 q 341 354 338 370 q 327 322 345 333 q 310 317 319 317 q 292 323 300 317 l 290 324 q 286 329 288 326 q 279 334 283 331 q 271 342 275 338 q 262 353 267 347 q 252 366 257 359 q 243 382 248 374 q 224 408 231 396 q 229 349 220 368 q 229 318 238 334 q 202 302 220 302 q 144 331 168 302 q 100 414 105 376 q 82 409 91 409 q 71 411 76 409 q 37 441 48 420 q 28 477 26 463 q 29 486 28 479 q 37 505 31 492 q 53 529 43 517 q 83 553 63 541 q 128 573 102 566 q 155 657 144 629 q 172 692 167 686 q 186 701 178 697 q 199 703 193 703 q 262 664 224 703 q 267 659 265 661 q 315 752 286 703 q 372 782 334 782 q 422 769 397 782 q 446 741 430 765 q 463 709 462 718 q 448 681 464 691 q 430 663 442 677 q 467 631 452 651 q 473 615 472 624 q 475 614 473 614 l 476 613 q 496 639 486 631 q 551 661 519 661 q 606 636 589 661 q 622 637 617 637 q 680 763 643 703 q 736 793 699 793 q 787 781 761 793 q 804 754 802 772 l 804 752 q 925 754 836 754 l 979 754 q 1016 757 998 754 q 1042 763 1034 760 l 1050 766 q 1062 768 1055 768 q 1085 758 1076 768 q 1098 740 1089 754 q 1108 724 1107 725 q 1114 690 1121 707 q 1106 675 1112 684 q 1134 652 1129 671 q 1135 645 1135 648 q 1148 646 1139 646 q 1192 627 1175 646 q 1218 652 1202 640 q 1282 675 1249 675 q 1329 663 1310 675 q 1367 625 1348 650 q 1388 575 1386 602 m 287 382 q 297 520 277 440 q 349 662 317 600 q 408 741 380 724 q 395 747 403 744 q 369 749 387 750 q 342 735 351 749 q 287 627 308 680 q 261 536 266 574 q 256 478 256 498 q 258 444 256 458 q 234 528 239 479 q 235 610 230 578 l 240 642 q 231 651 237 646 q 214 665 225 656 q 197 671 202 673 q 153 547 186 667 q 110 533 129 543 q 82 514 91 524 q 67 495 73 504 q 60 480 61 486 l 59 474 q 144 509 73 494 q 132 458 134 465 q 131 414 128 431 q 142 387 134 397 q 158 373 150 378 q 172 368 166 369 l 179 368 q 169 417 169 386 q 175 480 168 449 q 190 540 182 511 q 205 587 198 569 l 212 605 q 225 492 214 543 q 248 430 233 458 q 275 393 263 403 l 287 382 m 572 469 q 585 447 576 454 q 602 441 595 440 l 610 441 q 607 447 609 443 q 602 469 605 452 q 604 510 599 486 q 613 554 607 530 q 623 593 618 578 l 627 606 q 583 591 591 608 q 556 536 568 564 q 532 490 544 509 q 505 469 513 461 q 506 504 498 475 q 528 562 513 534 q 554 603 544 595 q 583 606 564 612 q 576 623 587 616 q 548 629 565 630 q 517 616 530 627 q 474 522 488 587 q 446 493 462 500 q 452 542 453 524 q 437 596 450 582 q 403 608 425 610 q 442 612 419 619 q 433 623 439 616 q 411 637 427 629 q 379 640 394 645 q 331 565 353 630 q 319 465 309 500 q 364 422 332 428 q 427 454 397 416 q 441 479 435 465 q 471 496 456 482 q 471 469 469 477 q 507 444 475 441 q 540 474 521 444 q 571 532 559 503 l 584 561 q 579 544 582 554 q 572 507 576 534 q 572 469 567 480 m 767 435 q 765 437 766 435 q 760 446 763 439 q 754 460 756 452 q 753 483 753 469 q 757 512 753 496 q 770 558 762 536 q 781 590 777 580 l 786 600 l 757 614 q 746 614 750 617 q 659 515 692 575 q 711 663 676 590 q 772 753 745 735 q 759 759 767 755 q 733 761 751 762 q 707 747 715 760 q 636 570 659 670 q 622 468 618 492 q 630 450 623 459 q 643 437 637 441 l 650 433 q 684 527 651 485 q 714 564 700 549 q 734 583 728 578 l 740 587 q 736 576 739 583 q 727 551 733 569 q 718 516 722 532 q 715 482 715 500 q 722 454 715 465 q 743 433 732 438 q 761 431 754 429 l 767 435 m 829 405 q 836 518 810 436 q 901 686 862 601 q 999 688 986 687 q 1034 702 1019 690 q 1056 726 1050 714 l 1062 736 q 979 723 1029 724 q 928 723 963 723 q 872 722 893 722 q 826 721 850 722 q 788 719 801 720 q 752 703 768 716 q 731 677 736 689 l 726 665 q 795 682 734 677 q 853 684 807 682 q 825 608 851 677 q 789 497 798 538 q 787 461 785 477 q 796 435 789 446 q 810 418 803 425 q 823 408 818 411 l 829 405 m 1163 521 q 1181 567 1179 549 q 1177 595 1183 586 q 1131 611 1164 623 q 1098 590 1114 605 q 1073 564 1082 576 l 1065 553 q 1103 644 1101 644 l 1084 644 q 1053 627 1060 640 q 1013 516 1034 576 q 1011 511 1012 515 q 1009 506 1010 508 q 977 487 990 494 q 997 547 984 511 q 1020 607 1010 583 l 1029 631 q 983 616 994 629 q 960 584 981 613 q 922 533 939 554 q 897 517 904 513 q 897 526 895 519 q 903 543 898 532 q 913 564 907 553 q 926 587 919 575 q 938 607 932 598 q 947 623 943 616 l 950 629 q 938 628 945 629 q 914 621 930 627 q 892 604 898 614 q 882 582 885 589 q 872 563 878 576 q 864 543 866 550 q 859 526 861 535 q 857 511 857 517 q 861 501 858 505 q 878 494 866 494 q 905 501 890 494 q 932 524 920 509 l 978 585 q 939 470 956 517 q 913 454 930 464 q 890 440 897 445 q 873 427 884 436 q 853 405 863 417 q 837 359 835 381 q 858 334 839 337 q 909 350 878 330 q 941 389 930 364 q 968 459 953 413 q 971 471 970 467 q 1003 488 987 480 q 979 409 984 435 q 983 381 975 396 q 1000 357 990 366 l 1008 347 q 1031 453 1004 362 q 1067 538 1046 504 q 1109 584 1082 565 q 1143 597 1135 603 q 1144 576 1147 592 q 1135 547 1141 561 q 1101 506 1122 521 q 1066 490 1080 491 l 1053 488 q 1060 484 1055 486 q 1078 477 1064 481 q 1104 474 1091 473 q 1133 487 1116 475 q 1163 521 1149 498 m 1272 610 q 1306 625 1291 631 q 1310 602 1319 620 q 1295 585 1304 593 q 1275 575 1286 577 q 1256 574 1263 572 l 1249 575 q 1252 569 1250 572 q 1264 559 1255 565 q 1285 553 1273 553 q 1322 570 1310 555 q 1333 607 1335 586 q 1318 631 1333 621 q 1283 643 1304 642 q 1237 627 1262 644 q 1201 586 1216 611 q 1185 533 1185 562 q 1208 487 1185 505 q 1246 478 1224 475 q 1289 493 1269 481 q 1321 517 1310 504 q 1326 528 1324 521 q 1329 541 1329 536 l 1329 547 q 1275 504 1313 521 q 1227 503 1238 487 q 1233 552 1218 519 q 1272 610 1249 585 m 367 551 q 381 508 368 528 q 413 481 394 488 q 393 439 404 449 q 367 434 381 430 q 354 472 355 437 q 361 532 353 506 q 367 551 363 541 m 645 143 q 630 148 635 143 q 625 161 625 153 q 628 175 625 170 q 637 185 631 180 q 651 189 644 189 q 666 184 661 189 q 671 172 671 180 q 667 157 671 164 q 659 147 664 151 q 645 143 652 143 m 1145 94 l 241 94 l 271 241 l 1175 241 l 1145 94 m 1118 202 l 1055 202 l 1052 189 l 1075 189 l 1063 130 l 1080 130 l 1092 189 l 1115 189 l 1118 202 m 962 202 l 947 130 l 964 130 l 972 175 l 1000 130 l 1013 130 l 1027 202 l 1011 202 l 1002 157 l 975 202 l 962 202 m 850 182 q 844 160 844 172 q 848 144 844 151 q 861 133 852 137 q 879 129 869 129 q 903 135 892 129 q 918 150 914 142 q 924 172 924 161 q 920 189 924 182 q 907 199 916 195 q 888 203 899 203 q 865 198 874 203 q 850 182 854 191 m 773 202 l 759 130 l 775 130 l 781 157 l 814 157 l 817 170 l 783 170 l 787 189 l 825 189 l 827 202 l 773 202 m 614 182 q 608 160 608 174 q 612 144 608 151 q 625 133 616 137 q 643 129 633 129 q 667 135 656 129 q 682 150 678 142 q 688 172 688 159 q 684 189 688 182 q 671 199 680 195 q 652 203 663 203 q 629 198 638 203 q 614 182 618 191 m 517 202 l 504 202 l 490 130 l 505 130 l 513 174 l 528 138 l 536 138 l 564 173 l 555 130 l 570 130 l 585 202 l 570 202 l 535 157 l 517 202 m 416 202 l 402 130 l 458 130 l 460 144 l 421 144 l 425 160 l 458 160 l 460 173 l 427 173 l 430 189 l 468 189 l 471 202 l 416 202 m 343 202 l 313 202 l 299 130 l 334 130 q 357 136 347 130 q 373 150 366 140 q 378 172 378 158 q 374 188 378 180 q 362 199 370 195 q 343 202 355 202 m 881 143 q 866 148 871 143 q 861 161 861 153 q 864 175 861 170 q 873 185 867 180 q 887 189 880 189 q 902 184 897 189 q 907 172 907 180 q 903 157 907 164 q 895 147 900 151 q 881 143 888 143 m 349 147 q 334 144 342 144 l 318 144 l 327 189 l 341 189 q 357 184 351 189 q 362 172 362 178 q 359 157 362 164 q 349 147 355 150 z "},"$":{"ha":1415,"x_min":26,"x_max":1390,"o":"m 865 399 q 932 450 883 426 q 905 384 916 406 q 880 358 893 363 q 854 365 858 351 q 865 399 850 378 m 390 567 q 415 553 408 595 q 416 495 421 517 l 416 494 q 390 527 399 504 q 390 567 380 549 m 1388 575 q 1378 530 1390 551 q 1383 513 1383 523 q 1367 462 1383 479 q 1319 427 1350 442 q 1261 412 1289 412 q 1212 429 1232 412 q 1195 446 1203 435 q 1118 410 1162 410 q 1085 415 1100 410 q 1084 413 1085 414 q 1084 410 1084 411 q 1062 321 1061 335 q 1061 301 1065 311 q 1048 286 1057 292 q 1031 281 1041 281 q 1010 290 1020 281 q 983 324 995 303 q 951 290 968 303 q 889 267 919 267 q 835 300 863 267 q 812 334 823 313 q 806 368 804 348 q 804 370 806 369 q 802 372 803 371 q 777 366 790 366 q 718 404 742 366 q 712 417 714 410 l 708 421 l 705 398 q 688 372 703 380 q 673 368 681 368 q 658 372 665 368 q 655 373 657 372 q 651 376 653 374 q 646 379 648 377 q 640 377 646 378 l 635 376 q 628 376 631 376 q 575 404 593 376 q 532 378 555 380 q 529 378 531 378 q 526 378 526 378 q 475 401 492 378 q 397 356 442 356 q 338 380 363 356 q 341 354 338 370 q 327 322 345 333 q 310 317 319 317 q 292 323 300 317 l 290 324 q 286 329 288 326 q 279 334 283 331 q 271 342 275 338 q 262 353 267 347 q 252 366 257 359 q 243 382 248 374 q 224 408 231 396 q 229 349 220 368 q 229 318 238 334 q 202 302 220 302 q 144 331 168 302 q 100 414 105 376 q 82 409 91 409 q 71 411 76 409 q 37 441 48 420 q 28 477 26 463 q 29 486 28 479 q 37 505 31 492 q 53 529 43 517 q 83 553 63 541 q 128 573 102 566 q 155 657 144 629 q 172 692 167 686 q 186 701 178 697 q 199 703 193 703 q 262 664 224 703 q 267 659 265 661 q 315 752 286 703 q 372 782 334 782 q 422 769 397 782 q 446 741 430 765 q 463 709 462 718 q 448 681 464 691 q 430 663 442 677 q 467 631 452 651 q 473 615 472 624 q 475 614 473 614 l 476 613 q 496 639 486 631 q 551 661 519 661 q 606 636 589 661 q 622 637 617 637 q 680 763 643 703 q 736 793 699 793 q 787 781 761 793 q 804 754 802 772 l 804 752 q 925 754 836 754 l 979 754 q 1016 757 998 754 q 1042 763 1034 760 l 1050 766 q 1062 768 1055 768 q 1085 758 1076 768 q 1098 740 1089 754 q 1108 724 1107 725 q 1114 690 1121 707 q 1106 675 1112 684 q 1134 652 1129 671 q 1135 645 1135 648 q 1148 646 1139 646 q 1192 627 1175 646 q 1218 652 1202 640 q 1282 675 1249 675 q 1329 663 1310 675 q 1367 625 1348 650 q 1388 575 1386 602 m 287 382 q 297 520 277 440 q 349 662 317 600 q 408 741 380 724 q 395 747 403 744 q 369 749 387 750 q 342 735 351 749 q 287 627 308 680 q 261 536 266 574 q 256 478 256 498 q 258 444 256 458 q 234 528 239 479 q 235 610 230 578 l 240 642 q 231 651 237 646 q 214 665 225 656 q 197 671 202 673 q 153 547 186 667 q 110 533 129 543 q 82 514 91 524 q 67 495 73 504 q 60 480 61 486 l 59 474 q 144 509 73 494 q 132 458 134 465 q 131 414 128 431 q 142 387 134 397 q 158 373 150 378 q 172 368 166 369 l 179 368 q 169 417 169 386 q 175 480 168 449 q 190 540 182 511 q 205 587 198 569 l 212 605 q 225 492 214 543 q 248 430 233 458 q 275 393 263 403 l 287 382 m 572 469 q 585 447 576 454 q 602 441 595 440 l 610 441 q 607 447 609 443 q 602 469 605 452 q 604 510 599 486 q 613 554 607 530 q 623 593 618 578 l 627 606 q 583 591 591 608 q 556 536 568 564 q 532 490 544 509 q 505 469 513 461 q 506 504 498 475 q 528 562 513 534 q 554 603 544 595 q 583 606 564 612 q 576 623 587 616 q 548 629 565 630 q 517 616 530 627 q 474 522 488 587 q 446 493 462 500 q 452 542 453 524 q 437 596 450 582 q 403 608 425 610 q 442 612 419 619 q 433 623 439 616 q 411 637 427 629 q 379 640 394 645 q 331 565 353 630 q 319 465 309 500 q 364 422 332 428 q 427 454 397 416 q 441 479 435 465 q 471 496 456 482 q 471 469 469 477 q 507 444 475 441 q 540 474 521 444 q 571 532 559 503 l 584 561 q 579 544 582 554 q 572 507 576 534 q 572 469 567 480 m 767 435 q 765 437 766 435 q 760 446 763 439 q 754 460 756 452 q 753 483 753 469 q 757 512 753 496 q 770 558 762 536 q 781 590 777 580 l 786 600 l 757 614 q 746 614 750 617 q 659 515 692 575 q 711 663 676 590 q 772 753 745 735 q 759 759 767 755 q 733 761 751 762 q 707 747 715 760 q 636 570 659 670 q 622 468 618 492 q 630 450 623 459 q 643 437 637 441 l 650 433 q 684 527 651 485 q 714 564 700 549 q 734 583 728 578 l 740 587 q 736 576 739 583 q 727 551 733 569 q 718 516 722 532 q 715 482 715 500 q 722 454 715 465 q 743 433 732 438 q 761 431 754 429 l 767 435 m 829 405 q 836 518 810 436 q 901 686 862 601 q 999 688 986 687 q 1034 702 1019 690 q 1056 726 1050 714 l 1062 736 q 979 723 1029 724 q 928 723 963 723 q 872 722 893 722 q 826 721 850 722 q 788 719 801 720 q 752 703 768 716 q 731 677 736 689 l 726 665 q 795 682 734 677 q 853 684 807 682 q 825 608 851 677 q 789 497 798 538 q 787 461 785 477 q 796 435 789 446 q 810 418 803 425 q 823 408 818 411 l 829 405 m 1163 521 q 1181 567 1179 549 q 1177 595 1183 586 q 1131 611 1164 623 q 1098 590 1114 605 q 1073 564 1082 576 l 1065 553 q 1103 644 1101 644 l 1084 644 q 1053 627 1060 640 q 1013 516 1034 576 q 1011 511 1012 515 q 1009 506 1010 508 q 977 487 990 494 q 997 547 984 511 q 1020 607 1010 583 l 1029 631 q 983 616 994 629 q 960 584 981 613 q 922 533 939 554 q 897 517 904 513 q 897 526 895 519 q 903 543 898 532 q 913 564 907 553 q 926 587 919 575 q 938 607 932 598 q 947 623 943 616 l 950 629 q 938 628 945 629 q 914 621 930 627 q 892 604 898 614 q 882 582 885 589 q 872 563 878 576 q 864 543 866 550 q 859 526 861 535 q 857 511 857 517 q 861 501 858 505 q 878 494 866 494 q 905 501 890 494 q 932 524 920 509 l 978 585 q 939 470 956 517 q 913 454 930 464 q 890 440 897 445 q 873 427 884 436 q 853 405 863 417 q 837 359 835 381 q 858 334 839 337 q 909 350 878 330 q 941 389 930 364 q 968 459 953 413 q 971 471 970 467 q 1003 488 987 480 q 979 409 984 435 q 983 381 975 396 q 1000 357 990 366 l 1008 347 q 1031 453 1004 362 q 1067 538 1046 504 q 1109 584 1082 565 q 1143 597 1135 603 q 1144 576 1147 592 q 1135 547 1141 561 q 1101 506 1122 521 q 1066 490 1080 491 l 1053 488 q 1060 484 1055 486 q 1078 477 1064 481 q 1104 474 1091 473 q 1133 487 1116 475 q 1163 521 1149 498 m 1272 610 q 1306 625 1291 631 q 1310 602 1319 620 q 1295 585 1304 593 q 1275 575 1286 577 q 1256 574 1263 572 l 1249 575 q 1252 569 1250 572 q 1264 559 1255 565 q 1285 553 1273 553 q 1322 570 1310 555 q 1333 607 1335 586 q 1318 631 1333 621 q 1283 643 1304 642 q 1237 627 1262 644 q 1201 586 1216 611 q 1185 533 1185 562 q 1208 487 1185 505 q 1246 478 1224 475 q 1289 493 1269 481 q 1321 517 1310 504 q 1326 528 1324 521 q 1329 541 1329 536 l 1329 547 q 1275 504 1313 521 q 1227 503 1238 487 q 1233 552 1218 519 q 1272 610 1249 585 m 367 551 q 381 508 368 528 q 413 481 394 488 q 393 439 404 449 q 367 434 381 430 q 354 472 355 437 q 361 532 353 506 q 367 551 363 541 m 645 143 q 630 148 635 143 q 625 161 625 153 q 628 175 625 170 q 637 185 631 180 q 651 189 644 189 q 666 184 661 189 q 671 172 671 180 q 667 157 671 164 q 659 147 664 151 q 645 143 652 143 m 1145 94 l 241 94 l 271 241 l 1175 241 l 1145 94 m 1118 202 l 1055 202 l 1052 189 l 1075 189 l 1063 130 l 1080 130 l 1092 189 l 1115 189 l 1118 202 m 962 202 l 947 130 l 964 130 l 972 175 l 1000 130 l 1013 130 l 1027 202 l 1011 202 l 1002 157 l 975 202 l 962 202 m 850 182 q 844 160 844 172 q 848 144 844 151 q 861 133 852 137 q 879 129 869 129 q 903 135 892 129 q 918 150 914 142 q 924 172 924 161 q 920 189 924 182 q 907 199 916 195 q 888 203 899 203 q 865 198 874 203 q 850 182 854 191 m 773 202 l 759 130 l 775 130 l 781 157 l 814 157 l 817 170 l 783 170 l 787 189 l 825 189 l 827 202 l 773 202 m 614 182 q 608 160 608 174 q 612 144 608 151 q 625 133 616 137 q 643 129 633 129 q 667 135 656 129 q 682 150 678 142 q 688 172 688 159 q 684 189 688 182 q 671 199 680 195 q 652 203 663 203 q 629 198 638 203 q 614 182 618 191 m 517 202 l 504 202 l 490 130 l 505 130 l 513 174 l 528 138 l 536 138 l 564 173 l 555 130 l 570 130 l 585 202 l 570 202 l 535 157 l 517 202 m 416 202 l 402 130 l 458 130 l 460 144 l 421 144 l 425 160 l 458 160 l 460 173 l 427 173 l 430 189 l 468 189 l 471 202 l 416 202 m 343 202 l 313 202 l 299 130 l 334 130 q 357 136 347 130 q 373 150 366 140 q 378 172 378 158 q 374 188 378 180 q 362 199 370 195 q 343 202 355 202 m 881 143 q 866 148 871 143 q 861 161 861 153 q 864 175 861 170 q 873 185 867 180 q 887 189 880 189 q 902 184 897 189 q 907 172 907 180 q 903 157 907 164 q 895 147 900 151 q 881 143 888 143 m 349 147 q 334 144 342 144 l 318 144 l 327 189 l 341 189 q 357 184 351 189 q 362 172 362 178 q 359 157 362 164 q 349 147 355 150 z "},"%":{"ha":1415,"x_min":26,"x_max":1390,"o":"m 865 399 q 932 450 883 426 q 905 384 916 406 q 880 358 893 363 q 854 365 858 351 q 865 399 850 378 m 390 567 q 415 553 408 595 q 416 495 421 517 l 416 494 q 390 527 399 504 q 390 567 380 549 m 1388 575 q 1378 530 1390 551 q 1383 513 1383 523 q 1367 462 1383 479 q 1319 427 1350 442 q 1261 412 1289 412 q 1212 429 1232 412 q 1195 446 1203 435 q 1118 410 1162 410 q 1085 415 1100 410 q 1084 413 1085 414 q 1084 410 1084 411 q 1062 321 1061 335 q 1061 301 1065 311 q 1048 286 1057 292 q 1031 281 1041 281 q 1010 290 1020 281 q 983 324 995 303 q 951 290 968 303 q 889 267 919 267 q 835 300 863 267 q 812 334 823 313 q 806 368 804 348 q 804 370 806 369 q 802 372 803 371 q 777 366 790 366 q 718 404 742 366 q 712 417 714 410 l 708 421 l 705 398 q 688 372 703 380 q 673 368 681 368 q 658 372 665 368 q 655 373 657 372 q 651 376 653 374 q 646 379 648 377 q 640 377 646 378 l 635 376 q 628 376 631 376 q 575 404 593 376 q 532 378 555 380 q 529 378 531 378 q 526 378 526 378 q 475 401 492 378 q 397 356 442 356 q 338 380 363 356 q 341 354 338 370 q 327 322 345 333 q 310 317 319 317 q 292 323 300 317 l 290 324 q 286 329 288 326 q 279 334 283 331 q 271 342 275 338 q 262 353 267 347 q 252 366 257 359 q 243 382 248 374 q 224 408 231 396 q 229 349 220 368 q 229 318 238 334 q 202 302 220 302 q 144 331 168 302 q 100 414 105 376 q 82 409 91 409 q 71 411 76 409 q 37 441 48 420 q 28 477 26 463 q 29 486 28 479 q 37 505 31 492 q 53 529 43 517 q 83 553 63 541 q 128 573 102 566 q 155 657 144 629 q 172 692 167 686 q 186 701 178 697 q 199 703 193 703 q 262 664 224 703 q 267 659 265 661 q 315 752 286 703 q 372 782 334 782 q 422 769 397 782 q 446 741 430 765 q 463 709 462 718 q 448 681 464 691 q 430 663 442 677 q 467 631 452 651 q 473 615 472 624 q 475 614 473 614 l 476 613 q 496 639 486 631 q 551 661 519 661 q 606 636 589 661 q 622 637 617 637 q 680 763 643 703 q 736 793 699 793 q 787 781 761 793 q 804 754 802 772 l 804 752 q 925 754 836 754 l 979 754 q 1016 757 998 754 q 1042 763 1034 760 l 1050 766 q 1062 768 1055 768 q 1085 758 1076 768 q 1098 740 1089 754 q 1108 724 1107 725 q 1114 690 1121 707 q 1106 675 1112 684 q 1134 652 1129 671 q 1135 645 1135 648 q 1148 646 1139 646 q 1192 627 1175 646 q 1218 652 1202 640 q 1282 675 1249 675 q 1329 663 1310 675 q 1367 625 1348 650 q 1388 575 1386 602 m 287 382 q 297 520 277 440 q 349 662 317 600 q 408 741 380 724 q 395 747 403 744 q 369 749 387 750 q 342 735 351 749 q 287 627 308 680 q 261 536 266 574 q 256 478 256 498 q 258 444 256 458 q 234 528 239 479 q 235 610 230 578 l 240 642 q 231 651 237 646 q 214 665 225 656 q 197 671 202 673 q 153 547 186 667 q 110 533 129 543 q 82 514 91 524 q 67 495 73 504 q 60 480 61 486 l 59 474 q 144 509 73 494 q 132 458 134 465 q 131 414 128 431 q 142 387 134 397 q 158 373 150 378 q 172 368 166 369 l 179 368 q 169 417 169 386 q 175 480 168 449 q 190 540 182 511 q 205 587 198 569 l 212 605 q 225 492 214 543 q 248 430 233 458 q 275 393 263 403 l 287 382 m 572 469 q 585 447 576 454 q 602 441 595 440 l 610 441 q 607 447 609 443 q 602 469 605 452 q 604 510 599 486 q 613 554 607 530 q 623 593 618 578 l 627 606 q 583 591 591 608 q 556 536 568 564 q 532 490 544 509 q 505 469 513 461 q 506 504 498 475 q 528 562 513 534 q 554 603 544 595 q 583 606 564 612 q 576 623 587 616 q 548 629 565 630 q 517 616 530 627 q 474 522 488 587 q 446 493 462 500 q 452 542 453 524 q 437 596 450 582 q 403 608 425 610 q 442 612 419 619 q 433 623 439 616 q 411 637 427 629 q 379 640 394 645 q 331 565 353 630 q 319 465 309 500 q 364 422 332 428 q 427 454 397 416 q 441 479 435 465 q 471 496 456 482 q 471 469 469 477 q 507 444 475 441 q 540 474 521 444 q 571 532 559 503 l 584 561 q 579 544 582 554 q 572 507 576 534 q 572 469 567 480 m 767 435 q 765 437 766 435 q 760 446 763 439 q 754 460 756 452 q 753 483 753 469 q 757 512 753 496 q 770 558 762 536 q 781 590 777 580 l 786 600 l 757 614 q 746 614 750 617 q 659 515 692 575 q 711 663 676 590 q 772 753 745 735 q 759 759 767 755 q 733 761 751 762 q 707 747 715 760 q 636 570 659 670 q 622 468 618 492 q 630 450 623 459 q 643 437 637 441 l 650 433 q 684 527 651 485 q 714 564 700 549 q 734 583 728 578 l 740 587 q 736 576 739 583 q 727 551 733 569 q 718 516 722 532 q 715 482 715 500 q 722 454 715 465 q 743 433 732 438 q 761 431 754 429 l 767 435 m 829 405 q 836 518 810 436 q 901 686 862 601 q 999 688 986 687 q 1034 702 1019 690 q 1056 726 1050 714 l 1062 736 q 979 723 1029 724 q 928 723 963 723 q 872 722 893 722 q 826 721 850 722 q 788 719 801 720 q 752 703 768 716 q 731 677 736 689 l 726 665 q 795 682 734 677 q 853 684 807 682 q 825 608 851 677 q 789 497 798 538 q 787 461 785 477 q 796 435 789 446 q 810 418 803 425 q 823 408 818 411 l 829 405 m 1163 521 q 1181 567 1179 549 q 1177 595 1183 586 q 1131 611 1164 623 q 1098 590 1114 605 q 1073 564 1082 576 l 1065 553 q 1103 644 1101 644 l 1084 644 q 1053 627 1060 640 q 1013 516 1034 576 q 1011 511 1012 515 q 1009 506 1010 508 q 977 487 990 494 q 997 547 984 511 q 1020 607 1010 583 l 1029 631 q 983 616 994 629 q 960 584 981 613 q 922 533 939 554 q 897 517 904 513 q 897 526 895 519 q 903 543 898 532 q 913 564 907 553 q 926 587 919 575 q 938 607 932 598 q 947 623 943 616 l 950 629 q 938 628 945 629 q 914 621 930 627 q 892 604 898 614 q 882 582 885 589 q 872 563 878 576 q 864 543 866 550 q 859 526 861 535 q 857 511 857 517 q 861 501 858 505 q 878 494 866 494 q 905 501 890 494 q 932 524 920 509 l 978 585 q 939 470 956 517 q 913 454 930 464 q 890 440 897 445 q 873 427 884 436 q 853 405 863 417 q 837 359 835 381 q 858 334 839 337 q 909 350 878 330 q 941 389 930 364 q 968 459 953 413 q 971 471 970 467 q 1003 488 987 480 q 979 409 984 435 q 983 381 975 396 q 1000 357 990 366 l 1008 347 q 1031 453 1004 362 q 1067 538 1046 504 q 1109 584 1082 565 q 1143 597 1135 603 q 1144 576 1147 592 q 1135 547 1141 561 q 1101 506 1122 521 q 1066 490 1080 491 l 1053 488 q 1060 484 1055 486 q 1078 477 1064 481 q 1104 474 1091 473 q 1133 487 1116 475 q 1163 521 1149 498 m 1272 610 q 1306 625 1291 631 q 1310 602 1319 620 q 1295 585 1304 593 q 1275 575 1286 577 q 1256 574 1263 572 l 1249 575 q 1252 569 1250 572 q 1264 559 1255 565 q 1285 553 1273 553 q 1322 570 1310 555 q 1333 607 1335 586 q 1318 631 1333 621 q 1283 643 1304 642 q 1237 627 1262 644 q 1201 586 1216 611 q 1185 533 1185 562 q 1208 487 1185 505 q 1246 478 1224 475 q 1289 493 1269 481 q 1321 517 1310 504 q 1326 528 1324 521 q 1329 541 1329 536 l 1329 547 q 1275 504 1313 521 q 1227 503 1238 487 q 1233 552 1218 519 q 1272 610 1249 585 m 367 551 q 381 508 368 528 q 413 481 394 488 q 393 439 404 449 q 367 434 381 430 q 354 472 355 437 q 361 532 353 506 q 367 551 363 541 m 645 143 q 630 148 635 143 q 625 161 625 153 q 628 175 625 170 q 637 185 631 180 q 651 189 644 189 q 666 184 661 189 q 671 172 671 180 q 667 157 671 164 q 659 147 664 151 q 645 143 652 143 m 1145 94 l 241 94 l 271 241 l 1175 241 l 1145 94 m 1118 202 l 1055 202 l 1052 189 l 1075 189 l 1063 130 l 1080 130 l 1092 189 l 1115 189 l 1118 202 m 962 202 l 947 130 l 964 130 l 972 175 l 1000 130 l 1013 130 l 1027 202 l 1011 202 l 1002 157 l 975 202 l 962 202 m 850 182 q 844 160 844 172 q 848 144 844 151 q 861 133 852 137 q 879 129 869 129 q 903 135 892 129 q 918 150 914 142 q 924 172 924 161 q 920 189 924 182 q 907 199 916 195 q 888 203 899 203 q 865 198 874 203 q 850 182 854 191 m 773 202 l 759 130 l 775 130 l 781 157 l 814 157 l 817 170 l 783 170 l 787 189 l 825 189 l 827 202 l 773 202 m 614 182 q 608 160 608 174 q 612 144 608 151 q 625 133 616 137 q 643 129 633 129 q 667 135 656 129 q 682 150 678 142 q 688 172 688 159 q 684 189 688 182 q 671 199 680 195 q 652 203 663 203 q 629 198 638 203 q 614 182 618 191 m 517 202 l 504 202 l 490 130 l 505 130 l 513 174 l 528 138 l 536 138 l 564 173 l 555 130 l 570 130 l 585 202 l 570 202 l 535 157 l 517 202 m 416 202 l 402 130 l 458 130 l 460 144 l 421 144 l 425 160 l 458 160 l 460 173 l 427 173 l 430 189 l 468 189 l 471 202 l 416 202 m 343 202 l 313 202 l 299 130 l 334 130 q 357 136 347 130 q 373 150 366 140 q 378 172 378 158 q 374 188 378 180 q 362 199 370 195 q 343 202 355 202 m 881 143 q 866 148 871 143 q 861 161 861 153 q 864 175 861 170 q 873 185 867 180 q 887 189 880 189 q 902 184 897 189 q 907 172 907 180 q 903 157 907 164 q 895 147 900 151 q 881 143 888 143 m 349 147 q 334 144 342 144 l 318 144 l 327 189 l 341 189 q 357 184 351 189 q 362 172 362 178 q 359 157 362 164 q 349 147 355 150 z "},"&":{"ha":1415,"x_min":26,"x_max":1390,"o":"m 865 399 q 932 450 883 426 q 905 384 916 406 q 880 358 893 363 q 854 365 858 351 q 865 399 850 378 m 390 567 q 415 553 408 595 q 416 495 421 517 l 416 494 q 390 527 399 504 q 390 567 380 549 m 1388 575 q 1378 530 1390 551 q 1383 513 1383 523 q 1367 462 1383 479 q 1319 427 1350 442 q 1261 412 1289 412 q 1212 429 1232 412 q 1195 446 1203 435 q 1118 410 1162 410 q 1085 415 1100 410 q 1084 413 1085 414 q 1084 410 1084 411 q 1062 321 1061 335 q 1061 301 1065 311 q 1048 286 1057 292 q 1031 281 1041 281 q 1010 290 1020 281 q 983 324 995 303 q 951 290 968 303 q 889 267 919 267 q 835 300 863 267 q 812 334 823 313 q 806 368 804 348 q 804 370 806 369 q 802 372 803 371 q 777 366 790 366 q 718 404 742 366 q 712 417 714 410 l 708 421 l 705 398 q 688 372 703 380 q 673 368 681 368 q 658 372 665 368 q 655 373 657 372 q 651 376 653 374 q 646 379 648 377 q 640 377 646 378 l 635 376 q 628 376 631 376 q 575 404 593 376 q 532 378 555 380 q 529 378 531 378 q 526 378 526 378 q 475 401 492 378 q 397 356 442 356 q 338 380 363 356 q 341 354 338 370 q 327 322 345 333 q 310 317 319 317 q 292 323 300 317 l 290 324 q 286 329 288 326 q 279 334 283 331 q 271 342 275 338 q 262 353 267 347 q 252 366 257 359 q 243 382 248 374 q 224 408 231 396 q 229 349 220 368 q 229 318 238 334 q 202 302 220 302 q 144 331 168 302 q 100 414 105 376 q 82 409 91 409 q 71 411 76 409 q 37 441 48 420 q 28 477 26 463 q 29 486 28 479 q 37 505 31 492 q 53 529 43 517 q 83 553 63 541 q 128 573 102 566 q 155 657 144 629 q 172 692 167 686 q 186 701 178 697 q 199 703 193 703 q 262 664 224 703 q 267 659 265 661 q 315 752 286 703 q 372 782 334 782 q 422 769 397 782 q 446 741 430 765 q 463 709 462 718 q 448 681 464 691 q 430 663 442 677 q 467 631 452 651 q 473 615 472 624 q 475 614 473 614 l 476 613 q 496 639 486 631 q 551 661 519 661 q 606 636 589 661 q 622 637 617 637 q 680 763 643 703 q 736 793 699 793 q 787 781 761 793 q 804 754 802 772 l 804 752 q 925 754 836 754 l 979 754 q 1016 757 998 754 q 1042 763 1034 760 l 1050 766 q 1062 768 1055 768 q 1085 758 1076 768 q 1098 740 1089 754 q 1108 724 1107 725 q 1114 690 1121 707 q 1106 675 1112 684 q 1134 652 1129 671 q 1135 645 1135 648 q 1148 646 1139 646 q 1192 627 1175 646 q 1218 652 1202 640 q 1282 675 1249 675 q 1329 663 1310 675 q 1367 625 1348 650 q 1388 575 1386 602 m 287 382 q 297 520 277 440 q 349 662 317 600 q 408 741 380 724 q 395 747 403 744 q 369 749 387 750 q 342 735 351 749 q 287 627 308 680 q 261 536 266 574 q 256 478 256 498 q 258 444 256 458 q 234 528 239 479 q 235 610 230 578 l 240 642 q 231 651 237 646 q 214 665 225 656 q 197 671 202 673 q 153 547 186 667 q 110 533 129 543 q 82 514 91 524 q 67 495 73 504 q 60 480 61 486 l 59 474 q 144 509 73 494 q 132 458 134 465 q 131 414 128 431 q 142 387 134 397 q 158 373 150 378 q 172 368 166 369 l 179 368 q 169 417 169 386 q 175 480 168 449 q 190 540 182 511 q 205 587 198 569 l 212 605 q 225 492 214 543 q 248 430 233 458 q 275 393 263 403 l 287 382 m 572 469 q 585 447 576 454 q 602 441 595 440 l 610 441 q 607 447 609 443 q 602 469 605 452 q 604 510 599 486 q 613 554 607 530 q 623 593 618 578 l 627 606 q 583 591 591 608 q 556 536 568 564 q 532 490 544 509 q 505 469 513 461 q 506 504 498 475 q 528 562 513 534 q 554 603 544 595 q 583 606 564 612 q 576 623 587 616 q 548 629 565 630 q 517 616 530 627 q 474 522 488 587 q 446 493 462 500 q 452 542 453 524 q 437 596 450 582 q 403 608 425 610 q 442 612 419 619 q 433 623 439 616 q 411 637 427 629 q 379 640 394 645 q 331 565 353 630 q 319 465 309 500 q 364 422 332 428 q 427 454 397 416 q 441 479 435 465 q 471 496 456 482 q 471 469 469 477 q 507 444 475 441 q 540 474 521 444 q 571 532 559 503 l 584 561 q 579 544 582 554 q 572 507 576 534 q 572 469 567 480 m 767 435 q 765 437 766 435 q 760 446 763 439 q 754 460 756 452 q 753 483 753 469 q 757 512 753 496 q 770 558 762 536 q 781 590 777 580 l 786 600 l 757 614 q 746 614 750 617 q 659 515 692 575 q 711 663 676 590 q 772 753 745 735 q 759 759 767 755 q 733 761 751 762 q 707 747 715 760 q 636 570 659 670 q 622 468 618 492 q 630 450 623 459 q 643 437 637 441 l 650 433 q 684 527 651 485 q 714 564 700 549 q 734 583 728 578 l 740 587 q 736 576 739 583 q 727 551 733 569 q 718 516 722 532 q 715 482 715 500 q 722 454 715 465 q 743 433 732 438 q 761 431 754 429 l 767 435 m 829 405 q 836 518 810 436 q 901 686 862 601 q 999 688 986 687 q 1034 702 1019 690 q 1056 726 1050 714 l 1062 736 q 979 723 1029 724 q 928 723 963 723 q 872 722 893 722 q 826 721 850 722 q 788 719 801 720 q 752 703 768 716 q 731 677 736 689 l 726 665 q 795 682 734 677 q 853 684 807 682 q 825 608 851 677 q 789 497 798 538 q 787 461 785 477 q 796 435 789 446 q 810 418 803 425 q 823 408 818 411 l 829 405 m 1163 521 q 1181 567 1179 549 q 1177 595 1183 586 q 1131 611 1164 623 q 1098 590 1114 605 q 1073 564 1082 576 l 1065 553 q 1103 644 1101 644 l 1084 644 q 1053 627 1060 640 q 1013 516 1034 576 q 1011 511 1012 515 q 1009 506 1010 508 q 977 487 990 494 q 997 547 984 511 q 1020 607 1010 583 l 1029 631 q 983 616 994 629 q 960 584 981 613 q 922 533 939 554 q 897 517 904 513 q 897 526 895 519 q 903 543 898 532 q 913 564 907 553 q 926 587 919 575 q 938 607 932 598 q 947 623 943 616 l 950 629 q 938 628 945 629 q 914 621 930 627 q 892 604 898 614 q 882 582 885 589 q 872 563 878 576 q 864 543 866 550 q 859 526 861 535 q 857 511 857 517 q 861 501 858 505 q 878 494 866 494 q 905 501 890 494 q 932 524 920 509 l 978 585 q 939 470 956 517 q 913 454 930 464 q 890 440 897 445 q 873 427 884 436 q 853 405 863 417 q 837 359 835 381 q 858 334 839 337 q 909 350 878 330 q 941 389 930 364 q 968 459 953 413 q 971 471 970 467 q 1003 488 987 480 q 979 409 984 435 q 983 381 975 396 q 1000 357 990 366 l 1008 347 q 1031 453 1004 362 q 1067 538 1046 504 q 1109 584 1082 565 q 1143 597 1135 603 q 1144 576 1147 592 q 1135 547 1141 561 q 1101 506 1122 521 q 1066 490 1080 491 l 1053 488 q 1060 484 1055 486 q 1078 477 1064 481 q 1104 474 1091 473 q 1133 487 1116 475 q 1163 521 1149 498 m 1272 610 q 1306 625 1291 631 q 1310 602 1319 620 q 1295 585 1304 593 q 1275 575 1286 577 q 1256 574 1263 572 l 1249 575 q 1252 569 1250 572 q 1264 559 1255 565 q 1285 553 1273 553 q 1322 570 1310 555 q 1333 607 1335 586 q 1318 631 1333 621 q 1283 643 1304 642 q 1237 627 1262 644 q 1201 586 1216 611 q 1185 533 1185 562 q 1208 487 1185 505 q 1246 478 1224 475 q 1289 493 1269 481 q 1321 517 1310 504 q 1326 528 1324 521 q 1329 541 1329 536 l 1329 547 q 1275 504 1313 521 q 1227 503 1238 487 q 1233 552 1218 519 q 1272 610 1249 585 m 367 551 q 381 508 368 528 q 413 481 394 488 q 393 439 404 449 q 367 434 381 430 q 354 472 355 437 q 361 532 353 506 q 367 551 363 541 m 645 143 q 630 148 635 143 q 625 161 625 153 q 628 175 625 170 q 637 185 631 180 q 651 189 644 189 q 666 184 661 189 q 671 172 671 180 q 667 157 671 164 q 659 147 664 151 q 645 143 652 143 m 1145 94 l 241 94 l 271 241 l 1175 241 l 1145 94 m 1118 202 l 1055 202 l 1052 189 l 1075 189 l 1063 130 l 1080 130 l 1092 189 l 1115 189 l 1118 202 m 962 202 l 947 130 l 964 130 l 972 175 l 1000 130 l 1013 130 l 1027 202 l 1011 202 l 1002 157 l 975 202 l 962 202 m 850 182 q 844 160 844 172 q 848 144 844 151 q 861 133 852 137 q 879 129 869 129 q 903 135 892 129 q 918 150 914 142 q 924 172 924 161 q 920 189 924 182 q 907 199 916 195 q 888 203 899 203 q 865 198 874 203 q 850 182 854 191 m 773 202 l 759 130 l 775 130 l 781 157 l 814 157 l 817 170 l 783 170 l 787 189 l 825 189 l 827 202 l 773 202 m 614 182 q 608 160 608 174 q 612 144 608 151 q 625 133 616 137 q 643 129 633 129 q 667 135 656 129 q 682 150 678 142 q 688 172 688 159 q 684 189 688 182 q 671 199 680 195 q 652 203 663 203 q 629 198 638 203 q 614 182 618 191 m 517 202 l 504 202 l 490 130 l 505 130 l 513 174 l 528 138 l 536 138 l 564 173 l 555 130 l 570 130 l 585 202 l 570 202 l 535 157 l 517 202 m 416 202 l 402 130 l 458 130 l 460 144 l 421 144 l 425 160 l 458 160 l 460 173 l 427 173 l 430 189 l 468 189 l 471 202 l 416 202 m 343 202 l 313 202 l 299 130 l 334 130 q 357 136 347 130 q 373 150 366 140 q 378 172 378 158 q 374 188 378 180 q 362 199 370 195 q 343 202 355 202 m 881 143 q 866 148 871 143 q 861 161 861 153 q 864 175 861 170 q 873 185 867 180 q 887 189 880 189 q 902 184 897 189 q 907 172 907 180 q 903 157 907 164 q 895 147 900 151 q 881 143 888 143 m 349 147 q 334 144 342 144 l 318 144 l 327 189 l 341 189 q 357 184 351 189 q 362 172 362 178 q 359 157 362 164 q 349 147 355 150 z "},"'":{"ha":1415,"x_min":26,"x_max":1390,"o":"m 865 399 q 932 450 883 426 q 905 384 916 406 q 880 358 893 363 q 854 365 858 351 q 865 399 850 378 m 390 567 q 415 553 408 595 q 416 495 421 517 l 416 494 q 390 527 399 504 q 390 567 380 549 m 1388 575 q 1378 530 1390 551 q 1383 513 1383 523 q 1367 462 1383 479 q 1319 427 1350 442 q 1261 412 1289 412 q 1212 429 1232 412 q 1195 446 1203 435 q 1118 410 1162 410 q 1085 415 1100 410 q 1084 413 1085 414 q 1084 410 1084 411 q 1062 321 1061 335 q 1061 301 1065 311 q 1048 286 1057 292 q 1031 281 1041 281 q 1010 290 1020 281 q 983 324 995 303 q 951 290 968 303 q 889 267 919 267 q 835 300 863 267 q 812 334 823 313 q 806 368 804 348 q 804 370 806 369 q 802 372 803 371 q 777 366 790 366 q 718 404 742 366 q 712 417 714 410 l 708 421 l 705 398 q 688 372 703 380 q 673 368 681 368 q 658 372 665 368 q 655 373 657 372 q 651 376 653 374 q 646 379 648 377 q 640 377 646 378 l 635 376 q 628 376 631 376 q 575 404 593 376 q 532 378 555 380 q 529 378 531 378 q 526 378 526 378 q 475 401 492 378 q 397 356 442 356 q 338 380 363 356 q 341 354 338 370 q 327 322 345 333 q 310 317 319 317 q 292 323 300 317 l 290 324 q 286 329 288 326 q 279 334 283 331 q 271 342 275 338 q 262 353 267 347 q 252 366 257 359 q 243 382 248 374 q 224 408 231 396 q 229 349 220 368 q 229 318 238 334 q 202 302 220 302 q 144 331 168 302 q 100 414 105 376 q 82 409 91 409 q 71 411 76 409 q 37 441 48 420 q 28 477 26 463 q 29 486 28 479 q 37 505 31 492 q 53 529 43 517 q 83 553 63 541 q 128 573 102 566 q 155 657 144 629 q 172 692 167 686 q 186 701 178 697 q 199 703 193 703 q 262 664 224 703 q 267 659 265 661 q 315 752 286 703 q 372 782 334 782 q 422 769 397 782 q 446 741 430 765 q 463 709 462 718 q 448 681 464 691 q 430 663 442 677 q 467 631 452 651 q 473 615 472 624 q 475 614 473 614 l 476 613 q 496 639 486 631 q 551 661 519 661 q 606 636 589 661 q 622 637 617 637 q 680 763 643 703 q 736 793 699 793 q 787 781 761 793 q 804 754 802 772 l 804 752 q 925 754 836 754 l 979 754 q 1016 757 998 754 q 1042 763 1034 760 l 1050 766 q 1062 768 1055 768 q 1085 758 1076 768 q 1098 740 1089 754 q 1108 724 1107 725 q 1114 690 1121 707 q 1106 675 1112 684 q 1134 652 1129 671 q 1135 645 1135 648 q 1148 646 1139 646 q 1192 627 1175 646 q 1218 652 1202 640 q 1282 675 1249 675 q 1329 663 1310 675 q 1367 625 1348 650 q 1388 575 1386 602 m 287 382 q 297 520 277 440 q 349 662 317 600 q 408 741 380 724 q 395 747 403 744 q 369 749 387 750 q 342 735 351 749 q 287 627 308 680 q 261 536 266 574 q 256 478 256 498 q 258 444 256 458 q 234 528 239 479 q 235 610 230 578 l 240 642 q 231 651 237 646 q 214 665 225 656 q 197 671 202 673 q 153 547 186 667 q 110 533 129 543 q 82 514 91 524 q 67 495 73 504 q 60 480 61 486 l 59 474 q 144 509 73 494 q 132 458 134 465 q 131 414 128 431 q 142 387 134 397 q 158 373 150 378 q 172 368 166 369 l 179 368 q 169 417 169 386 q 175 480 168 449 q 190 540 182 511 q 205 587 198 569 l 212 605 q 225 492 214 543 q 248 430 233 458 q 275 393 263 403 l 287 382 m 572 469 q 585 447 576 454 q 602 441 595 440 l 610 441 q 607 447 609 443 q 602 469 605 452 q 604 510 599 486 q 613 554 607 530 q 623 593 618 578 l 627 606 q 583 591 591 608 q 556 536 568 564 q 532 490 544 509 q 505 469 513 461 q 506 504 498 475 q 528 562 513 534 q 554 603 544 595 q 583 606 564 612 q 576 623 587 616 q 548 629 565 630 q 517 616 530 627 q 474 522 488 587 q 446 493 462 500 q 452 542 453 524 q 437 596 450 582 q 403 608 425 610 q 442 612 419 619 q 433 623 439 616 q 411 637 427 629 q 379 640 394 645 q 331 565 353 630 q 319 465 309 500 q 364 422 332 428 q 427 454 397 416 q 441 479 435 465 q 471 496 456 482 q 471 469 469 477 q 507 444 475 441 q 540 474 521 444 q 571 532 559 503 l 584 561 q 579 544 582 554 q 572 507 576 534 q 572 469 567 480 m 767 435 q 765 437 766 435 q 760 446 763 439 q 754 460 756 452 q 753 483 753 469 q 757 512 753 496 q 770 558 762 536 q 781 590 777 580 l 786 600 l 757 614 q 746 614 750 617 q 659 515 692 575 q 711 663 676 590 q 772 753 745 735 q 759 759 767 755 q 733 761 751 762 q 707 747 715 760 q 636 570 659 670 q 622 468 618 492 q 630 450 623 459 q 643 437 637 441 l 650 433 q 684 527 651 485 q 714 564 700 549 q 734 583 728 578 l 740 587 q 736 576 739 583 q 727 551 733 569 q 718 516 722 532 q 715 482 715 500 q 722 454 715 465 q 743 433 732 438 q 761 431 754 429 l 767 435 m 829 405 q 836 518 810 436 q 901 686 862 601 q 999 688 986 687 q 1034 702 1019 690 q 1056 726 1050 714 l 1062 736 q 979 723 1029 724 q 928 723 963 723 q 872 722 893 722 q 826 721 850 722 q 788 719 801 720 q 752 703 768 716 q 731 677 736 689 l 726 665 q 795 682 734 677 q 853 684 807 682 q 825 608 851 677 q 789 497 798 538 q 787 461 785 477 q 796 435 789 446 q 810 418 803 425 q 823 408 818 411 l 829 405 m 1163 521 q 1181 567 1179 549 q 1177 595 1183 586 q 1131 611 1164 623 q 1098 590 1114 605 q 1073 564 1082 576 l 1065 553 q 1103 644 1101 644 l 1084 644 q 1053 627 1060 640 q 1013 516 1034 576 q 1011 511 1012 515 q 1009 506 1010 508 q 977 487 990 494 q 997 547 984 511 q 1020 607 1010 583 l 1029 631 q 983 616 994 629 q 960 584 981 613 q 922 533 939 554 q 897 517 904 513 q 897 526 895 519 q 903 543 898 532 q 913 564 907 553 q 926 587 919 575 q 938 607 932 598 q 947 623 943 616 l 950 629 q 938 628 945 629 q 914 621 930 627 q 892 604 898 614 q 882 582 885 589 q 872 563 878 576 q 864 543 866 550 q 859 526 861 535 q 857 511 857 517 q 861 501 858 505 q 878 494 866 494 q 905 501 890 494 q 932 524 920 509 l 978 585 q 939 470 956 517 q 913 454 930 464 q 890 440 897 445 q 873 427 884 436 q 853 405 863 417 q 837 359 835 381 q 858 334 839 337 q 909 350 878 330 q 941 389 930 364 q 968 459 953 413 q 971 471 970 467 q 1003 488 987 480 q 979 409 984 435 q 983 381 975 396 q 1000 357 990 366 l 1008 347 q 1031 453 1004 362 q 1067 538 1046 504 q 1109 584 1082 565 q 1143 597 1135 603 q 1144 576 1147 592 q 1135 547 1141 561 q 1101 506 1122 521 q 1066 490 1080 491 l 1053 488 q 1060 484 1055 486 q 1078 477 1064 481 q 1104 474 1091 473 q 1133 487 1116 475 q 1163 521 1149 498 m 1272 610 q 1306 625 1291 631 q 1310 602 1319 620 q 1295 585 1304 593 q 1275 575 1286 577 q 1256 574 1263 572 l 1249 575 q 1252 569 1250 572 q 1264 559 1255 565 q 1285 553 1273 553 q 1322 570 1310 555 q 1333 607 1335 586 q 1318 631 1333 621 q 1283 643 1304 642 q 1237 627 1262 644 q 1201 586 1216 611 q 1185 533 1185 562 q 1208 487 1185 505 q 1246 478 1224 475 q 1289 493 1269 481 q 1321 517 1310 504 q 1326 528 1324 521 q 1329 541 1329 536 l 1329 547 q 1275 504 1313 521 q 1227 503 1238 487 q 1233 552 1218 519 q 1272 610 1249 585 m 367 551 q 381 508 368 528 q 413 481 394 488 q 393 439 404 449 q 367 434 381 430 q 354 472 355 437 q 361 532 353 506 q 367 551 363 541 m 645 143 q 630 148 635 143 q 625 161 625 153 q 628 175 625 170 q 637 185 631 180 q 651 189 644 189 q 666 184 661 189 q 671 172 671 180 q 667 157 671 164 q 659 147 664 151 q 645 143 652 143 m 1145 94 l 241 94 l 271 241 l 1175 241 l 1145 94 m 1118 202 l 1055 202 l 1052 189 l 1075 189 l 1063 130 l 1080 130 l 1092 189 l 1115 189 l 1118 202 m 962 202 l 947 130 l 964 130 l 972 175 l 1000 130 l 1013 130 l 1027 202 l 1011 202 l 1002 157 l 975 202 l 962 202 m 850 182 q 844 160 844 172 q 848 144 844 151 q 861 133 852 137 q 879 129 869 129 q 903 135 892 129 q 918 150 914 142 q 924 172 924 161 q 920 189 924 182 q 907 199 916 195 q 888 203 899 203 q 865 198 874 203 q 850 182 854 191 m 773 202 l 759 130 l 775 130 l 781 157 l 814 157 l 817 170 l 783 170 l 787 189 l 825 189 l 827 202 l 773 202 m 614 182 q 608 160 608 174 q 612 144 608 151 q 625 133 616 137 q 643 129 633 129 q 667 135 656 129 q 682 150 678 142 q 688 172 688 159 q 684 189 688 182 q 671 199 680 195 q 652 203 663 203 q 629 198 638 203 q 614 182 618 191 m 517 202 l 504 202 l 490 130 l 505 130 l 513 174 l 528 138 l 536 138 l 564 173 l 555 130 l 570 130 l 585 202 l 570 202 l 535 157 l 517 202 m 416 202 l 402 130 l 458 130 l 460 144 l 421 144 l 425 160 l 458 160 l 460 173 l 427 173 l 430 189 l 468 189 l 471 202 l 416 202 m 343 202 l 313 202 l 299 130 l 334 130 q 357 136 347 130 q 373 150 366 140 q 378 172 378 158 q 374 188 378 180 q 362 199 370 195 q 343 202 355 202 m 881 143 q 866 148 871 143 q 861 161 861 153 q 864 175 861 170 q 873 185 867 180 q 887 189 880 189 q 902 184 897 189 q 907 172 907 180 q 903 157 907 164 q 895 147 900 151 q 881 143 888 143 m 349 147 q 334 144 342 144 l 318 144 l 327 189 l 341 189 q 357 184 351 189 q 362 172 362 178 q 359 157 362 164 q 349 147 355 150 z "},"(":{"ha":1415,"x_min":26,"x_max":1390,"o":"m 865 399 q 932 450 883 426 q 905 384 916 406 q 880 358 893 363 q 854 365 858 351 q 865 399 850 378 m 390 567 q 415 553 408 595 q 416 495 421 517 l 416 494 q 390 527 399 504 q 390 567 380 549 m 1388 575 q 1378 530 1390 551 q 1383 513 1383 523 q 1367 462 1383 479 q 1319 427 1350 442 q 1261 412 1289 412 q 1212 429 1232 412 q 1195 446 1203 435 q 1118 410 1162 410 q 1085 415 1100 410 q 1084 413 1085 414 q 1084 410 1084 411 q 1062 321 1061 335 q 1061 301 1065 311 q 1048 286 1057 292 q 1031 281 1041 281 q 1010 290 1020 281 q 983 324 995 303 q 951 290 968 303 q 889 267 919 267 q 835 300 863 267 q 812 334 823 313 q 806 368 804 348 q 804 370 806 369 q 802 372 803 371 q 777 366 790 366 q 718 404 742 366 q 712 417 714 410 l 708 421 l 705 398 q 688 372 703 380 q 673 368 681 368 q 658 372 665 368 q 655 373 657 372 q 651 376 653 374 q 646 379 648 377 q 640 377 646 378 l 635 376 q 628 376 631 376 q 575 404 593 376 q 532 378 555 380 q 529 378 531 378 q 526 378 526 378 q 475 401 492 378 q 397 356 442 356 q 338 380 363 356 q 341 354 338 370 q 327 322 345 333 q 310 317 319 317 q 292 323 300 317 l 290 324 q 286 329 288 326 q 279 334 283 331 q 271 342 275 338 q 262 353 267 347 q 252 366 257 359 q 243 382 248 374 q 224 408 231 396 q 229 349 220 368 q 229 318 238 334 q 202 302 220 302 q 144 331 168 302 q 100 414 105 376 q 82 409 91 409 q 71 411 76 409 q 37 441 48 420 q 28 477 26 463 q 29 486 28 479 q 37 505 31 492 q 53 529 43 517 q 83 553 63 541 q 128 573 102 566 q 155 657 144 629 q 172 692 167 686 q 186 701 178 697 q 199 703 193 703 q 262 664 224 703 q 267 659 265 661 q 315 752 286 703 q 372 782 334 782 q 422 769 397 782 q 446 741 430 765 q 463 709 462 718 q 448 681 464 691 q 430 663 442 677 q 467 631 452 651 q 473 615 472 624 q 475 614 473 614 l 476 613 q 496 639 486 631 q 551 661 519 661 q 606 636 589 661 q 622 637 617 637 q 680 763 643 703 q 736 793 699 793 q 787 781 761 793 q 804 754 802 772 l 804 752 q 925 754 836 754 l 979 754 q 1016 757 998 754 q 1042 763 1034 760 l 1050 766 q 1062 768 1055 768 q 1085 758 1076 768 q 1098 740 1089 754 q 1108 724 1107 725 q 1114 690 1121 707 q 1106 675 1112 684 q 1134 652 1129 671 q 1135 645 1135 648 q 1148 646 1139 646 q 1192 627 1175 646 q 1218 652 1202 640 q 1282 675 1249 675 q 1329 663 1310 675 q 1367 625 1348 650 q 1388 575 1386 602 m 287 382 q 297 520 277 440 q 349 662 317 600 q 408 741 380 724 q 395 747 403 744 q 369 749 387 750 q 342 735 351 749 q 287 627 308 680 q 261 536 266 574 q 256 478 256 498 q 258 444 256 458 q 234 528 239 479 q 235 610 230 578 l 240 642 q 231 651 237 646 q 214 665 225 656 q 197 671 202 673 q 153 547 186 667 q 110 533 129 543 q 82 514 91 524 q 67 495 73 504 q 60 480 61 486 l 59 474 q 144 509 73 494 q 132 458 134 465 q 131 414 128 431 q 142 387 134 397 q 158 373 150 378 q 172 368 166 369 l 179 368 q 169 417 169 386 q 175 480 168 449 q 190 540 182 511 q 205 587 198 569 l 212 605 q 225 492 214 543 q 248 430 233 458 q 275 393 263 403 l 287 382 m 572 469 q 585 447 576 454 q 602 441 595 440 l 610 441 q 607 447 609 443 q 602 469 605 452 q 604 510 599 486 q 613 554 607 530 q 623 593 618 578 l 627 606 q 583 591 591 608 q 556 536 568 564 q 532 490 544 509 q 505 469 513 461 q 506 504 498 475 q 528 562 513 534 q 554 603 544 595 q 583 606 564 612 q 576 623 587 616 q 548 629 565 630 q 517 616 530 627 q 474 522 488 587 q 446 493 462 500 q 452 542 453 524 q 437 596 450 582 q 403 608 425 610 q 442 612 419 619 q 433 623 439 616 q 411 637 427 629 q 379 640 394 645 q 331 565 353 630 q 319 465 309 500 q 364 422 332 428 q 427 454 397 416 q 441 479 435 465 q 471 496 456 482 q 471 469 469 477 q 507 444 475 441 q 540 474 521 444 q 571 532 559 503 l 584 561 q 579 544 582 554 q 572 507 576 534 q 572 469 567 480 m 767 435 q 765 437 766 435 q 760 446 763 439 q 754 460 756 452 q 753 483 753 469 q 757 512 753 496 q 770 558 762 536 q 781 590 777 580 l 786 600 l 757 614 q 746 614 750 617 q 659 515 692 575 q 711 663 676 590 q 772 753 745 735 q 759 759 767 755 q 733 761 751 762 q 707 747 715 760 q 636 570 659 670 q 622 468 618 492 q 630 450 623 459 q 643 437 637 441 l 650 433 q 684 527 651 485 q 714 564 700 549 q 734 583 728 578 l 740 587 q 736 576 739 583 q 727 551 733 569 q 718 516 722 532 q 715 482 715 500 q 722 454 715 465 q 743 433 732 438 q 761 431 754 429 l 767 435 m 829 405 q 836 518 810 436 q 901 686 862 601 q 999 688 986 687 q 1034 702 1019 690 q 1056 726 1050 714 l 1062 736 q 979 723 1029 724 q 928 723 963 723 q 872 722 893 722 q 826 721 850 722 q 788 719 801 720 q 752 703 768 716 q 731 677 736 689 l 726 665 q 795 682 734 677 q 853 684 807 682 q 825 608 851 677 q 789 497 798 538 q 787 461 785 477 q 796 435 789 446 q 810 418 803 425 q 823 408 818 411 l 829 405 m 1163 521 q 1181 567 1179 549 q 1177 595 1183 586 q 1131 611 1164 623 q 1098 590 1114 605 q 1073 564 1082 576 l 1065 553 q 1103 644 1101 644 l 1084 644 q 1053 627 1060 640 q 1013 516 1034 576 q 1011 511 1012 515 q 1009 506 1010 508 q 977 487 990 494 q 997 547 984 511 q 1020 607 1010 583 l 1029 631 q 983 616 994 629 q 960 584 981 613 q 922 533 939 554 q 897 517 904 513 q 897 526 895 519 q 903 543 898 532 q 913 564 907 553 q 926 587 919 575 q 938 607 932 598 q 947 623 943 616 l 950 629 q 938 628 945 629 q 914 621 930 627 q 892 604 898 614 q 882 582 885 589 q 872 563 878 576 q 864 543 866 550 q 859 526 861 535 q 857 511 857 517 q 861 501 858 505 q 878 494 866 494 q 905 501 890 494 q 932 524 920 509 l 978 585 q 939 470 956 517 q 913 454 930 464 q 890 440 897 445 q 873 427 884 436 q 853 405 863 417 q 837 359 835 381 q 858 334 839 337 q 909 350 878 330 q 941 389 930 364 q 968 459 953 413 q 971 471 970 467 q 1003 488 987 480 q 979 409 984 435 q 983 381 975 396 q 1000 357 990 366 l 1008 347 q 1031 453 1004 362 q 1067 538 1046 504 q 1109 584 1082 565 q 1143 597 1135 603 q 1144 576 1147 592 q 1135 547 1141 561 q 1101 506 1122 521 q 1066 490 1080 491 l 1053 488 q 1060 484 1055 486 q 1078 477 1064 481 q 1104 474 1091 473 q 1133 487 1116 475 q 1163 521 1149 498 m 1272 610 q 1306 625 1291 631 q 1310 602 1319 620 q 1295 585 1304 593 q 1275 575 1286 577 q 1256 574 1263 572 l 1249 575 q 1252 569 1250 572 q 1264 559 1255 565 q 1285 553 1273 553 q 1322 570 1310 555 q 1333 607 1335 586 q 1318 631 1333 621 q 1283 643 1304 642 q 1237 627 1262 644 q 1201 586 1216 611 q 1185 533 1185 562 q 1208 487 1185 505 q 1246 478 1224 475 q 1289 493 1269 481 q 1321 517 1310 504 q 1326 528 1324 521 q 1329 541 1329 536 l 1329 547 q 1275 504 1313 521 q 1227 503 1238 487 q 1233 552 1218 519 q 1272 610 1249 585 m 367 551 q 381 508 368 528 q 413 481 394 488 q 393 439 404 449 q 367 434 381 430 q 354 472 355 437 q 361 532 353 506 q 367 551 363 541 m 645 143 q 630 148 635 143 q 625 161 625 153 q 628 175 625 170 q 637 185 631 180 q 651 189 644 189 q 666 184 661 189 q 671 172 671 180 q 667 157 671 164 q 659 147 664 151 q 645 143 652 143 m 1145 94 l 241 94 l 271 241 l 1175 241 l 1145 94 m 1118 202 l 1055 202 l 1052 189 l 1075 189 l 1063 130 l 1080 130 l 1092 189 l 1115 189 l 1118 202 m 962 202 l 947 130 l 964 130 l 972 175 l 1000 130 l 1013 130 l 1027 202 l 1011 202 l 1002 157 l 975 202 l 962 202 m 850 182 q 844 160 844 172 q 848 144 844 151 q 861 133 852 137 q 879 129 869 129 q 903 135 892 129 q 918 150 914 142 q 924 172 924 161 q 920 189 924 182 q 907 199 916 195 q 888 203 899 203 q 865 198 874 203 q 850 182 854 191 m 773 202 l 759 130 l 775 130 l 781 157 l 814 157 l 817 170 l 783 170 l 787 189 l 825 189 l 827 202 l 773 202 m 614 182 q 608 160 608 174 q 612 144 608 151 q 625 133 616 137 q 643 129 633 129 q 667 135 656 129 q 682 150 678 142 q 688 172 688 159 q 684 189 688 182 q 671 199 680 195 q 652 203 663 203 q 629 198 638 203 q 614 182 618 191 m 517 202 l 504 202 l 490 130 l 505 130 l 513 174 l 528 138 l 536 138 l 564 173 l 555 130 l 570 130 l 585 202 l 570 202 l 535 157 l 517 202 m 416 202 l 402 130 l 458 130 l 460 144 l 421 144 l 425 160 l 458 160 l 460 173 l 427 173 l 430 189 l 468 189 l 471 202 l 416 202 m 343 202 l 313 202 l 299 130 l 334 130 q 357 136 347 130 q 373 150 366 140 q 378 172 378 158 q 374 188 378 180 q 362 199 370 195 q 343 202 355 202 m 881 143 q 866 148 871 143 q 861 161 861 153 q 864 175 861 170 q 873 185 867 180 q 887 189 880 189 q 902 184 897 189 q 907 172 907 180 q 903 157 907 164 q 895 147 900 151 q 881 143 888 143 m 349 147 q 334 144 342 144 l 318 144 l 327 189 l 341 189 q 357 184 351 189 q 362 172 362 178 q 359 157 362 164 q 349 147 355 150 z "},")":{"ha":1415,"x_min":26,"x_max":1390,"o":"m 865 399 q 932 450 883 426 q 905 384 916 406 q 880 358 893 363 q 854 365 858 351 q 865 399 850 378 m 390 567 q 415 553 408 595 q 416 495 421 517 l 416 494 q 390 527 399 504 q 390 567 380 549 m 1388 575 q 1378 530 1390 551 q 1383 513 1383 523 q 1367 462 1383 479 q 1319 427 1350 442 q 1261 412 1289 412 q 1212 429 1232 412 q 1195 446 1203 435 q 1118 410 1162 410 q 1085 415 1100 410 q 1084 413 1085 414 q 1084 410 1084 411 q 1062 321 1061 335 q 1061 301 1065 311 q 1048 286 1057 292 q 1031 281 1041 281 q 1010 290 1020 281 q 983 324 995 303 q 951 290 968 303 q 889 267 919 267 q 835 300 863 267 q 812 334 823 313 q 806 368 804 348 q 804 370 806 369 q 802 372 803 371 q 777 366 790 366 q 718 404 742 366 q 712 417 714 410 l 708 421 l 705 398 q 688 372 703 380 q 673 368 681 368 q 658 372 665 368 q 655 373 657 372 q 651 376 653 374 q 646 379 648 377 q 640 377 646 378 l 635 376 q 628 376 631 376 q 575 404 593 376 q 532 378 555 380 q 529 378 531 378 q 526 378 526 378 q 475 401 492 378 q 397 356 442 356 q 338 380 363 356 q 341 354 338 370 q 327 322 345 333 q 310 317 319 317 q 292 323 300 317 l 290 324 q 286 329 288 326 q 279 334 283 331 q 271 342 275 338 q 262 353 267 347 q 252 366 257 359 q 243 382 248 374 q 224 408 231 396 q 229 349 220 368 q 229 318 238 334 q 202 302 220 302 q 144 331 168 302 q 100 414 105 376 q 82 409 91 409 q 71 411 76 409 q 37 441 48 420 q 28 477 26 463 q 29 486 28 479 q 37 505 31 492 q 53 529 43 517 q 83 553 63 541 q 128 573 102 566 q 155 657 144 629 q 172 692 167 686 q 186 701 178 697 q 199 703 193 703 q 262 664 224 703 q 267 659 265 661 q 315 752 286 703 q 372 782 334 782 q 422 769 397 782 q 446 741 430 765 q 463 709 462 718 q 448 681 464 691 q 430 663 442 677 q 467 631 452 651 q 473 615 472 624 q 475 614 473 614 l 476 613 q 496 639 486 631 q 551 661 519 661 q 606 636 589 661 q 622 637 617 637 q 680 763 643 703 q 736 793 699 793 q 787 781 761 793 q 804 754 802 772 l 804 752 q 925 754 836 754 l 979 754 q 1016 757 998 754 q 1042 763 1034 760 l 1050 766 q 1062 768 1055 768 q 1085 758 1076 768 q 1098 740 1089 754 q 1108 724 1107 725 q 1114 690 1121 707 q 1106 675 1112 684 q 1134 652 1129 671 q 1135 645 1135 648 q 1148 646 1139 646 q 1192 627 1175 646 q 1218 652 1202 640 q 1282 675 1249 675 q 1329 663 1310 675 q 1367 625 1348 650 q 1388 575 1386 602 m 287 382 q 297 520 277 440 q 349 662 317 600 q 408 741 380 724 q 395 747 403 744 q 369 749 387 750 q 342 735 351 749 q 287 627 308 680 q 261 536 266 574 q 256 478 256 498 q 258 444 256 458 q 234 528 239 479 q 235 610 230 578 l 240 642 q 231 651 237 646 q 214 665 225 656 q 197 671 202 673 q 153 547 186 667 q 110 533 129 543 q 82 514 91 524 q 67 495 73 504 q 60 480 61 486 l 59 474 q 144 509 73 494 q 132 458 134 465 q 131 414 128 431 q 142 387 134 397 q 158 373 150 378 q 172 368 166 369 l 179 368 q 169 417 169 386 q 175 480 168 449 q 190 540 182 511 q 205 587 198 569 l 212 605 q 225 492 214 543 q 248 430 233 458 q 275 393 263 403 l 287 382 m 572 469 q 585 447 576 454 q 602 441 595 440 l 610 441 q 607 447 609 443 q 602 469 605 452 q 604 510 599 486 q 613 554 607 530 q 623 593 618 578 l 627 606 q 583 591 591 608 q 556 536 568 564 q 532 490 544 509 q 505 469 513 461 q 506 504 498 475 q 528 562 513 534 q 554 603 544 595 q 583 606 564 612 q 576 623 587 616 q 548 629 565 630 q 517 616 530 627 q 474 522 488 587 q 446 493 462 500 q 452 542 453 524 q 437 596 450 582 q 403 608 425 610 q 442 612 419 619 q 433 623 439 616 q 411 637 427 629 q 379 640 394 645 q 331 565 353 630 q 319 465 309 500 q 364 422 332 428 q 427 454 397 416 q 441 479 435 465 q 471 496 456 482 q 471 469 469 477 q 507 444 475 441 q 540 474 521 444 q 571 532 559 503 l 584 561 q 579 544 582 554 q 572 507 576 534 q 572 469 567 480 m 767 435 q 765 437 766 435 q 760 446 763 439 q 754 460 756 452 q 753 483 753 469 q 757 512 753 496 q 770 558 762 536 q 781 590 777 580 l 786 600 l 757 614 q 746 614 750 617 q 659 515 692 575 q 711 663 676 590 q 772 753 745 735 q 759 759 767 755 q 733 761 751 762 q 707 747 715 760 q 636 570 659 670 q 622 468 618 492 q 630 450 623 459 q 643 437 637 441 l 650 433 q 684 527 651 485 q 714 564 700 549 q 734 583 728 578 l 740 587 q 736 576 739 583 q 727 551 733 569 q 718 516 722 532 q 715 482 715 500 q 722 454 715 465 q 743 433 732 438 q 761 431 754 429 l 767 435 m 829 405 q 836 518 810 436 q 901 686 862 601 q 999 688 986 687 q 1034 702 1019 690 q 1056 726 1050 714 l 1062 736 q 979 723 1029 724 q 928 723 963 723 q 872 722 893 722 q 826 721 850 722 q 788 719 801 720 q 752 703 768 716 q 731 677 736 689 l 726 665 q 795 682 734 677 q 853 684 807 682 q 825 608 851 677 q 789 497 798 538 q 787 461 785 477 q 796 435 789 446 q 810 418 803 425 q 823 408 818 411 l 829 405 m 1163 521 q 1181 567 1179 549 q 1177 595 1183 586 q 1131 611 1164 623 q 1098 590 1114 605 q 1073 564 1082 576 l 1065 553 q 1103 644 1101 644 l 1084 644 q 1053 627 1060 640 q 1013 516 1034 576 q 1011 511 1012 515 q 1009 506 1010 508 q 977 487 990 494 q 997 547 984 511 q 1020 607 1010 583 l 1029 631 q 983 616 994 629 q 960 584 981 613 q 922 533 939 554 q 897 517 904 513 q 897 526 895 519 q 903 543 898 532 q 913 564 907 553 q 926 587 919 575 q 938 607 932 598 q 947 623 943 616 l 950 629 q 938 628 945 629 q 914 621 930 627 q 892 604 898 614 q 882 582 885 589 q 872 563 878 576 q 864 543 866 550 q 859 526 861 535 q 857 511 857 517 q 861 501 858 505 q 878 494 866 494 q 905 501 890 494 q 932 524 920 509 l 978 585 q 939 470 956 517 q 913 454 930 464 q 890 440 897 445 q 873 427 884 436 q 853 405 863 417 q 837 359 835 381 q 858 334 839 337 q 909 350 878 330 q 941 389 930 364 q 968 459 953 413 q 971 471 970 467 q 1003 488 987 480 q 979 409 984 435 q 983 381 975 396 q 1000 357 990 366 l 1008 347 q 1031 453 1004 362 q 1067 538 1046 504 q 1109 584 1082 565 q 1143 597 1135 603 q 1144 576 1147 592 q 1135 547 1141 561 q 1101 506 1122 521 q 1066 490 1080 491 l 1053 488 q 1060 484 1055 486 q 1078 477 1064 481 q 1104 474 1091 473 q 1133 487 1116 475 q 1163 521 1149 498 m 1272 610 q 1306 625 1291 631 q 1310 602 1319 620 q 1295 585 1304 593 q 1275 575 1286 577 q 1256 574 1263 572 l 1249 575 q 1252 569 1250 572 q 1264 559 1255 565 q 1285 553 1273 553 q 1322 570 1310 555 q 1333 607 1335 586 q 1318 631 1333 621 q 1283 643 1304 642 q 1237 627 1262 644 q 1201 586 1216 611 q 1185 533 1185 562 q 1208 487 1185 505 q 1246 478 1224 475 q 1289 493 1269 481 q 1321 517 1310 504 q 1326 528 1324 521 q 1329 541 1329 536 l 1329 547 q 1275 504 1313 521 q 1227 503 1238 487 q 1233 552 1218 519 q 1272 610 1249 585 m 367 551 q 381 508 368 528 q 413 481 394 488 q 393 439 404 449 q 367 434 381 430 q 354 472 355 437 q 361 532 353 506 q 367 551 363 541 m 645 143 q 630 148 635 143 q 625 161 625 153 q 628 175 625 170 q 637 185 631 180 q 651 189 644 189 q 666 184 661 189 q 671 172 671 180 q 667 157 671 164 q 659 147 664 151 q 645 143 652 143 m 1145 94 l 241 94 l 271 241 l 1175 241 l 1145 94 m 1118 202 l 1055 202 l 1052 189 l 1075 189 l 1063 130 l 1080 130 l 1092 189 l 1115 189 l 1118 202 m 962 202 l 947 130 l 964 130 l 972 175 l 1000 130 l 1013 130 l 1027 202 l 1011 202 l 1002 157 l 975 202 l 962 202 m 850 182 q 844 160 844 172 q 848 144 844 151 q 861 133 852 137 q 879 129 869 129 q 903 135 892 129 q 918 150 914 142 q 924 172 924 161 q 920 189 924 182 q 907 199 916 195 q 888 203 899 203 q 865 198 874 203 q 850 182 854 191 m 773 202 l 759 130 l 775 130 l 781 157 l 814 157 l 817 170 l 783 170 l 787 189 l 825 189 l 827 202 l 773 202 m 614 182 q 608 160 608 174 q 612 144 608 151 q 625 133 616 137 q 643 129 633 129 q 667 135 656 129 q 682 150 678 142 q 688 172 688 159 q 684 189 688 182 q 671 199 680 195 q 652 203 663 203 q 629 198 638 203 q 614 182 618 191 m 517 202 l 504 202 l 490 130 l 505 130 l 513 174 l 528 138 l 536 138 l 564 173 l 555 130 l 570 130 l 585 202 l 570 202 l 535 157 l 517 202 m 416 202 l 402 130 l 458 130 l 460 144 l 421 144 l 425 160 l 458 160 l 460 173 l 427 173 l 430 189 l 468 189 l 471 202 l 416 202 m 343 202 l 313 202 l 299 130 l 334 130 q 357 136 347 130 q 373 150 366 140 q 378 172 378 158 q 374 188 378 180 q 362 199 370 195 q 343 202 355 202 m 881 143 q 866 148 871 143 q 861 161 861 153 q 864 175 861 170 q 873 185 867 180 q 887 189 880 189 q 902 184 897 189 q 907 172 907 180 q 903 157 907 164 q 895 147 900 151 q 881 143 888 143 m 349 147 q 334 144 342 144 l 318 144 l 327 189 l 341 189 q 357 184 351 189 q 362 172 362 178 q 359 157 362 164 q 349 147 355 150 z "},"*":{"ha":1415,"x_min":26,"x_max":1390,"o":"m 865 399 q 932 450 883 426 q 905 384 916 406 q 880 358 893 363 q 854 365 858 351 q 865 399 850 378 m 390 567 q 415 553 408 595 q 416 495 421 517 l 416 494 q 390 527 399 504 q 390 567 380 549 m 1388 575 q 1378 530 1390 551 q 1383 513 1383 523 q 1367 462 1383 479 q 1319 427 1350 442 q 1261 412 1289 412 q 1212 429 1232 412 q 1195 446 1203 435 q 1118 410 1162 410 q 1085 415 1100 410 q 1084 413 1085 414 q 1084 410 1084 411 q 1062 321 1061 335 q 1061 301 1065 311 q 1048 286 1057 292 q 1031 281 1041 281 q 1010 290 1020 281 q 983 324 995 303 q 951 290 968 303 q 889 267 919 267 q 835 300 863 267 q 812 334 823 313 q 806 368 804 348 q 804 370 806 369 q 802 372 803 371 q 777 366 790 366 q 718 404 742 366 q 712 417 714 410 l 708 421 l 705 398 q 688 372 703 380 q 673 368 681 368 q 658 372 665 368 q 655 373 657 372 q 651 376 653 374 q 646 379 648 377 q 640 377 646 378 l 635 376 q 628 376 631 376 q 575 404 593 376 q 532 378 555 380 q 529 378 531 378 q 526 378 526 378 q 475 401 492 378 q 397 356 442 356 q 338 380 363 356 q 341 354 338 370 q 327 322 345 333 q 310 317 319 317 q 292 323 300 317 l 290 324 q 286 329 288 326 q 279 334 283 331 q 271 342 275 338 q 262 353 267 347 q 252 366 257 359 q 243 382 248 374 q 224 408 231 396 q 229 349 220 368 q 229 318 238 334 q 202 302 220 302 q 144 331 168 302 q 100 414 105 376 q 82 409 91 409 q 71 411 76 409 q 37 441 48 420 q 28 477 26 463 q 29 486 28 479 q 37 505 31 492 q 53 529 43 517 q 83 553 63 541 q 128 573 102 566 q 155 657 144 629 q 172 692 167 686 q 186 701 178 697 q 199 703 193 703 q 262 664 224 703 q 267 659 265 661 q 315 752 286 703 q 372 782 334 782 q 422 769 397 782 q 446 741 430 765 q 463 709 462 718 q 448 681 464 691 q 430 663 442 677 q 467 631 452 651 q 473 615 472 624 q 475 614 473 614 l 476 613 q 496 639 486 631 q 551 661 519 661 q 606 636 589 661 q 622 637 617 637 q 680 763 643 703 q 736 793 699 793 q 787 781 761 793 q 804 754 802 772 l 804 752 q 925 754 836 754 l 979 754 q 1016 757 998 754 q 1042 763 1034 760 l 1050 766 q 1062 768 1055 768 q 1085 758 1076 768 q 1098 740 1089 754 q 1108 724 1107 725 q 1114 690 1121 707 q 1106 675 1112 684 q 1134 652 1129 671 q 1135 645 1135 648 q 1148 646 1139 646 q 1192 627 1175 646 q 1218 652 1202 640 q 1282 675 1249 675 q 1329 663 1310 675 q 1367 625 1348 650 q 1388 575 1386 602 m 287 382 q 297 520 277 440 q 349 662 317 600 q 408 741 380 724 q 395 747 403 744 q 369 749 387 750 q 342 735 351 749 q 287 627 308 680 q 261 536 266 574 q 256 478 256 498 q 258 444 256 458 q 234 528 239 479 q 235 610 230 578 l 240 642 q 231 651 237 646 q 214 665 225 656 q 197 671 202 673 q 153 547 186 667 q 110 533 129 543 q 82 514 91 524 q 67 495 73 504 q 60 480 61 486 l 59 474 q 144 509 73 494 q 132 458 134 465 q 131 414 128 431 q 142 387 134 397 q 158 373 150 378 q 172 368 166 369 l 179 368 q 169 417 169 386 q 175 480 168 449 q 190 540 182 511 q 205 587 198 569 l 212 605 q 225 492 214 543 q 248 430 233 458 q 275 393 263 403 l 287 382 m 572 469 q 585 447 576 454 q 602 441 595 440 l 610 441 q 607 447 609 443 q 602 469 605 452 q 604 510 599 486 q 613 554 607 530 q 623 593 618 578 l 627 606 q 583 591 591 608 q 556 536 568 564 q 532 490 544 509 q 505 469 513 461 q 506 504 498 475 q 528 562 513 534 q 554 603 544 595 q 583 606 564 612 q 576 623 587 616 q 548 629 565 630 q 517 616 530 627 q 474 522 488 587 q 446 493 462 500 q 452 542 453 524 q 437 596 450 582 q 403 608 425 610 q 442 612 419 619 q 433 623 439 616 q 411 637 427 629 q 379 640 394 645 q 331 565 353 630 q 319 465 309 500 q 364 422 332 428 q 427 454 397 416 q 441 479 435 465 q 471 496 456 482 q 471 469 469 477 q 507 444 475 441 q 540 474 521 444 q 571 532 559 503 l 584 561 q 579 544 582 554 q 572 507 576 534 q 572 469 567 480 m 767 435 q 765 437 766 435 q 760 446 763 439 q 754 460 756 452 q 753 483 753 469 q 757 512 753 496 q 770 558 762 536 q 781 590 777 580 l 786 600 l 757 614 q 746 614 750 617 q 659 515 692 575 q 711 663 676 590 q 772 753 745 735 q 759 759 767 755 q 733 761 751 762 q 707 747 715 760 q 636 570 659 670 q 622 468 618 492 q 630 450 623 459 q 643 437 637 441 l 650 433 q 684 527 651 485 q 714 564 700 549 q 734 583 728 578 l 740 587 q 736 576 739 583 q 727 551 733 569 q 718 516 722 532 q 715 482 715 500 q 722 454 715 465 q 743 433 732 438 q 761 431 754 429 l 767 435 m 829 405 q 836 518 810 436 q 901 686 862 601 q 999 688 986 687 q 1034 702 1019 690 q 1056 726 1050 714 l 1062 736 q 979 723 1029 724 q 928 723 963 723 q 872 722 893 722 q 826 721 850 722 q 788 719 801 720 q 752 703 768 716 q 731 677 736 689 l 726 665 q 795 682 734 677 q 853 684 807 682 q 825 608 851 677 q 789 497 798 538 q 787 461 785 477 q 796 435 789 446 q 810 418 803 425 q 823 408 818 411 l 829 405 m 1163 521 q 1181 567 1179 549 q 1177 595 1183 586 q 1131 611 1164 623 q 1098 590 1114 605 q 1073 564 1082 576 l 1065 553 q 1103 644 1101 644 l 1084 644 q 1053 627 1060 640 q 1013 516 1034 576 q 1011 511 1012 515 q 1009 506 1010 508 q 977 487 990 494 q 997 547 984 511 q 1020 607 1010 583 l 1029 631 q 983 616 994 629 q 960 584 981 613 q 922 533 939 554 q 897 517 904 513 q 897 526 895 519 q 903 543 898 532 q 913 564 907 553 q 926 587 919 575 q 938 607 932 598 q 947 623 943 616 l 950 629 q 938 628 945 629 q 914 621 930 627 q 892 604 898 614 q 882 582 885 589 q 872 563 878 576 q 864 543 866 550 q 859 526 861 535 q 857 511 857 517 q 861 501 858 505 q 878 494 866 494 q 905 501 890 494 q 932 524 920 509 l 978 585 q 939 470 956 517 q 913 454 930 464 q 890 440 897 445 q 873 427 884 436 q 853 405 863 417 q 837 359 835 381 q 858 334 839 337 q 909 350 878 330 q 941 389 930 364 q 968 459 953 413 q 971 471 970 467 q 1003 488 987 480 q 979 409 984 435 q 983 381 975 396 q 1000 357 990 366 l 1008 347 q 1031 453 1004 362 q 1067 538 1046 504 q 1109 584 1082 565 q 1143 597 1135 603 q 1144 576 1147 592 q 1135 547 1141 561 q 1101 506 1122 521 q 1066 490 1080 491 l 1053 488 q 1060 484 1055 486 q 1078 477 1064 481 q 1104 474 1091 473 q 1133 487 1116 475 q 1163 521 1149 498 m 1272 610 q 1306 625 1291 631 q 1310 602 1319 620 q 1295 585 1304 593 q 1275 575 1286 577 q 1256 574 1263 572 l 1249 575 q 1252 569 1250 572 q 1264 559 1255 565 q 1285 553 1273 553 q 1322 570 1310 555 q 1333 607 1335 586 q 1318 631 1333 621 q 1283 643 1304 642 q 1237 627 1262 644 q 1201 586 1216 611 q 1185 533 1185 562 q 1208 487 1185 505 q 1246 478 1224 475 q 1289 493 1269 481 q 1321 517 1310 504 q 1326 528 1324 521 q 1329 541 1329 536 l 1329 547 q 1275 504 1313 521 q 1227 503 1238 487 q 1233 552 1218 519 q 1272 610 1249 585 m 367 551 q 381 508 368 528 q 413 481 394 488 q 393 439 404 449 q 367 434 381 430 q 354 472 355 437 q 361 532 353 506 q 367 551 363 541 m 645 143 q 630 148 635 143 q 625 161 625 153 q 628 175 625 170 q 637 185 631 180 q 651 189 644 189 q 666 184 661 189 q 671 172 671 180 q 667 157 671 164 q 659 147 664 151 q 645 143 652 143 m 1145 94 l 241 94 l 271 241 l 1175 241 l 1145 94 m 1118 202 l 1055 202 l 1052 189 l 1075 189 l 1063 130 l 1080 130 l 1092 189 l 1115 189 l 1118 202 m 962 202 l 947 130 l 964 130 l 972 175 l 1000 130 l 1013 130 l 1027 202 l 1011 202 l 1002 157 l 975 202 l 962 202 m 850 182 q 844 160 844 172 q 848 144 844 151 q 861 133 852 137 q 879 129 869 129 q 903 135 892 129 q 918 150 914 142 q 924 172 924 161 q 920 189 924 182 q 907 199 916 195 q 888 203 899 203 q 865 198 874 203 q 850 182 854 191 m 773 202 l 759 130 l 775 130 l 781 157 l 814 157 l 817 170 l 783 170 l 787 189 l 825 189 l 827 202 l 773 202 m 614 182 q 608 160 608 174 q 612 144 608 151 q 625 133 616 137 q 643 129 633 129 q 667 135 656 129 q 682 150 678 142 q 688 172 688 159 q 684 189 688 182 q 671 199 680 195 q 652 203 663 203 q 629 198 638 203 q 614 182 618 191 m 517 202 l 504 202 l 490 130 l 505 130 l 513 174 l 528 138 l 536 138 l 564 173 l 555 130 l 570 130 l 585 202 l 570 202 l 535 157 l 517 202 m 416 202 l 402 130 l 458 130 l 460 144 l 421 144 l 425 160 l 458 160 l 460 173 l 427 173 l 430 189 l 468 189 l 471 202 l 416 202 m 343 202 l 313 202 l 299 130 l 334 130 q 357 136 347 130 q 373 150 366 140 q 378 172 378 158 q 374 188 378 180 q 362 199 370 195 q 343 202 355 202 m 881 143 q 866 148 871 143 q 861 161 861 153 q 864 175 861 170 q 873 185 867 180 q 887 189 880 189 q 902 184 897 189 q 907 172 907 180 q 903 157 907 164 q 895 147 900 151 q 881 143 888 143 m 349 147 q 334 144 342 144 l 318 144 l 327 189 l 341 189 q 357 184 351 189 q 362 172 362 178 q 359 157 362 164 q 349 147 355 150 z "},"+":{"ha":1415,"x_min":26,"x_max":1390,"o":"m 865 399 q 932 450 883 426 q 905 384 916 406 q 880 358 893 363 q 854 365 858 351 q 865 399 850 378 m 390 567 q 415 553 408 595 q 416 495 421 517 l 416 494 q 390 527 399 504 q 390 567 380 549 m 1388 575 q 1378 530 1390 551 q 1383 513 1383 523 q 1367 462 1383 479 q 1319 427 1350 442 q 1261 412 1289 412 q 1212 429 1232 412 q 1195 446 1203 435 q 1118 410 1162 410 q 1085 415 1100 410 q 1084 413 1085 414 q 1084 410 1084 411 q 1062 321 1061 335 q 1061 301 1065 311 q 1048 286 1057 292 q 1031 281 1041 281 q 1010 290 1020 281 q 983 324 995 303 q 951 290 968 303 q 889 267 919 267 q 835 300 863 267 q 812 334 823 313 q 806 368 804 348 q 804 370 806 369 q 802 372 803 371 q 777 366 790 366 q 718 404 742 366 q 712 417 714 410 l 708 421 l 705 398 q 688 372 703 380 q 673 368 681 368 q 658 372 665 368 q 655 373 657 372 q 651 376 653 374 q 646 379 648 377 q 640 377 646 378 l 635 376 q 628 376 631 376 q 575 404 593 376 q 532 378 555 380 q 529 378 531 378 q 526 378 526 378 q 475 401 492 378 q 397 356 442 356 q 338 380 363 356 q 341 354 338 370 q 327 322 345 333 q 310 317 319 317 q 292 323 300 317 l 290 324 q 286 329 288 326 q 279 334 283 331 q 271 342 275 338 q 262 353 267 347 q 252 366 257 359 q 243 382 248 374 q 224 408 231 396 q 229 349 220 368 q 229 318 238 334 q 202 302 220 302 q 144 331 168 302 q 100 414 105 376 q 82 409 91 409 q 71 411 76 409 q 37 441 48 420 q 28 477 26 463 q 29 486 28 479 q 37 505 31 492 q 53 529 43 517 q 83 553 63 541 q 128 573 102 566 q 155 657 144 629 q 172 692 167 686 q 186 701 178 697 q 199 703 193 703 q 262 664 224 703 q 267 659 265 661 q 315 752 286 703 q 372 782 334 782 q 422 769 397 782 q 446 741 430 765 q 463 709 462 718 q 448 681 464 691 q 430 663 442 677 q 467 631 452 651 q 473 615 472 624 q 475 614 473 614 l 476 613 q 496 639 486 631 q 551 661 519 661 q 606 636 589 661 q 622 637 617 637 q 680 763 643 703 q 736 793 699 793 q 787 781 761 793 q 804 754 802 772 l 804 752 q 925 754 836 754 l 979 754 q 1016 757 998 754 q 1042 763 1034 760 l 1050 766 q 1062 768 1055 768 q 1085 758 1076 768 q 1098 740 1089 754 q 1108 724 1107 725 q 1114 690 1121 707 q 1106 675 1112 684 q 1134 652 1129 671 q 1135 645 1135 648 q 1148 646 1139 646 q 1192 627 1175 646 q 1218 652 1202 640 q 1282 675 1249 675 q 1329 663 1310 675 q 1367 625 1348 650 q 1388 575 1386 602 m 287 382 q 297 520 277 440 q 349 662 317 600 q 408 741 380 724 q 395 747 403 744 q 369 749 387 750 q 342 735 351 749 q 287 627 308 680 q 261 536 266 574 q 256 478 256 498 q 258 444 256 458 q 234 528 239 479 q 235 610 230 578 l 240 642 q 231 651 237 646 q 214 665 225 656 q 197 671 202 673 q 153 547 186 667 q 110 533 129 543 q 82 514 91 524 q 67 495 73 504 q 60 480 61 486 l 59 474 q 144 509 73 494 q 132 458 134 465 q 131 414 128 431 q 142 387 134 397 q 158 373 150 378 q 172 368 166 369 l 179 368 q 169 417 169 386 q 175 480 168 449 q 190 540 182 511 q 205 587 198 569 l 212 605 q 225 492 214 543 q 248 430 233 458 q 275 393 263 403 l 287 382 m 572 469 q 585 447 576 454 q 602 441 595 440 l 610 441 q 607 447 609 443 q 602 469 605 452 q 604 510 599 486 q 613 554 607 530 q 623 593 618 578 l 627 606 q 583 591 591 608 q 556 536 568 564 q 532 490 544 509 q 505 469 513 461 q 506 504 498 475 q 528 562 513 534 q 554 603 544 595 q 583 606 564 612 q 576 623 587 616 q 548 629 565 630 q 517 616 530 627 q 474 522 488 587 q 446 493 462 500 q 452 542 453 524 q 437 596 450 582 q 403 608 425 610 q 442 612 419 619 q 433 623 439 616 q 411 637 427 629 q 379 640 394 645 q 331 565 353 630 q 319 465 309 500 q 364 422 332 428 q 427 454 397 416 q 441 479 435 465 q 471 496 456 482 q 471 469 469 477 q 507 444 475 441 q 540 474 521 444 q 571 532 559 503 l 584 561 q 579 544 582 554 q 572 507 576 534 q 572 469 567 480 m 767 435 q 765 437 766 435 q 760 446 763 439 q 754 460 756 452 q 753 483 753 469 q 757 512 753 496 q 770 558 762 536 q 781 590 777 580 l 786 600 l 757 614 q 746 614 750 617 q 659 515 692 575 q 711 663 676 590 q 772 753 745 735 q 759 759 767 755 q 733 761 751 762 q 707 747 715 760 q 636 570 659 670 q 622 468 618 492 q 630 450 623 459 q 643 437 637 441 l 650 433 q 684 527 651 485 q 714 564 700 549 q 734 583 728 578 l 740 587 q 736 576 739 583 q 727 551 733 569 q 718 516 722 532 q 715 482 715 500 q 722 454 715 465 q 743 433 732 438 q 761 431 754 429 l 767 435 m 829 405 q 836 518 810 436 q 901 686 862 601 q 999 688 986 687 q 1034 702 1019 690 q 1056 726 1050 714 l 1062 736 q 979 723 1029 724 q 928 723 963 723 q 872 722 893 722 q 826 721 850 722 q 788 719 801 720 q 752 703 768 716 q 731 677 736 689 l 726 665 q 795 682 734 677 q 853 684 807 682 q 825 608 851 677 q 789 497 798 538 q 787 461 785 477 q 796 435 789 446 q 810 418 803 425 q 823 408 818 411 l 829 405 m 1163 521 q 1181 567 1179 549 q 1177 595 1183 586 q 1131 611 1164 623 q 1098 590 1114 605 q 1073 564 1082 576 l 1065 553 q 1103 644 1101 644 l 1084 644 q 1053 627 1060 640 q 1013 516 1034 576 q 1011 511 1012 515 q 1009 506 1010 508 q 977 487 990 494 q 997 547 984 511 q 1020 607 1010 583 l 1029 631 q 983 616 994 629 q 960 584 981 613 q 922 533 939 554 q 897 517 904 513 q 897 526 895 519 q 903 543 898 532 q 913 564 907 553 q 926 587 919 575 q 938 607 932 598 q 947 623 943 616 l 950 629 q 938 628 945 629 q 914 621 930 627 q 892 604 898 614 q 882 582 885 589 q 872 563 878 576 q 864 543 866 550 q 859 526 861 535 q 857 511 857 517 q 861 501 858 505 q 878 494 866 494 q 905 501 890 494 q 932 524 920 509 l 978 585 q 939 470 956 517 q 913 454 930 464 q 890 440 897 445 q 873 427 884 436 q 853 405 863 417 q 837 359 835 381 q 858 334 839 337 q 909 350 878 330 q 941 389 930 364 q 968 459 953 413 q 971 471 970 467 q 1003 488 987 480 q 979 409 984 435 q 983 381 975 396 q 1000 357 990 366 l 1008 347 q 1031 453 1004 362 q 1067 538 1046 504 q 1109 584 1082 565 q 1143 597 1135 603 q 1144 576 1147 592 q 1135 547 1141 561 q 1101 506 1122 521 q 1066 490 1080 491 l 1053 488 q 1060 484 1055 486 q 1078 477 1064 481 q 1104 474 1091 473 q 1133 487 1116 475 q 1163 521 1149 498 m 1272 610 q 1306 625 1291 631 q 1310 602 1319 620 q 1295 585 1304 593 q 1275 575 1286 577 q 1256 574 1263 572 l 1249 575 q 1252 569 1250 572 q 1264 559 1255 565 q 1285 553 1273 553 q 1322 570 1310 555 q 1333 607 1335 586 q 1318 631 1333 621 q 1283 643 1304 642 q 1237 627 1262 644 q 1201 586 1216 611 q 1185 533 1185 562 q 1208 487 1185 505 q 1246 478 1224 475 q 1289 493 1269 481 q 1321 517 1310 504 q 1326 528 1324 521 q 1329 541 1329 536 l 1329 547 q 1275 504 1313 521 q 1227 503 1238 487 q 1233 552 1218 519 q 1272 610 1249 585 m 367 551 q 381 508 368 528 q 413 481 394 488 q 393 439 404 449 q 367 434 381 430 q 354 472 355 437 q 361 532 353 506 q 367 551 363 541 m 645 143 q 630 148 635 143 q 625 161 625 153 q 628 175 625 170 q 637 185 631 180 q 651 189 644 189 q 666 184 661 189 q 671 172 671 180 q 667 157 671 164 q 659 147 664 151 q 645 143 652 143 m 1145 94 l 241 94 l 271 241 l 1175 241 l 1145 94 m 1118 202 l 1055 202 l 1052 189 l 1075 189 l 1063 130 l 1080 130 l 1092 189 l 1115 189 l 1118 202 m 962 202 l 947 130 l 964 130 l 972 175 l 1000 130 l 1013 130 l 1027 202 l 1011 202 l 1002 157 l 975 202 l 962 202 m 850 182 q 844 160 844 172 q 848 144 844 151 q 861 133 852 137 q 879 129 869 129 q 903 135 892 129 q 918 150 914 142 q 924 172 924 161 q 920 189 924 182 q 907 199 916 195 q 888 203 899 203 q 865 198 874 203 q 850 182 854 191 m 773 202 l 759 130 l 775 130 l 781 157 l 814 157 l 817 170 l 783 170 l 787 189 l 825 189 l 827 202 l 773 202 m 614 182 q 608 160 608 174 q 612 144 608 151 q 625 133 616 137 q 643 129 633 129 q 667 135 656 129 q 682 150 678 142 q 688 172 688 159 q 684 189 688 182 q 671 199 680 195 q 652 203 663 203 q 629 198 638 203 q 614 182 618 191 m 517 202 l 504 202 l 490 130 l 505 130 l 513 174 l 528 138 l 536 138 l 564 173 l 555 130 l 570 130 l 585 202 l 570 202 l 535 157 l 517 202 m 416 202 l 402 130 l 458 130 l 460 144 l 421 144 l 425 160 l 458 160 l 460 173 l 427 173 l 430 189 l 468 189 l 471 202 l 416 202 m 343 202 l 313 202 l 299 130 l 334 130 q 357 136 347 130 q 373 150 366 140 q 378 172 378 158 q 374 188 378 180 q 362 199 370 195 q 343 202 355 202 m 881 143 q 866 148 871 143 q 861 161 861 153 q 864 175 861 170 q 873 185 867 180 q 887 189 880 189 q 902 184 897 189 q 907 172 907 180 q 903 157 907 164 q 895 147 900 151 q 881 143 888 143 m 349 147 q 334 144 342 144 l 318 144 l 327 189 l 341 189 q 357 184 351 189 q 362 172 362 178 q 359 157 362 164 q 349 147 355 150 z "},",":{"ha":1415,"x_min":26,"x_max":1390,"o":"m 865 399 q 932 450 883 426 q 905 384 916 406 q 880 358 893 363 q 854 365 858 351 q 865 399 850 378 m 390 567 q 415 553 408 595 q 416 495 421 517 l 416 494 q 390 527 399 504 q 390 567 380 549 m 1388 575 q 1378 530 1390 551 q 1383 513 1383 523 q 1367 462 1383 479 q 1319 427 1350 442 q 1261 412 1289 412 q 1212 429 1232 412 q 1195 446 1203 435 q 1118 410 1162 410 q 1085 415 1100 410 q 1084 413 1085 414 q 1084 410 1084 411 q 1062 321 1061 335 q 1061 301 1065 311 q 1048 286 1057 292 q 1031 281 1041 281 q 1010 290 1020 281 q 983 324 995 303 q 951 290 968 303 q 889 267 919 267 q 835 300 863 267 q 812 334 823 313 q 806 368 804 348 q 804 370 806 369 q 802 372 803 371 q 777 366 790 366 q 718 404 742 366 q 712 417 714 410 l 708 421 l 705 398 q 688 372 703 380 q 673 368 681 368 q 658 372 665 368 q 655 373 657 372 q 651 376 653 374 q 646 379 648 377 q 640 377 646 378 l 635 376 q 628 376 631 376 q 575 404 593 376 q 532 378 555 380 q 529 378 531 378 q 526 378 526 378 q 475 401 492 378 q 397 356 442 356 q 338 380 363 356 q 341 354 338 370 q 327 322 345 333 q 310 317 319 317 q 292 323 300 317 l 290 324 q 286 329 288 326 q 279 334 283 331 q 271 342 275 338 q 262 353 267 347 q 252 366 257 359 q 243 382 248 374 q 224 408 231 396 q 229 349 220 368 q 229 318 238 334 q 202 302 220 302 q 144 331 168 302 q 100 414 105 376 q 82 409 91 409 q 71 411 76 409 q 37 441 48 420 q 28 477 26 463 q 29 486 28 479 q 37 505 31 492 q 53 529 43 517 q 83 553 63 541 q 128 573 102 566 q 155 657 144 629 q 172 692 167 686 q 186 701 178 697 q 199 703 193 703 q 262 664 224 703 q 267 659 265 661 q 315 752 286 703 q 372 782 334 782 q 422 769 397 782 q 446 741 430 765 q 463 709 462 718 q 448 681 464 691 q 430 663 442 677 q 467 631 452 651 q 473 615 472 624 q 475 614 473 614 l 476 613 q 496 639 486 631 q 551 661 519 661 q 606 636 589 661 q 622 637 617 637 q 680 763 643 703 q 736 793 699 793 q 787 781 761 793 q 804 754 802 772 l 804 752 q 925 754 836 754 l 979 754 q 1016 757 998 754 q 1042 763 1034 760 l 1050 766 q 1062 768 1055 768 q 1085 758 1076 768 q 1098 740 1089 754 q 1108 724 1107 725 q 1114 690 1121 707 q 1106 675 1112 684 q 1134 652 1129 671 q 1135 645 1135 648 q 1148 646 1139 646 q 1192 627 1175 646 q 1218 652 1202 640 q 1282 675 1249 675 q 1329 663 1310 675 q 1367 625 1348 650 q 1388 575 1386 602 m 287 382 q 297 520 277 440 q 349 662 317 600 q 408 741 380 724 q 395 747 403 744 q 369 749 387 750 q 342 735 351 749 q 287 627 308 680 q 261 536 266 574 q 256 478 256 498 q 258 444 256 458 q 234 528 239 479 q 235 610 230 578 l 240 642 q 231 651 237 646 q 214 665 225 656 q 197 671 202 673 q 153 547 186 667 q 110 533 129 543 q 82 514 91 524 q 67 495 73 504 q 60 480 61 486 l 59 474 q 144 509 73 494 q 132 458 134 465 q 131 414 128 431 q 142 387 134 397 q 158 373 150 378 q 172 368 166 369 l 179 368 q 169 417 169 386 q 175 480 168 449 q 190 540 182 511 q 205 587 198 569 l 212 605 q 225 492 214 543 q 248 430 233 458 q 275 393 263 403 l 287 382 m 572 469 q 585 447 576 454 q 602 441 595 440 l 610 441 q 607 447 609 443 q 602 469 605 452 q 604 510 599 486 q 613 554 607 530 q 623 593 618 578 l 627 606 q 583 591 591 608 q 556 536 568 564 q 532 490 544 509 q 505 469 513 461 q 506 504 498 475 q 528 562 513 534 q 554 603 544 595 q 583 606 564 612 q 576 623 587 616 q 548 629 565 630 q 517 616 530 627 q 474 522 488 587 q 446 493 462 500 q 452 542 453 524 q 437 596 450 582 q 403 608 425 610 q 442 612 419 619 q 433 623 439 616 q 411 637 427 629 q 379 640 394 645 q 331 565 353 630 q 319 465 309 500 q 364 422 332 428 q 427 454 397 416 q 441 479 435 465 q 471 496 456 482 q 471 469 469 477 q 507 444 475 441 q 540 474 521 444 q 571 532 559 503 l 584 561 q 579 544 582 554 q 572 507 576 534 q 572 469 567 480 m 767 435 q 765 437 766 435 q 760 446 763 439 q 754 460 756 452 q 753 483 753 469 q 757 512 753 496 q 770 558 762 536 q 781 590 777 580 l 786 600 l 757 614 q 746 614 750 617 q 659 515 692 575 q 711 663 676 590 q 772 753 745 735 q 759 759 767 755 q 733 761 751 762 q 707 747 715 760 q 636 570 659 670 q 622 468 618 492 q 630 450 623 459 q 643 437 637 441 l 650 433 q 684 527 651 485 q 714 564 700 549 q 734 583 728 578 l 740 587 q 736 576 739 583 q 727 551 733 569 q 718 516 722 532 q 715 482 715 500 q 722 454 715 465 q 743 433 732 438 q 761 431 754 429 l 767 435 m 829 405 q 836 518 810 436 q 901 686 862 601 q 999 688 986 687 q 1034 702 1019 690 q 1056 726 1050 714 l 1062 736 q 979 723 1029 724 q 928 723 963 723 q 872 722 893 722 q 826 721 850 722 q 788 719 801 720 q 752 703 768 716 q 731 677 736 689 l 726 665 q 795 682 734 677 q 853 684 807 682 q 825 608 851 677 q 789 497 798 538 q 787 461 785 477 q 796 435 789 446 q 810 418 803 425 q 823 408 818 411 l 829 405 m 1163 521 q 1181 567 1179 549 q 1177 595 1183 586 q 1131 611 1164 623 q 1098 590 1114 605 q 1073 564 1082 576 l 1065 553 q 1103 644 1101 644 l 1084 644 q 1053 627 1060 640 q 1013 516 1034 576 q 1011 511 1012 515 q 1009 506 1010 508 q 977 487 990 494 q 997 547 984 511 q 1020 607 1010 583 l 1029 631 q 983 616 994 629 q 960 584 981 613 q 922 533 939 554 q 897 517 904 513 q 897 526 895 519 q 903 543 898 532 q 913 564 907 553 q 926 587 919 575 q 938 607 932 598 q 947 623 943 616 l 950 629 q 938 628 945 629 q 914 621 930 627 q 892 604 898 614 q 882 582 885 589 q 872 563 878 576 q 864 543 866 550 q 859 526 861 535 q 857 511 857 517 q 861 501 858 505 q 878 494 866 494 q 905 501 890 494 q 932 524 920 509 l 978 585 q 939 470 956 517 q 913 454 930 464 q 890 440 897 445 q 873 427 884 436 q 853 405 863 417 q 837 359 835 381 q 858 334 839 337 q 909 350 878 330 q 941 389 930 364 q 968 459 953 413 q 971 471 970 467 q 1003 488 987 480 q 979 409 984 435 q 983 381 975 396 q 1000 357 990 366 l 1008 347 q 1031 453 1004 362 q 1067 538 1046 504 q 1109 584 1082 565 q 1143 597 1135 603 q 1144 576 1147 592 q 1135 547 1141 561 q 1101 506 1122 521 q 1066 490 1080 491 l 1053 488 q 1060 484 1055 486 q 1078 477 1064 481 q 1104 474 1091 473 q 1133 487 1116 475 q 1163 521 1149 498 m 1272 610 q 1306 625 1291 631 q 1310 602 1319 620 q 1295 585 1304 593 q 1275 575 1286 577 q 1256 574 1263 572 l 1249 575 q 1252 569 1250 572 q 1264 559 1255 565 q 1285 553 1273 553 q 1322 570 1310 555 q 1333 607 1335 586 q 1318 631 1333 621 q 1283 643 1304 642 q 1237 627 1262 644 q 1201 586 1216 611 q 1185 533 1185 562 q 1208 487 1185 505 q 1246 478 1224 475 q 1289 493 1269 481 q 1321 517 1310 504 q 1326 528 1324 521 q 1329 541 1329 536 l 1329 547 q 1275 504 1313 521 q 1227 503 1238 487 q 1233 552 1218 519 q 1272 610 1249 585 m 367 551 q 381 508 368 528 q 413 481 394 488 q 393 439 404 449 q 367 434 381 430 q 354 472 355 437 q 361 532 353 506 q 367 551 363 541 m 645 143 q 630 148 635 143 q 625 161 625 153 q 628 175 625 170 q 637 185 631 180 q 651 189 644 189 q 666 184 661 189 q 671 172 671 180 q 667 157 671 164 q 659 147 664 151 q 645 143 652 143 m 1145 94 l 241 94 l 271 241 l 1175 241 l 1145 94 m 1118 202 l 1055 202 l 1052 189 l 1075 189 l 1063 130 l 1080 130 l 1092 189 l 1115 189 l 1118 202 m 962 202 l 947 130 l 964 130 l 972 175 l 1000 130 l 1013 130 l 1027 202 l 1011 202 l 1002 157 l 975 202 l 962 202 m 850 182 q 844 160 844 172 q 848 144 844 151 q 861 133 852 137 q 879 129 869 129 q 903 135 892 129 q 918 150 914 142 q 924 172 924 161 q 920 189 924 182 q 907 199 916 195 q 888 203 899 203 q 865 198 874 203 q 850 182 854 191 m 773 202 l 759 130 l 775 130 l 781 157 l 814 157 l 817 170 l 783 170 l 787 189 l 825 189 l 827 202 l 773 202 m 614 182 q 608 160 608 174 q 612 144 608 151 q 625 133 616 137 q 643 129 633 129 q 667 135 656 129 q 682 150 678 142 q 688 172 688 159 q 684 189 688 182 q 671 199 680 195 q 652 203 663 203 q 629 198 638 203 q 614 182 618 191 m 517 202 l 504 202 l 490 130 l 505 130 l 513 174 l 528 138 l 536 138 l 564 173 l 555 130 l 570 130 l 585 202 l 570 202 l 535 157 l 517 202 m 416 202 l 402 130 l 458 130 l 460 144 l 421 144 l 425 160 l 458 160 l 460 173 l 427 173 l 430 189 l 468 189 l 471 202 l 416 202 m 343 202 l 313 202 l 299 130 l 334 130 q 357 136 347 130 q 373 150 366 140 q 378 172 378 158 q 374 188 378 180 q 362 199 370 195 q 343 202 355 202 m 881 143 q 866 148 871 143 q 861 161 861 153 q 864 175 861 170 q 873 185 867 180 q 887 189 880 189 q 902 184 897 189 q 907 172 907 180 q 903 157 907 164 q 895 147 900 151 q 881 143 888 143 m 349 147 q 334 144 342 144 l 318 144 l 327 189 l 341 189 q 357 184 351 189 q 362 172 362 178 q 359 157 362 164 q 349 147 355 150 z "},"-":{"ha":1415,"x_min":26,"x_max":1390,"o":"m 865 399 q 932 450 883 426 q 905 384 916 406 q 880 358 893 363 q 854 365 858 351 q 865 399 850 378 m 390 567 q 415 553 408 595 q 416 495 421 517 l 416 494 q 390 527 399 504 q 390 567 380 549 m 1388 575 q 1378 530 1390 551 q 1383 513 1383 523 q 1367 462 1383 479 q 1319 427 1350 442 q 1261 412 1289 412 q 1212 429 1232 412 q 1195 446 1203 435 q 1118 410 1162 410 q 1085 415 1100 410 q 1084 413 1085 414 q 1084 410 1084 411 q 1062 321 1061 335 q 1061 301 1065 311 q 1048 286 1057 292 q 1031 281 1041 281 q 1010 290 1020 281 q 983 324 995 303 q 951 290 968 303 q 889 267 919 267 q 835 300 863 267 q 812 334 823 313 q 806 368 804 348 q 804 370 806 369 q 802 372 803 371 q 777 366 790 366 q 718 404 742 366 q 712 417 714 410 l 708 421 l 705 398 q 688 372 703 380 q 673 368 681 368 q 658 372 665 368 q 655 373 657 372 q 651 376 653 374 q 646 379 648 377 q 640 377 646 378 l 635 376 q 628 376 631 376 q 575 404 593 376 q 532 378 555 380 q 529 378 531 378 q 526 378 526 378 q 475 401 492 378 q 397 356 442 356 q 338 380 363 356 q 341 354 338 370 q 327 322 345 333 q 310 317 319 317 q 292 323 300 317 l 290 324 q 286 329 288 326 q 279 334 283 331 q 271 342 275 338 q 262 353 267 347 q 252 366 257 359 q 243 382 248 374 q 224 408 231 396 q 229 349 220 368 q 229 318 238 334 q 202 302 220 302 q 144 331 168 302 q 100 414 105 376 q 82 409 91 409 q 71 411 76 409 q 37 441 48 420 q 28 477 26 463 q 29 486 28 479 q 37 505 31 492 q 53 529 43 517 q 83 553 63 541 q 128 573 102 566 q 155 657 144 629 q 172 692 167 686 q 186 701 178 697 q 199 703 193 703 q 262 664 224 703 q 267 659 265 661 q 315 752 286 703 q 372 782 334 782 q 422 769 397 782 q 446 741 430 765 q 463 709 462 718 q 448 681 464 691 q 430 663 442 677 q 467 631 452 651 q 473 615 472 624 q 475 614 473 614 l 476 613 q 496 639 486 631 q 551 661 519 661 q 606 636 589 661 q 622 637 617 637 q 680 763 643 703 q 736 793 699 793 q 787 781 761 793 q 804 754 802 772 l 804 752 q 925 754 836 754 l 979 754 q 1016 757 998 754 q 1042 763 1034 760 l 1050 766 q 1062 768 1055 768 q 1085 758 1076 768 q 1098 740 1089 754 q 1108 724 1107 725 q 1114 690 1121 707 q 1106 675 1112 684 q 1134 652 1129 671 q 1135 645 1135 648 q 1148 646 1139 646 q 1192 627 1175 646 q 1218 652 1202 640 q 1282 675 1249 675 q 1329 663 1310 675 q 1367 625 1348 650 q 1388 575 1386 602 m 287 382 q 297 520 277 440 q 349 662 317 600 q 408 741 380 724 q 395 747 403 744 q 369 749 387 750 q 342 735 351 749 q 287 627 308 680 q 261 536 266 574 q 256 478 256 498 q 258 444 256 458 q 234 528 239 479 q 235 610 230 578 l 240 642 q 231 651 237 646 q 214 665 225 656 q 197 671 202 673 q 153 547 186 667 q 110 533 129 543 q 82 514 91 524 q 67 495 73 504 q 60 480 61 486 l 59 474 q 144 509 73 494 q 132 458 134 465 q 131 414 128 431 q 142 387 134 397 q 158 373 150 378 q 172 368 166 369 l 179 368 q 169 417 169 386 q 175 480 168 449 q 190 540 182 511 q 205 587 198 569 l 212 605 q 225 492 214 543 q 248 430 233 458 q 275 393 263 403 l 287 382 m 572 469 q 585 447 576 454 q 602 441 595 440 l 610 441 q 607 447 609 443 q 602 469 605 452 q 604 510 599 486 q 613 554 607 530 q 623 593 618 578 l 627 606 q 583 591 591 608 q 556 536 568 564 q 532 490 544 509 q 505 469 513 461 q 506 504 498 475 q 528 562 513 534 q 554 603 544 595 q 583 606 564 612 q 576 623 587 616 q 548 629 565 630 q 517 616 530 627 q 474 522 488 587 q 446 493 462 500 q 452 542 453 524 q 437 596 450 582 q 403 608 425 610 q 442 612 419 619 q 433 623 439 616 q 411 637 427 629 q 379 640 394 645 q 331 565 353 630 q 319 465 309 500 q 364 422 332 428 q 427 454 397 416 q 441 479 435 465 q 471 496 456 482 q 471 469 469 477 q 507 444 475 441 q 540 474 521 444 q 571 532 559 503 l 584 561 q 579 544 582 554 q 572 507 576 534 q 572 469 567 480 m 767 435 q 765 437 766 435 q 760 446 763 439 q 754 460 756 452 q 753 483 753 469 q 757 512 753 496 q 770 558 762 536 q 781 590 777 580 l 786 600 l 757 614 q 746 614 750 617 q 659 515 692 575 q 711 663 676 590 q 772 753 745 735 q 759 759 767 755 q 733 761 751 762 q 707 747 715 760 q 636 570 659 670 q 622 468 618 492 q 630 450 623 459 q 643 437 637 441 l 650 433 q 684 527 651 485 q 714 564 700 549 q 734 583 728 578 l 740 587 q 736 576 739 583 q 727 551 733 569 q 718 516 722 532 q 715 482 715 500 q 722 454 715 465 q 743 433 732 438 q 761 431 754 429 l 767 435 m 829 405 q 836 518 810 436 q 901 686 862 601 q 999 688 986 687 q 1034 702 1019 690 q 1056 726 1050 714 l 1062 736 q 979 723 1029 724 q 928 723 963 723 q 872 722 893 722 q 826 721 850 722 q 788 719 801 720 q 752 703 768 716 q 731 677 736 689 l 726 665 q 795 682 734 677 q 853 684 807 682 q 825 608 851 677 q 789 497 798 538 q 787 461 785 477 q 796 435 789 446 q 810 418 803 425 q 823 408 818 411 l 829 405 m 1163 521 q 1181 567 1179 549 q 1177 595 1183 586 q 1131 611 1164 623 q 1098 590 1114 605 q 1073 564 1082 576 l 1065 553 q 1103 644 1101 644 l 1084 644 q 1053 627 1060 640 q 1013 516 1034 576 q 1011 511 1012 515 q 1009 506 1010 508 q 977 487 990 494 q 997 547 984 511 q 1020 607 1010 583 l 1029 631 q 983 616 994 629 q 960 584 981 613 q 922 533 939 554 q 897 517 904 513 q 897 526 895 519 q 903 543 898 532 q 913 564 907 553 q 926 587 919 575 q 938 607 932 598 q 947 623 943 616 l 950 629 q 938 628 945 629 q 914 621 930 627 q 892 604 898 614 q 882 582 885 589 q 872 563 878 576 q 864 543 866 550 q 859 526 861 535 q 857 511 857 517 q 861 501 858 505 q 878 494 866 494 q 905 501 890 494 q 932 524 920 509 l 978 585 q 939 470 956 517 q 913 454 930 464 q 890 440 897 445 q 873 427 884 436 q 853 405 863 417 q 837 359 835 381 q 858 334 839 337 q 909 350 878 330 q 941 389 930 364 q 968 459 953 413 q 971 471 970 467 q 1003 488 987 480 q 979 409 984 435 q 983 381 975 396 q 1000 357 990 366 l 1008 347 q 1031 453 1004 362 q 1067 538 1046 504 q 1109 584 1082 565 q 1143 597 1135 603 q 1144 576 1147 592 q 1135 547 1141 561 q 1101 506 1122 521 q 1066 490 1080 491 l 1053 488 q 1060 484 1055 486 q 1078 477 1064 481 q 1104 474 1091 473 q 1133 487 1116 475 q 1163 521 1149 498 m 1272 610 q 1306 625 1291 631 q 1310 602 1319 620 q 1295 585 1304 593 q 1275 575 1286 577 q 1256 574 1263 572 l 1249 575 q 1252 569 1250 572 q 1264 559 1255 565 q 1285 553 1273 553 q 1322 570 1310 555 q 1333 607 1335 586 q 1318 631 1333 621 q 1283 643 1304 642 q 1237 627 1262 644 q 1201 586 1216 611 q 1185 533 1185 562 q 1208 487 1185 505 q 1246 478 1224 475 q 1289 493 1269 481 q 1321 517 1310 504 q 1326 528 1324 521 q 1329 541 1329 536 l 1329 547 q 1275 504 1313 521 q 1227 503 1238 487 q 1233 552 1218 519 q 1272 610 1249 585 m 367 551 q 381 508 368 528 q 413 481 394 488 q 393 439 404 449 q 367 434 381 430 q 354 472 355 437 q 361 532 353 506 q 367 551 363 541 m 645 143 q 630 148 635 143 q 625 161 625 153 q 628 175 625 170 q 637 185 631 180 q 651 189 644 189 q 666 184 661 189 q 671 172 671 180 q 667 157 671 164 q 659 147 664 151 q 645 143 652 143 m 1145 94 l 241 94 l 271 241 l 1175 241 l 1145 94 m 1118 202 l 1055 202 l 1052 189 l 1075 189 l 1063 130 l 1080 130 l 1092 189 l 1115 189 l 1118 202 m 962 202 l 947 130 l 964 130 l 972 175 l 1000 130 l 1013 130 l 1027 202 l 1011 202 l 1002 157 l 975 202 l 962 202 m 850 182 q 844 160 844 172 q 848 144 844 151 q 861 133 852 137 q 879 129 869 129 q 903 135 892 129 q 918 150 914 142 q 924 172 924 161 q 920 189 924 182 q 907 199 916 195 q 888 203 899 203 q 865 198 874 203 q 850 182 854 191 m 773 202 l 759 130 l 775 130 l 781 157 l 814 157 l 817 170 l 783 170 l 787 189 l 825 189 l 827 202 l 773 202 m 614 182 q 608 160 608 174 q 612 144 608 151 q 625 133 616 137 q 643 129 633 129 q 667 135 656 129 q 682 150 678 142 q 688 172 688 159 q 684 189 688 182 q 671 199 680 195 q 652 203 663 203 q 629 198 638 203 q 614 182 618 191 m 517 202 l 504 202 l 490 130 l 505 130 l 513 174 l 528 138 l 536 138 l 564 173 l 555 130 l 570 130 l 585 202 l 570 202 l 535 157 l 517 202 m 416 202 l 402 130 l 458 130 l 460 144 l 421 144 l 425 160 l 458 160 l 460 173 l 427 173 l 430 189 l 468 189 l 471 202 l 416 202 m 343 202 l 313 202 l 299 130 l 334 130 q 357 136 347 130 q 373 150 366 140 q 378 172 378 158 q 374 188 378 180 q 362 199 370 195 q 343 202 355 202 m 881 143 q 866 148 871 143 q 861 161 861 153 q 864 175 861 170 q 873 185 867 180 q 887 189 880 189 q 902 184 897 189 q 907 172 907 180 q 903 157 907 164 q 895 147 900 151 q 881 143 888 143 m 349 147 q 334 144 342 144 l 318 144 l 327 189 l 341 189 q 357 184 351 189 q 362 172 362 178 q 359 157 362 164 q 349 147 355 150 z "}}}
